{
.appVersion = "3133";
.formatVersion = 3;
DisplayStrings = (
"/_curve_b dent"
);
axes = (
{
name = Weight;
tag = wght;
}
);
date = "2016-11-08 10:02:54 +0000";
familyName = "Mell Sans 3";
featurePrefixes = (
{
automatic = 1;
code = "languagesystem DFLT dflt;
languagesystem cyrl dflt;
languagesystem latn dflt;
languagesystem latn CAT;
languagesystem latn ROM;
languagesystem latn MOL;
languagesystem latn TRK;
";
name = Languagesystems;
}
);
features = (
{
automatic = 1;
code = "feature locl;
feature frac;
";
tag = aalt;
},
{
automatic = 1;
code = "script latn;
language CAT;
sub  l' periodcentered' l by ldot;
sub  L' periodcentered' L by Ldot;
language ROM;
sub Scedilla by Scommaaccent;
sub scedilla by scommaaccent;
sub Tcedilla by Tcommaaccent;
sub tcedilla by tcommaaccent;
language MOL;
sub Scedilla by Scommaaccent;
sub scedilla by scommaaccent;
sub Tcedilla by Tcommaaccent;
sub tcedilla by tcommaaccent;
language KAZ;
sub i by idotaccent;
language TAT;
sub i by idotaccent;
language TRK;
sub i by idotaccent;
language CRT;
sub i by idotaccent;
language AZE;
sub i by idotaccent;
";
tag = locl;
},
{
automatic = 1;
code = "lookup FRAC {
	sub slash by fraction;
} FRAC;
lookup UP {
	sub [zero one two three four five six seven eight nine] by [zero.numr one.numr two.numr three.numr four.numr five.numr six.numr seven.numr eight.numr nine.numr];
} UP;
lookup DOWN {
	sub fraction [zero.numr one.numr two.numr three.numr four.numr five.numr six.numr seven.numr eight.numr nine.numr]' by [zero.dnom one.dnom two.dnom three.dnom four.dnom five.dnom six.dnom seven.dnom eight.dnom nine.dnom];
	sub [zero.dnom one.dnom two.dnom three.dnom four.dnom five.dnom six.dnom seven.dnom eight.dnom nine.dnom] [zero.numr one.numr two.numr three.numr four.numr five.numr six.numr seven.numr eight.numr nine.numr]' by [zero.dnom one.dnom two.dnom three.dnom four.dnom five.dnom six.dnom seven.dnom eight.dnom nine.dnom];
} DOWN;
";
tag = frac;
}
);
fontMaster = (
{
axesValues = (
900
);

glyphs = (
{
glyphname = B;
lastChange = "2022-01-09 19:42:42 +0000";
layers = (
{
background = {
shapes = (
{
closed = 1;
nodes = (
(300,356,o),
(243,353,o),
(323,362,c),
(377,379,o),
(413,421,o),
(413,508,cs),
(413,638,o),
(359,703,o),
(221,701,cs),
(151,700,l),
(151,700,o),
(148,356,o),
(148,356,cs)
);
},
{
closed = 1;
nodes = (
(202,619,ls),
(290,619,o),
(326,586,o),
(326,513,cs),
(326,439,o),
(311,396,o),
(226,396,cs),
(131,396,l),
(131,619,l)
);
}
);
};
layerId = "7EBE3D46-E53E-419E-A3EC-596DA2EA1E0D";
name = Regular;
shapes = (
{
alignment = -1;
pos = (40,19);
ref = _I_small;
},
{
alignment = -1;
pos = (40,158);
ref = _I_small;
},
{
alignment = -1;
pos = (40,434);
ref = _I_small;
},
{
alignment = -1;
pos = (98,657);
ref = _curve_B;
scale = (1,-1);
},
{
alignment = -1;
pos = (48,3);
ref = _curve_B;
},
{
alignment = -1;
pos = (40,321);
ref = _I_small;
}
);
width = 600;
},
{
background = {
shapes = (
{
closed = 1;
nodes = (
(300,356,o),
(243,353,o),
(323,362,c),
(377,379,o),
(413,421,o),
(413,508,cs),
(413,638,o),
(359,703,o),
(221,701,cs),
(151,700,l),
(151,700,o),
(148,356,o),
(148,356,cs)
);
},
{
closed = 1;
nodes = (
(202,619,ls),
(290,619,o),
(326,586,o),
(326,513,cs),
(326,439,o),
(311,396,o),
(226,396,cs),
(131,396,l),
(131,619,l)
);
}
);
};
layerId = m002;
name = Regular;
shapes = (
{
alignment = -1;
pos = (-60,19);
ref = _I_small;
},
{
alignment = -1;
pos = (-60,158);
ref = _I_small;
},
{
alignment = -1;
pos = (-60,423);
ref = _I_small;
},
{
alignment = -1;
pos = (48,627);
ref = _curve_B;
scale = (1,-1);
},
{
alignment = -1;
pos = (48,-7);
ref = _curve_B;
},
{
alignment = -1;
pos = (-60,321);
ref = _I_small;
}
);
width = 580;
}
);
unicode = 66;
},
{
glyphname = C;
kernLeft = O;
kernRight = O;
lastChange = "2022-07-13 19:43:05 +0000";
layers = (
{
layerId = "7EBE3D46-E53E-419E-A3EC-596DA2EA1E0D";
name = Regular;
shapes = (
{
closed = 1;
nodes = (
(455,655,o),
(399,661,o),
(322,661,cs),
(129,661,o),
(40,482,o),
(40,339,c),
(40,112,o),
(168,-1,o),
(326,-1,cs),
(388,-1,o),
(443,7,o),
(517,47,c),
(507,104,o),
(491,152,o),
(471,196,c),
(438,173,o),
(375,159,o),
(336,159,cs),
(224,159,o),
(164,236,o),
(164,342,cs),
(164,344,ls),
(164,445,o),
(239,500,o),
(344,500,cs),
(390,500,o),
(441,485,o),
(469,468,c),
(488,512,o),
(504,557,o),
(516,618,c)
);
}
);
width = 567;
},
{
layerId = m002;
name = Regular;
shapes = (
{
closed = 1;
nodes = (
(463,620,o),
(430,635,o),
(322,635,cs),
(138,635,o),
(40,462,o),
(40,319,c),
(40,92,o),
(168,-5,o),
(326,-5,cs),
(422,-5,o),
(483,18,o),
(521,38,c),
(515,54,o),
(514,60,o),
(511,76,c),
(458,44,o),
(385,27,o),
(316,27,cs),
(224,27,o),
(77,92,o),
(77,310,cs),
(77,314,ls),
(77,475,o),
(189,602,o),
(334,602,cs),
(398,602,o),
(458,585,o),
(498,561,c),
(500,570,o),
(508,587,o),
(514,595,c)
);
}
);
width = 567;
}
);
unicode = 67;
},
{
glyphname = G;
kernLeft = O;
kernRight = O;
lastChange = "2022-07-24 10:44:09 +0000";
layers = (
{
layerId = "7EBE3D46-E53E-419E-A3EC-596DA2EA1E0D";
name = Regular;
shapes = (
{
closed = 1;
nodes = (
(224,159,o),
(168,-1,o),
(326,-1,cs),
(517,-1,o),
(621,124,o),
(594,375,c),
(362,375,l),
(360,338,o),
(356,298,o),
(362,254,c),
(487,254,l),
(477,199,o),
(423,159,o),
(336,159,cs)
);
},
{
closed = 1;
nodes = (
(474,646,o),
(398,661,o),
(321,661,cs),
(128,661,o),
(39,492,o),
(39,349,c),
(39,122,o),
(167,-1,o),
(325,-1,c),
(335,159,l),
(223,159,o),
(163,224,o),
(163,340,cs),
(163,344,ls),
(163,405,o),
(197,500,o),
(343,500,cs),
(389,500,o),
(460,485,o),
(490,468,c),
(500,512,o),
(510,568,o),
(515,628,c)
);
}
);
width = 648;
},
{
layerId = m002;
name = Regular;
shapes = (
{
closed = 1;
nodes = (
(310,32,o),
(272,-1,o),
(330,-1,cs),
(511,-1,o),
(612,140,o),
(592,328,c),
(411,328,l),
(410,312,o),
(410,299,o),
(411,284,c),
(561,284,l),
(572,107,o),
(429,32,o),
(322,32,cs)
);
},
{
closed = 1;
nodes = (
(468,625,o),
(435,640,o),
(327,640,cs),
(143,640,o),
(45,467,o),
(45,324,c),
(45,97,o),
(173,0,o),
(331,0,c),
(321,32,l),
(229,32,o),
(82,97,o),
(82,315,cs),
(82,319,ls),
(82,480,o),
(194,607,o),
(339,607,cs),
(403,607,o),
(463,590,o),
(503,566,c),
(508,574,o),
(517,591,o),
(519,600,c)
);
}
);
width = 648;
}
);
unicode = 71;
changeCount = 8;
},
{
glyphname = J;
kernLeft = A;
lastChange = "2022-01-09 19:43:38 +0000";
layers = (
{
layerId = "7EBE3D46-E53E-419E-A3EC-596DA2EA1E0D";
name = Regular;
shapes = (
{
alignment = -1;
pos = (313,359);
ref = _I_small;
},
{
alignment = -1;
pos = (122,209);
ref = _EF_horizontal;
},
{
closed = 1;
nodes = (
(343,344,l),
(343,340,ls),
(343,224,o),
(313,159,o),
(201,159,cs),
(162,159,o),
(129,163,o),
(86,196,c),
(65,155,o),
(46,108,o),
(30,47,c),
(104,7,o),
(149,-1,o),
(211,-1,cs),
(369,-1,o),
(468,118,o),
(468,345,c)
);
},
{
alignment = -1;
pos = (22,209);
ref = _EF_horizontal;
},
{
alignment = -1;
pos = (313,409);
ref = _I_small;
}
);
width = 526;
},
{
layerId = m002;
name = Regular;
shapes = (
{
alignment = -1;
pos = (313,369);
ref = _I_small;
},
{
alignment = -1;
pos = (112,243);
ref = _EF_horizontal;
},
{
closed = 1;
nodes = (
(441,354,l),
(441,350,ls),
(441,131,o),
(382,29,o),
(230,29,cs),
(191,29,o),
(110,43,o),
(67,76,c),
(59,60,o),
(54,54,o),
(50,37,c),
(124,-3,o),
(169,-6,o),
(231,-6,cs),
(429,-6,o),
(468,128,o),
(468,355,c)
);
},
{
alignment = -1;
pos = (22,243);
ref = _EF_horizontal;
},
{
alignment = -1;
pos = (313,419);
ref = _I_small;
}
);
width = 526;
}
);
unicode = 74;
},
{
glyphname = K;
lastChange = "2022-07-24 10:46:02 +0000";
layers = (
{
layerId = "7EBE3D46-E53E-419E-A3EC-596DA2EA1E0D";
name = Regular;
shapes = (
{
ref = _I;
},
{
closed = 1;
nodes = (
(334,369,o),
(368,416,o),
(393,449,cs),
(444,518,o),
(483,565,o),
(541,654,c),
(531,655,o),
(408,655,o),
(399,654,c),
(364,600,o),
(334,551,o),
(279,476,cs),
(247,431,o),
(212,371,o),
(180,371,cs),
(158,371,o),
(137,371,o),
(136,371,cs),
(118,371,o),
(108,284,o),
(108,275,cs),
(108,266,o),
(104,262,o),
(119,262,cs),
(121,262,o),
(212,262,o),
(214,262,cs),
(257,262,o),
(282,232,o),
(313,171,cs),
(342,115,o),
(369,63,o),
(399,1,c),
(407,-2,o),
(529,-1,o),
(543,1,c),
(498,88,o),
(448,184,o),
(415,243,cs),
(380,304,o),
(355,341,o),
(308,360,c)
);
}
);
width = 573;
},
{
layerId = m002;
name = Regular;
shapes = (
{
ref = _I;
},
{
closed = 1;
nodes = (
(315,336,o),
(328,357,o),
(353,390,cs),
(403,455,o),
(457,537,o),
(512,621,c),
(502,622,o),
(489,622,o),
(480,621,c),
(449,570,o),
(387,471,o),
(332,404,cs),
(298,363,o),
(263,332,o),
(151,332,cs),
(139,332,o),
(118,332,o),
(117,332,cs),
(99,332,o),
(106,318,o),
(106,309,cs),
(106,301,o),
(102,297,o),
(117,297,cs),
(119,297,o),
(260,297,o),
(262,297,cs),
(305,297,o),
(340,269,o),
(371,211,cs),
(400,157,o),
(450,60,o),
(480,0,c),
(488,-2,o),
(500,-1,o),
(514,0,c),
(473,83,o),
(423,176,o),
(392,235,cs),
(374,269,o),
(347,303,o),
(280,322,c)
);
}
);
width = 544;
}
);
unicode = 75;
changeCount = 15;
},
{
glyphname = N;
lastChange = "2022-01-13 08:09:01 +0000";
layers = (
{
layerId = "7EBE3D46-E53E-419E-A3EC-596DA2EA1E0D";
name = Regular;
shapes = (
{
alignment = -1;
pos = (40,326);
ref = _I_small;
},
{
alignment = -1;
pos = (40,124);
ref = _I_small;
},
{
alignment = -1;
pos = (40,17);
ref = _I_small;
},
{
alignment = -1;
pos = (434,369);
ref = _I_small;
},
{
alignment = -1;
pos = (434,200);
ref = _I_small;
},
{
alignment = -1;
pos = (434,475);
ref = _I_small;
},
{
closed = 1;
nodes = (
(571,-7,o),
(589,5,o),
(589,28,cs),
(589,182,ls),
(589,196,o),
(555,199,o),
(544,208,c),
(198,649,l),
(194,654,o),
(188,658,o),
(181,658,cs),
(96,658,ls),
(82,658,o),
(71,647,o),
(71,633,cs),
(70,509,ls),
(70,494,o),
(83,490,o),
(95,483,cs),
(151,449,o),
(157,450,o),
(162,444,cs),
(508,18,ls),
(521,2,o),
(537,-7,o),
(555,-7,cs)
);
}
);
width = 659;
},
{
layerId = m002;
name = Regular;
shapes = (
{
alignment = -1;
pos = (-58,406);
ref = _I_small;
},
{
alignment = -1;
pos = (-58,214);
ref = _I_small;
},
{
alignment = -1;
pos = (-58,17);
ref = _I_small;
},
{
alignment = -1;
pos = (434,216);
ref = _I_small;
},
{
alignment = -1;
pos = (434,46);
ref = _I_small;
},
{
alignment = -1;
pos = (434,432);
ref = _I_small;
},
{
closed = 1;
nodes = (
(588,0,o),
(589,6,o),
(589,22,cs),
(589,42,ls),
(589,56,o),
(575,49,o),
(564,58,c),
(117,614,l),
(112,619,o),
(103,630,o),
(96,630,cs),
(82,630,ls),
(70,630,o),
(70,619,o),
(70,605,cs),
(70,555,ls),
(70,540,o),
(72,572,o),
(86,572,cs),
(104,572,o),
(98,576,o),
(103,570,cs),
(538,35,ls),
(551,19,o),
(569,0,o),
(578,0,cs)
);
}
);
width = 659;
}
);
unicode = 78;
},
{
glyphname = P;
lastChange = "2022-01-09 19:22:46 +0000";
layers = (
{
layerId = "7EBE3D46-E53E-419E-A3EC-596DA2EA1E0D";
name = Regular;
shapes = (
{
alignment = -1;
pos = (40,19);
ref = _I_small;
},
{
alignment = -1;
pos = (40,164);
ref = _I_small;
},
{
alignment = -1;
pos = (40,327);
ref = _I_small;
},
{
alignment = -1;
pos = (40,473);
ref = _I_small;
},
{
closed = 1;
nodes = (
(522,541,o),
(448,660,o),
(254,660,c),
(179,661,o),
(132,661,o),
(92,661,c),
(92,481,l),
(119,498,o),
(190,497,o),
(254,495,c),
(338,495,o),
(398,480,o),
(398,413,c),
(397,346,o),
(345,330,o),
(254,330,c),
(189,328,o),
(119,340,o),
(92,357,c),
(92,223,l),
(132,216,o),
(207,204,o),
(283,208,cs),
(453,216,o),
(522,313,o),
(522,418,c),
(522,419,o),
(522,412,o),
(522,413,c),
(522,416,l)
);
}
);
width = 550;
},
{
layerId = m002;
name = Regular;
shapes = (
{
alignment = -1;
pos = (-50,19);
ref = _I_small;
},
{
alignment = -1;
pos = (-50,164);
ref = _I_small;
},
{
alignment = -1;
pos = (-50,327);
ref = _I_small;
},
{
alignment = -1;
pos = (-50,432);
ref = _I_small;
},
{
closed = 1;
nodes = (
(511,510,o),
(437,634,o),
(243,634,c),
(168,635,o),
(119,632,o),
(81,630,c),
(81,589,l),
(108,606,o),
(179,605,o),
(243,603,c),
(387,603,o),
(481,497,o),
(481,385,c),
(481,267,o),
(370,205,o),
(243,205,c),
(178,203,o),
(108,215,o),
(81,232,c),
(81,192,l),
(121,185,o),
(196,173,o),
(272,177,cs),
(442,185,o),
(511,282,o),
(511,387,c),
(511,388,o),
(511,381,o),
(511,382,c),
(511,385,l)
);
}
);
width = 550;
}
);
unicode = 80;
},
{
glyphname = R;
lastChange = "2022-07-14 11:10:45 +0000";
layers = (
{
layerId = "7EBE3D46-E53E-419E-A3EC-596DA2EA1E0D";
name = Regular;
shapes = (
{
closed = 1;
nodes = (
(542,99,o),
(465,270,o),
(409,281,c),
(225,285,l),
(244,227,l),
(314,227,o),
(360,224,o),
(387,153,cs),
(445,0,l),
(595,0,l)
);
},
{
pos = (40,19);
ref = _I_small;
},
{
pos = (40,164);
ref = _I_small;
},
{
pos = (40,327);
ref = _I_small;
},
{
pos = (40,473);
ref = _I_small;
},
{
closed = 1;
nodes = (
(522,561,o),
(422,658,o),
(283,660,c),
(208,661,o),
(132,661,o),
(92,661,c),
(92,481,l),
(119,498,o),
(210,497,o),
(274,495,c),
(358,495,o),
(398,460,o),
(398,413,c),
(397,366,o),
(365,330,o),
(274,330,c),
(209,328,o),
(119,340,o),
(92,357,c),
(92,243,l),
(132,236,o),
(168,227,o),
(283,228,c),
(422,230,o),
(522,315,o),
(522,420,c),
(522,421,o),
(522,422,o),
(522,423,c),
(522,426,l)
);
}
);
width = 605;
},
{
layerId = m002;
name = Regular;
shapes = (
{
closed = 1;
nodes = (
(508,94,o),
(424,289,o),
(324,285,c),
(205,280,l),
(284,270,l),
(354,270,o),
(413,200,o),
(448,135,cs),
(521,0,l),
(565,0,l)
);
},
{
pos = (-62,19);
ref = _I_small;
},
{
pos = (-62,164);
ref = _I_small;
},
{
pos = (-62,327);
ref = _I_small;
},
{
pos = (-62,433);
ref = _I_small;
},
{
closed = 1;
nodes = (
(505,555,o),
(424,628,o),
(276,630,cs),
(217,631,o),
(118,631,o),
(70,631,c),
(70,597,l),
(120,601,o),
(216,599,o),
(267,598,cs),
(425,598,o),
(474,518,o),
(474,444,cs),
(474,376,o),
(446,290,o),
(267,290,cs),
(218,289,o),
(121,292,o),
(70,294,c),
(70,271,l),
(106,272,o),
(202,269,o),
(286,270,cs),
(436,272,o),
(505,325,o),
(505,441,cs),
(505,442,o),
(505,443,o),
(505,444,cs),
(505,447,ls)
);
}
);
width = 575;
}
);
unicode = 82;
changeCount = 12;
},
{
glyphname = S;
lastChange = "2022-07-25 11:39:07 +0000";
layers = (
{
layerId = "7EBE3D46-E53E-419E-A3EC-596DA2EA1E0D";
name = Regular;
shapes = (
{
closed = 1;
nodes = (
(388,364,cs),
(308,396,o),
(215,425,o),
(215,459,cs),
(215,496,o),
(242,502,o),
(305,502,cs),
(355,502,o),
(410,485,o),
(438,468,c),
(488,512,o),
(508,533,o),
(542,583,c),
(480,633,o),
(381,663,o),
(298,663,cs),
(150,663,o),
(58,584,o),
(58,480,cs),
(58,414,o),
(90,367,o),
(201,320,cs),
(320,270,o),
(397,252,o),
(397,203,cs),
(397,162,o),
(334,155,o),
(284,155,cs),
(217,155,o),
(137,181,o),
(119,201,c),
(90,170,o),
(48,124,o),
(28,87,c),
(106,22,o),
(158,0,o),
(296,0,cs),
(414,0,o),
(552,64,o),
(552,177,cs),
(552,237,o),
(527,308,o)
);
}
);
width = 580;
},
{
layerId = m002;
name = Regular;
shapes = (
{
closed = 1;
nodes = (
(206,338,cs),
(169,353,o),
(72,385,o),
(72,474,cs),
(72,563,o),
(144,586,o),
(255,586,cs),
(305,586,o),
(363,575,o),
(413,549,c),
(422,554,o),
(430,565,o),
(438,577,c),
(374,614,o),
(330,623,o),
(251,623,cs),
(112,623,o),
(32,570,o),
(32,473,cs),
(32,386,o),
(100,345,o),
(209,300,cs),
(315,256,o),
(434,236,o),
(434,136,cs),
(434,55,o),
(348,29,o),
(228,29,cs),
(123,29,o),
(88,57,o),
(51,76,c),
(40,68,o),
(36,63,o),
(28,50,c),
(85,11,o),
(174,0,o),
(253,0,cs),
(360,0,o),
(473,22,o),
(473,136,cs),
(473,247,o),
(382,266,o)
);
}
);
width = 501;
}
);
unicode = 83;
changeCount = 97;
},
{
glyphname = W;
kernLeft = T;
kernRight = T;
lastChange = "2022-01-17 10:40:09 +0000";
layers = (
{
layerId = "7EBE3D46-E53E-419E-A3EC-596DA2EA1E0D";
name = Regular;
shapes = (
{
closed = 1;
nodes = (
(530,-1,l),
(566,-1,ls),
(592,-1,o),
(599,20,o),
(604,39,cs),
(776,655,l),
(597,655,l),
(556,373,ls),
(551,341,o),
(545,330,o),
(530,325,c),
(516,330,o),
(514,341,o),
(505,373,c),
(440,611,l),
(432,631,o),
(418,651,o),
(392,651,cs),
(391,651,l),
(390,651,ls),
(364,651,o),
(350,631,o),
(342,611,c),
(280,388,l),
(271,358,o),
(269,344,o),
(254,339,c),
(240,344,o),
(234,355,o),
(229,388,cs),
(189,655,l),
(10,655,l),
(181,39,ls),
(186,20,o),
(193,-1,o),
(219,-1,cs),
(220,-1,l),
(269,-1,ls),
(294,-1,o),
(300,18,o),
(306,39,cs),
(365,256,l),
(373,289,o),
(377,300,o),
(391,305,c),
(405,300,o),
(409,289,o),
(417,256,c),
(491,39,ls),
(497,20,o),
(503,-1,o),
(529,-1,cs)
);
}
);
width = 786;
},
{
layerId = m002;
name = Regular;
shapes = (
{
closed = 1;
nodes = (
(564,-1,l),
(566,-1,ls),
(583,-1,o),
(592,20,o),
(598,39,cs),
(770,630,l),
(733,630,l),
(585,91,ls),
(576,59,o),
(570,43,o),
(564,43,cs),
(555,43,o),
(549,58,o),
(541,91,cs),
(425,586,ls),
(420,607,o),
(418,626,o),
(392,626,cs),
(391,626,l),
(390,626,ls),
(364,626,o),
(357,607,o),
(353,586,cs),
(249,92,ls),
(242,61,o),
(235,43,o),
(226,43,cs),
(221,43,o),
(213,59,o),
(204,91,cs),
(54,630,l),
(20,630,l),
(191,39,ls),
(197,20,o),
(208,-1,o),
(221,-1,cs),
(227,-1,l),
(229,-1,ls),
(245,-1,o),
(256,19,o),
(260,39,cs),
(369,539,l),
(377,572,o),
(380,588,o),
(391,588,cs),
(401,588,o),
(404,572,o),
(412,539,c),
(530,39,ls),
(534,20,o),
(547,-1,o),
(563,-1,cs)
);
}
);
width = 786;
}
);
unicode = 87;
},
{
glyphname = a;
kernLeft = e;
kernRight = e;
lastChange = "2022-07-24 10:36:50 +0000";
layers = (
{
layerId = "7EBE3D46-E53E-419E-A3EC-596DA2EA1E0D";
name = Regular;
shapes = (
{
closed = 1;
nodes = (
(121,306,o),
(49,245,o),
(49,144,cs),
(49,35,o),
(141,-1,o),
(196,-1,cs),
(290,-1,o),
(337,44,o),
(359,82,c),
(369,0,l),
(467,0,l),
(467,246,ls),
(467,424,o),
(394,510,o),
(230,510,cs),
(166,510,o),
(91,501,o),
(57,481,c),
(69,432,o),
(91,388,o),
(114,339,c),
(151,353,o),
(192,354,o),
(251,354,cs),
(312,354,o),
(347,331,o),
(351,311,cs),
(352,306,l),
(220,306,ls)
);
},
{
closed = 1;
nodes = (
(181,194,o),
(210,211,o),
(247,211,cs),
(341,211,l),
(362,211,l),
(349,150,o),
(296,122,o),
(235,122,cs),
(196,122,o),
(181,132,o),
(181,161,cs)
);
}
);
width = 527;
},
{
layerId = m002;
name = Regular;
shapes = (
{
closed = 1;
nodes = (
(120,276,o),
(49,245,o),
(49,144,cs),
(49,35,o),
(131,0,o),
(216,0,cs),
(330,0,o),
(407,28,o),
(439,126,c),
(446,0,l),
(467,0,l),
(467,246,ls),
(467,433,o),
(424,510,o),
(230,510,cs),
(176,510,o),
(128,496,o),
(94,475,c),
(94,470,o),
(99,456,o),
(104,446,c),
(141,468,o),
(181,480,o),
(230,480,cs),
(291,480,o),
(432,476,o),
(432,309,cs),
(432,276,l),
(220,276,ls)
);
},
{
closed = 1;
nodes = (
(80,223,o),
(160,243,o),
(247,243,cs),
(431,243,l),
(432,243,l),
(429,82,o),
(356,30,o),
(215,30,cs),
(126,30,o),
(80,71,o),
(80,140,cs)
);
}
);
width = 527;
}
);
unicode = 97;
changeCount = 16;
},
{
glyphname = d;
kernLeft = e;
kernRight = h;
lastChange = "2022-07-10 18:40:18 +0000";
layers = (
{
layerId = "7EBE3D46-E53E-419E-A3EC-596DA2EA1E0D";
name = Regular;
shapes = (
{
closed = 1;
nodes = (
(411,208,l),
(411,97,l),
(483,97,l),
(483,208,l)
);
},
{
pos = (329,463);
ref = _I_small;
},
{
angle = 180;
pos = (511,510);
ref = _curve_b;
}
);
width = 543;
},
{
layerId = m002;
name = Regular;
shapes = (
{
closed = 1;
nodes = (
(436,286,l),
(436,245,l),
(453,245,l),
(453,286,l)
);
},
{
pos = (301,452);
ref = _I_small;
},
{
angle = 180;
pos = (491,509);
ref = _curve_b;
}
);
width = 516;
}
);
unicode = 100;
},
{
glyphname = eth;
lastChange = "2022-01-10 14:54:01 +0000";
layers = (
{
layerId = "7EBE3D46-E53E-419E-A3EC-596DA2EA1E0D";
name = Regular;
shapes = (
{
closed = 1;
nodes = (
(479,703,l),
(366,728,l),
(183,489,l),
(308,469,l)
);
},
{
pos = (558,0);
ref = six;
scale = (-1,1);
}
);
width = 558;
},
{
layerId = m002;
name = Regular;
shapes = (
{
closed = 1;
nodes = (
(419,713,l),
(396,718,l),
(183,489,l),
(218,489,l)
);
},
{
pos = (558,0);
ref = six;
scale = (-1,1);
}
);
width = 558;
}
);
unicode = 240;
},
{
glyphname = e;
kernLeft = e;
kernRight = e;
lastChange = "2022-07-18 08:49:26 +0000";
layers = (
{
layerId = "7EBE3D46-E53E-419E-A3EC-596DA2EA1E0D";
name = Regular;
shapes = (
{
closed = 1;
nodes = (
(468,226,o),
(466,273,o),
(464,292,c),
(405,302,l),
(133,302,l),
(133,206,l),
(464,206,l)
);
},
{
pos = (6,-2);
ref = _o_curve;
},
{
closed = 1;
nodes = (
(319,353,o),
(363,330,o),
(363,264,c),
(466,205,l),
(494,393,o),
(390,514,o),
(257,514,c),
(257,353,l)
);
},
{
pos = (-10,1);
ref = _curve_cursive;
}
);
width = 504;
},
{
layerId = m002;
name = Regular;
shapes = (
{
closed = 1;
nodes = (
(459,257,o),
(450,264,o),
(450,282,c),
(448,280,l),
(58,280,l),
(58,246,l),
(457,245,l)
);
},
{
pos = (6,7);
ref = _o_curve;
},
{
closed = 1;
nodes = (
(357,480,o),
(440,419,o),
(430,273,c),
(457,246,l),
(465,414,o),
(394,510,o),
(251,510,c),
(251,480,l)
);
},
{
pos = (-10,1);
ref = _curve_cursive;
}
);
width = 510;
}
);
unicode = 101;
changeCount = 10;
},
{
glyphname = f;
kernLeft = h;
kernRight = f;
lastChange = "2022-07-24 10:49:55 +0000";
layers = (
{
layerId = "7EBE3D46-E53E-419E-A3EC-596DA2EA1E0D";
name = Regular;
shapes = (
{
alignment = -1;
angle = 180;
pos = (215,188);
ref = _I_small;
},
{
alignment = -1;
angle = 180;
pos = (215,350);
ref = _I_small;
},
{
closed = 1;
nodes = (
(90,349,l),
(312,349,l),
(312,461,l),
(90,461,l)
);
},
{
alignment = -1;
pos = (-57,18);
ref = _f_integral;
}
);
width = 352;
},
{
layerId = m002;
name = Regular;
shapes = (
{
alignment = -1;
angle = 180;
pos = (215,197);
ref = _I_small;
},
{
alignment = -1;
angle = 180;
pos = (215,390);
ref = _I_small;
},
{
closed = 1;
nodes = (
(79,481,l),
(201,481,l),
(201,511,l),
(79,511,l)
);
},
{
alignment = -1;
pos = (-57,-25);
ref = _f_integral;
}
);
width = 276;
}
);
unicode = 102;
changeCount = 56;
},
{
glyphname = g;
kernLeft = e;
lastChange = "2022-07-24 11:14:36 +0000";
layers = (
{
layerId = "7EBE3D46-E53E-419E-A3EC-596DA2EA1E0D";
name = Regular;
shapes = (
{
closed = 1;
nodes = (
(485,422,l),
(487,448,o),
(486,483,o),
(483,510,c),
(261,510,l),
(215,510,o),
(255,439,o),
(277,390,c)
);
},
{
closed = 1;
nodes = (
(366,-201,o),
(507,-152,o),
(507,-30,c),
(507,81,o),
(438,150,o),
(279,150,c),
(233,150,o),
(236,182,o),
(245,197,c),
(190,228,l),
(124,253,l),
(81,212,o),
(40,105,o),
(189,71,c),
(44,55,o),
(15,-9,o),
(15,-57,c),
(16,-145,o),
(116,-201,o),
(249,-201,c),
(254,-201,l)
);
},
{
closed = 1;
nodes = (
(260,-75,l),
(178,-75,o),
(144,-60,o),
(144,-40,cs),
(144,-17,o),
(182,0,o),
(260,0,c),
(263,0,l),
(339,0,o),
(364,-16,o),
(364,-39,cs),
(364,-60,o),
(345,-75,o),
(263,-75,c)
);
},
{
closed = 1;
nodes = (
(469,430,o),
(345,438,o),
(272,440,c),
(273,510,l),
(253,510,l),
(112,510,o),
(49,433,o),
(49,336,c),
(49,335,ls),
(49,241,o),
(122,185,o),
(253,185,c),
(257,185,l),
(259,185,o),
(260,185,o),
(262,185,c),
(266,185,l),
(397,185,o),
(469,239,o),
(469,307,c)
);
},
{
closed = 1;
nodes = (
(260,285,l),
(260,285,o),
(260,285,o),
(260,285,c),
(254,285,l),
(196,285,o),
(178,301,o),
(178,321,c),
(178,339,o),
(196,350,o),
(254,350,c),
(260,350,l),
(260,350,o),
(260,350,o),
(260,350,c),
(265,350,l),
(326,350,o),
(346,340,o),
(346,320,c),
(346,300,o),
(326,285,o),
(265,285,c)
);
}
);
width = 522;
},
{
layerId = m002;
name = Regular;
shapes = (
{
closed = 1;
nodes = (
(464,489,l),
(465,496,o),
(464,505,o),
(462,510,c),
(297,510,l),
(251,510,o),
(286,489,o),
(322,479,c)
);
},
{
closed = 1;
nodes = (
(396,-201,o),
(487,-165,o),
(487,-84,c),
(487,-9,o),
(442,29,o),
(263,29,cs),
(82,29,o),
(103,132,o),
(122,157,c),
(129,165,l),
(107,175,l),
(51,125,o),
(106,28,o),
(179,16,c),
(114,10,o),
(35,-10,o),
(35,-88,c),
(36,-156,o),
(112,-201,o),
(239,-201,c),
(284,-201,l)
);
},
{
closed = 1;
nodes = (
(258,-174,l),
(107,-174,o),
(61,-126,o),
(59,-88,c),
(61,-25,o),
(115,0,o),
(258,0,c),
(264,0,l),
(403,0,o),
(454,-27,o),
(455,-85,c),
(454,-130,o),
(414,-174,o),
(264,-174,c)
);
},
{
closed = 1;
nodes = (
(469,444,o),
(384,476,o),
(316,488,c),
(307,510,l),
(253,510,l),
(112,510,o),
(49,426,o),
(49,296,c),
(49,295,l),
(53,191,o),
(122,115,o),
(253,115,c),
(257,115,l),
(259,115,o),
(260,115,o),
(262,115,c),
(266,115,l),
(397,115,o),
(469,192,o),
(469,293,c)
);
},
{
closed = 1;
nodes = (
(260,148,l),
(260,148,o),
(260,148,o),
(260,148,c),
(254,148,l),
(179,148,o),
(78,181,o),
(78,295,cs),
(78,441,o),
(184,480,o),
(259,480,c),
(265,480,l),
(265,480,o),
(265,480,o),
(265,480,c),
(270,480,l),
(345,480,o),
(436,439,o),
(436,295,cs),
(436,181,o),
(340,148,o),
(265,148,c)
);
}
);
width = 522;
}
);
unicode = 103;
changeCount = 124;
},
{
glyphname = k;
kernLeft = h;
kernRight = v;
lastChange = "2022-07-15 10:55:17 +0000";
layers = (
{
layerId = "7EBE3D46-E53E-419E-A3EC-596DA2EA1E0D";
name = Regular;
shapes = (
{
closed = 1;
nodes = (
(284,288,o),
(318,324,o),
(343,350,cs),
(394,404,o),
(433,441,o),
(491,510,c),
(481,511,o),
(328,511,o),
(319,510,c),
(284,468,o),
(254,430,o),
(199,371,cs),
(167,336,o),
(152,313,o),
(120,313,cs),
(98,313,o),
(77,313,o),
(76,313,cs),
(58,313,o),
(58,221,o),
(58,214,cs),
(58,207,o),
(54,204,o),
(69,204,cs),
(71,204,o),
(152,204,o),
(164,204,cs),
(207,204,o),
(222,181,o),
(253,133,cs),
(282,89,o),
(309,49,o),
(339,0,c),
(347,-2,o),
(479,-1,o),
(493,0,c),
(448,68,o),
(398,143,o),
(365,189,cs),
(330,237,o),
(305,266,o),
(258,281,c)
);
},
{
pos = (15,0);
ref = _I_dbh;
}
);
width = 509;
},
{
layerId = m002;
name = Regular;
shapes = (
{
closed = 1;
nodes = (
(273,276,o),
(286,293,o),
(311,320,cs),
(361,374,o),
(415,441,o),
(470,510,c),
(460,511,o),
(447,511,o),
(438,510,c),
(407,468,o),
(345,387,o),
(290,332,cs),
(256,298,o),
(221,273,o),
(189,273,cs),
(177,273,o),
(75,273,o),
(74,273,cs),
(56,273,o),
(63,261,o),
(63,254,cs),
(63,247,o),
(59,244,o),
(74,244,cs),
(76,244,o),
(218,244,o),
(220,244,cs),
(263,244,o),
(298,221,o),
(329,173,cs),
(358,129,o),
(408,49,o),
(438,0,c),
(446,-2,o),
(458,-1,o),
(472,0,c),
(431,68,o),
(381,144,o),
(350,193,cs),
(332,221,o),
(305,249,o),
(238,264,c)
);
},
{
pos = (-84,0);
ref = _I_dbh;
}
);
width = 509;
}
);
unicode = 107;
changeCount = 26;
},
{
glyphname = l;
kernLeft = h;
kernRight = h;
lastChange = "2022-07-18 08:48:10 +0000";
layers = (
{
layerId = "7EBE3D46-E53E-419E-A3EC-596DA2EA1E0D";
name = Regular;
shapes = (
{
closed = 1;
nodes = (
(93,244,l),
(206,244,l),
(206,451,l),
(93,451,l)
);
},
{
alignment = -1;
pos = (63,21);
ref = _I_small;
},
{
alignment = -1;
pos = (63,404);
ref = _I_small;
},
{
alignment = -1;
pos = (63,213);
ref = _I_small;
},
{
alignment = -1;
pos = (-13,154);
ref = i_chengel;
}
);
width = 278;
},
{
layerId = m002;
name = Regular;
shapes = (
{
closed = 1;
nodes = (
(111,244,l),
(125,244,l),
(125,451,l),
(111,451,l)
);
},
{
alignment = -1;
pos = (-18,19);
ref = _I_small;
},
{
alignment = -1;
pos = (-18,450);
ref = _I_small;
},
{
alignment = -1;
pos = (-18,236);
ref = _I_small;
},
{
alignment = -1;
pos = (-95,154);
ref = i_chengel;
}
);
width = 217;
}
);
unicode = 108;
changeCount = 1;
},
{
glyphname = m;
kernLeft = n;
kernRight = n;
lastChange = "2022-07-18 08:36:44 +0000";
layers = (
{
layerId = "7EBE3D46-E53E-419E-A3EC-596DA2EA1E0D";
name = Regular;
shapes = (
{
closed = 1;
nodes = (
(204,513,o),
(137,389,o),
(128,267,c),
(185,216,l),
(186,307,o),
(190,351,o),
(255,351,c),
(319,351,o),
(323,291,o),
(323,210,c),
(323,1,ls),
(446,1,l),
(446,215,l),
(444,400,o),
(397,513,o),
(283,513,c)
);
},
{
closed = 1;
nodes = (
(468,513,o),
(411,430,o),
(402,308,c),
(445,207,l),
(446,298,o),
(454,351,o),
(519,351,c),
(583,351,o),
(587,291,o),
(587,210,c),
(587,1,ls),
(710,1,l),
(710,295,l),
(708,440,o),
(651,513,o),
(537,513,c)
);
},
{
alignment = -1;
pos = (30,186);
ref = _I_small;
},
{
alignment = -1;
pos = (30,20);
ref = _I_small;
},
{
closed = 1;
nodes = (
(60,307,l),
(185,307,l),
(145,509,l),
(95,509,o),
(104,509,o),
(60,509,c)
);
}
);
width = 770;
},
{
layerId = m002;
name = Regular;
shapes = (
{
closed = 1;
nodes = (
(126,511,o),
(72,425,o),
(72,279,c),
(87,286,l),
(88,407,o),
(141,480,o),
(196,480,c),
(290,480,o),
(315,406,o),
(315,279,c),
(315,0,ls),
(342,0,l),
(342,290,l),
(340,405,o),
(320,512,o),
(205,511,c)
);
},
{
closed = 1;
nodes = (
(370,511,o),
(324,405,o),
(315,283,c),
(341,276,l),
(342,367,o),
(369,480,o),
(461,480,c),
(537,480,o),
(577,441,o),
(577,300,c),
(577,1,ls),
(604,1,l),
(604,301,l),
(602,466,o),
(563,511,o),
(469,511,c)
);
},
{
alignment = -1;
pos = (-68,186);
ref = _I_small;
},
{
alignment = -1;
pos = (-68,20);
ref = _I_small;
},
{
closed = 1;
nodes = (
(60,275,l),
(87,303,l),
(77,510,l),
(66,510,o),
(70,510,o),
(60,509,c)
);
}
);
width = 664;
}
);
unicode = 109;
changeCount = 12;
},
{
glyphname = n;
kernLeft = n;
kernRight = n;
lastChange = "2022-07-10 14:43:42 +0000";
layers = (
{
layerId = "7EBE3D46-E53E-419E-A3EC-596DA2EA1E0D";
name = Regular;
shapes = (
{
alignment = -1;
pos = (21,9);
ref = _hmn;
},
{
alignment = -1;
pos = (30,186);
ref = _I_small;
},
{
alignment = -1;
pos = (30,20);
ref = _I_small;
},
{
closed = 1;
nodes = (
(60,307,l),
(185,307,l),
(155,509,l),
(115,509,o),
(104,509,o),
(60,509,c)
);
}
);
width = 528;
},
{
layerId = m002;
name = Regular;
shapes = (
{
alignment = -1;
pos = (21,9);
ref = _hmn;
},
{
alignment = -1;
pos = (-60,186);
ref = _I_small;
},
{
alignment = -1;
pos = (-60,20);
ref = _I_small;
},
{
closed = 1;
nodes = (
(68,307,l),
(95,307,l),
(95,512,l),
(83,510,o),
(80,509,o),
(68,507,c)
);
}
);
width = 528;
}
);
unicode = 110;
},
{
glyphname = r;
kernLeft = i;
kernRight = f;
lastChange = "2022-07-18 08:31:58 +0000";
layers = (
{
hints = (
{
horizontal = 1;
place = (420, 80);
place = (420, 80);
type = Stem;
}
);
layerId = "7EBE3D46-E53E-419E-A3EC-596DA2EA1E0D";
name = Regular;
shapes = (
{
closed = 1;
nodes = (
(403,367,o),
(442,413,o),
(463,452,c),
(435,486,o),
(377,506,o),
(322,506,c),
(249,506,o),
(186,437,o),
(175,367,c),
(145,265,l),
(219,239,l),
(219,331,o),
(250,351,o),
(305,353,cs),
(324,354,o),
(346,347,o),
(371,332,c)
);
},
{
closed = 1;
nodes = (
(179,475,ls),
(177,498,o),
(169,508,o),
(149,508,cs),
(104,509,o),
(82,509,o),
(33,508,cs),
(13,508,o),
(8,490,o),
(14,462,cs),
(22,426,o),
(28,393,o),
(33,375,cs),
(37,359,o),
(41,349,o),
(58,349,cs),
(185,349,ls),
(204,349,o),
(192,355,o),
(190,374,cs)
);
},
{
alignment = -1;
angle = 180;
pos = (249,307);
ref = _I_small;
},
{
alignment = -1;
angle = 180;
pos = (249,226);
ref = _I_small;
},
{
alignment = -1;
angle = 180;
pos = (249,186);
ref = _I_small;
},
{
closed = 1;
nodes = (
(189,402,l),
(94,402,l),
(94,255,l),
(219,255,l)
);
}
);
width = 492;
},
{
hints = (
{
horizontal = 1;
place = (420, 80);
place = (420, 80);
type = Stem;
}
);
layerId = m002;
name = Regular;
shapes = (
{
closed = 1;
nodes = (
(385,470,o),
(394,480,o),
(398,488,c),
(375,503,o),
(346,509,o),
(297,509,c),
(231,509,o),
(154,454,o),
(143,336,c),
(143,254,l),
(167,302,l),
(167,397,o),
(203,480,o),
(301,480,cs),
(338,480,o),
(363,469,o),
(377,461,c)
);
},
{
closed = 1;
nodes = (
(167,499,ls),
(167,506,o),
(164,509,o),
(153,509,cs),
(128,510,o),
(80,510,o),
(61,509,cs),
(52,509,o),
(49,506,o),
(51,502,cs),
(57,489,o),
(56,491,o),
(58,487,cs),
(62,478,o),
(64,478,o),
(81,478,cs),
(144,478,ls),
(163,478,o),
(167,481,o),
(167,491,cs)
);
},
{
alignment = -1;
angle = 180;
pos = (295,367);
ref = _I_small;
},
{
alignment = -1;
angle = 180;
pos = (295,238);
ref = _I_small;
},
{
alignment = -1;
angle = 180;
pos = (295,198);
ref = _I_small;
},
{
closed = 1;
nodes = (
(167,494,l),
(140,494,l),
(140,277,l),
(167,277,l)
);
}
);
width = 440;
}
);
unicode = 114;
changeCount = 40;
},
{
glyphname = s;
kernLeft = e;
kernRight = e;
lastChange = "2022-07-14 10:57:50 +0000";
layers = (
{
background = {
shapes = (
{
closed = 1;
nodes = (
(158,82,o),
(124,101,o),
(85,136,c),
(43,58,l),
(81,22,o),
(122,-7,o),
(214,-7,cs),
(326,-7,o),
(397,52,o),
(397,139,cs),
(397,231,o),
(332,267,o),
(229,297,cs),
(175,313,o),
(146,329,o),
(146,367,cs),
(146,405,o),
(180,416,o),
(220,416,cs),
(262,416,o),
(286,506,o),
(217,506,cs),
(119,506,o),
(49,458,o),
(49,376,cs),
(49,257,o),
(151,233,o),
(223,212,cs),
(283,194,o),
(306,176,o),
(306,143,cs),
(306,98,o),
(255,82,o),
(211,82,cs)
);
}
);
};
layerId = "7EBE3D46-E53E-419E-A3EC-596DA2EA1E0D";
name = Regular;
shapes = (
{
closed = 1;
nodes = (
(303,280,cs),
(264,298,o),
(208,311,o),
(208,332,cs),
(208,348,o),
(221,358,o),
(262,358,cs),
(293,358,o),
(320,346,o),
(341,333,c),
(380,367,o),
(403,410,o),
(429,449,c),
(381,487,o),
(313,510,o),
(249,510,cs),
(135,510,o),
(41,457,o),
(41,377,cs),
(41,326,o),
(56,273,o),
(174,225,cs),
(246,196,o),
(264,188,o),
(264,173,cs),
(264,157,o),
(247,150,o),
(209,150,cs),
(173,150,o),
(126,168,o),
(112,183,c),
(78,151,o),
(44,105,o),
(18,67,c),
(78,17,o),
(126,0,o),
(240,0,cs),
(338,0,o),
(437,49,o),
(437,121,cs),
(437,182,o),
(416,227,o)
);
}
);
width = 467;
},
{
background = {
shapes = (
{
closed = 1;
nodes = (
(158,82,o),
(124,101,o),
(85,136,c),
(43,58,l),
(81,22,o),
(122,-7,o),
(214,-7,cs),
(326,-7,o),
(397,52,o),
(397,139,cs),
(397,231,o),
(332,267,o),
(229,297,cs),
(175,313,o),
(146,329,o),
(146,367,cs),
(146,405,o),
(180,416,o),
(220,416,cs),
(262,416,o),
(286,506,o),
(217,506,cs),
(119,506,o),
(49,458,o),
(49,376,cs),
(49,257,o),
(151,233,o),
(223,212,cs),
(283,194,o),
(306,176,o),
(306,143,cs),
(306,98,o),
(255,82,o),
(211,82,cs)
);
}
);
};
layerId = m002;
name = Regular;
shapes = (
{
closed = 1;
nodes = (
(202,277,cs),
(172,289,o),
(84,315,o),
(84,388,cs),
(84,461,o),
(151,480,o),
(242,480,cs),
(283,480,o),
(355,470,o),
(388,441,c),
(395,445,o),
(402,454,o),
(408,464,c),
(364,502,o),
(303,510,o),
(239,510,cs),
(125,510,o),
(51,467,o),
(51,387,cs),
(51,316,o),
(115,277,o),
(204,240,cs),
(291,204,o),
(405,193,o),
(405,111,cs),
(405,45,o),
(317,30,o),
(219,30,cs),
(133,30,o),
(84,51,o),
(70,66,c),
(62,58,o),
(55,50,o),
(48,41,c),
(103,1,o),
(176,0,o),
(240,0,cs),
(328,0,o),
(437,18,o),
(437,111,cs),
(437,202,o),
(346,218,o)
);
}
);
width = 477;
}
);
unicode = 115;
},
{
glyphname = germandbls;
kernLeft = h;
kernRight = c;
lastChange = "2022-01-07 12:27:29 +0000";
layers = (
{
layerId = "7EBE3D46-E53E-419E-A3EC-596DA2EA1E0D";
name = Regular;
shapes = (
{
closed = 1;
nodes = (
(426,237,o),
(325,232,o),
(325,251,c),
(325,275,o),
(426,265,o),
(426,369,c),
(426,455,o),
(341,514,o),
(239,514,c),
(139,514,o),
(60,444,o),
(60,326,c),
(60,1,l),
(151,1,l),
(151,262,l),
(151,321,o),
(159,355,o),
(233,355,c),
(281,355,o),
(301,325,o),
(301,308,c),
(301,248,o),
(210,283,o),
(210,249,c),
(210,206,o),
(325,238,o),
(325,190,cs),
(325,168,o),
(303,159,o),
(264,157,c),
(239,157,o),
(230,158,o),
(200,162,c),
(199,2,l),
(211,0,o),
(243,-6,o),
(275,-6,c),
(385,-6,o),
(426,71,o),
(426,133,c)
);
}
);
width = 476;
},
{
layerId = m002;
name = Regular;
shapes = (
{
closed = 1;
nodes = (
(426,227,o),
(300,229,o),
(300,248,c),
(300,272,o),
(426,265,o),
(426,369,c),
(426,455,o),
(341,514,o),
(239,514,c),
(115,514,o),
(60,444,o),
(60,326,c),
(60,1,l),
(87,1,l),
(87,262,l),
(87,440,o),
(125,484,o),
(242,484,c),
(303,479,o),
(396,455,o),
(396,369,c),
(396,269,o),
(210,283,o),
(210,249,c),
(210,206,o),
(396,237,o),
(396,123,cs),
(396,31,o),
(303,28,o),
(264,26,c),
(239,26,o),
(230,27,o),
(200,31,c),
(199,2,l),
(211,0,o),
(243,-6,o),
(275,-6,c),
(385,-6,o),
(426,51,o),
(426,123,c)
);
}
);
width = 476;
}
);
unicode = 223;
},
{
glyphname = t;
kernLeft = c;
kernRight = c;
lastChange = "2022-07-24 10:34:42 +0000";
layers = (
{
hints = (
{
horizontal = 1;
place = (420, 80);
place = (420, 80);
type = Stem;
}
);
layerId = "7EBE3D46-E53E-419E-A3EC-596DA2EA1E0D";
name = Regular;
shapes = (
{
closed = 1;
nodes = (
(44,350,l),
(132,350,l),
(132,202,ls),
(132,42,o),
(258,100,o),
(258,202,cs),
(258,350,l),
(385,350,l),
(415,511,l),
(258,511,l),
(262,551,o),
(262,604,o),
(259,628,cs),
(255,658,o),
(227,680,o),
(200,650,cs),
(122,564,o),
(55,483,o),
(4,401,cs),
(-9,380,o),
(6,350,o),
(30,350,cs)
);
},
{
pos = (52,5);
ref = _curve_lower;
}
);
width = 494;
},
{
hints = (
{
horizontal = 1;
place = (420, 80);
place = (420, 80);
type = Stem;
}
);
layerId = m002;
name = Regular;
shapes = (
{
closed = 1;
nodes = (
(64,480,l),
(116,480,l),
(116,342,ls),
(116,292,o),
(143,300,o),
(143,342,cs),
(143,480,l),
(356,480,l),
(356,511,l),
(143,511,l),
(144,524,o),
(144,575,o),
(142,589,cs),
(139,612,o),
(129,611,o),
(115,597,cs),
(94,577,o),
(54,530,o),
(44,508,cs),
(38,494,o),
(44,480,o),
(60,480,cs)
);
},
{
pos = (6,1);
ref = _curve_lower;
}
);
width = 459;
}
);
unicode = 116;
changeCount = 5;
},
{
glyphname = u;
kernLeft = n;
kernRight = n;
lastChange = "2022-07-10 18:22:09 +0000";
layers = (
{
layerId = "7EBE3D46-E53E-419E-A3EC-596DA2EA1E0D";
name = Regular;
shapes = (
{
alignment = -1;
angle = 180;
pos = (507,501);
ref = _hmn;
},
{
alignment = -1;
angle = 180;
pos = (498,325);
ref = _I_small;
},
{
alignment = -1;
angle = 180;
pos = (498,491);
ref = _I_small;
},
{
closed = 1;
nodes = (
(468,202,l),
(343,202,l),
(373,0,l),
(413,0,o),
(424,0,o),
(468,0,c)
);
}
);
width = 528;
},
{
layerId = m002;
name = Regular;
shapes = (
{
alignment = -1;
angle = 180;
pos = (507,501);
ref = _hmn;
},
{
alignment = -1;
angle = 180;
pos = (589,383);
ref = _I_small;
},
{
alignment = -1;
angle = 180;
pos = (589,489);
ref = _I_small;
},
{
closed = 1;
nodes = (
(461,202,l),
(436,202,l),
(445,0,l),
(455,0,o),
(457,0,o),
(461,0,c)
);
}
);
width = 528;
}
);
unicode = 117;
},
{
glyphname = w;
kernLeft = v;
kernRight = v;
lastChange = "2022-07-24 10:42:40 +0000";
layers = (
{
layerId = "7EBE3D46-E53E-419E-A3EC-596DA2EA1E0D";
name = Regular;
shapes = (
{
closed = 1;
nodes = (
(253,0,o),
(261,16,o),
(266,31,cs),
(325,199,ls),
(334,224,o),
(345,229,o),
(357,229,cs),
(369,229,o),
(376,224,o),
(386,199,cs),
(453,31,l),
(461,16,o),
(463,0,o),
(483,0,cs),
(484,0,l),
(485,0,ls),
(505,0,o),
(514,16,o),
(519,31,cs),
(693,510,l),
(553,510,l),
(504,309,ls),
(498,284,o),
(492,274,o),
(480,274,cs),
(468,274,o),
(459,286,o),
(452,308,cs),
(391,486,l),
(385,501,o),
(379,517,o),
(359,517,cs),
(358,517,l),
(357,517,ls),
(337,517,o),
(331,501,o),
(325,486,c),
(260,309,ls),
(251,285,o),
(244,274,o),
(232,274,cs),
(220,274,o),
(212,283,o),
(206,308,c),
(160,510,l),
(20,510,l),
(195,31,ls),
(201,16,o),
(211,0,o),
(231,0,cs),
(232,0,l),
(233,0,ls)
);
}
);
width = 713;
},
{
layerId = m002;
name = Regular;
shapes = (
{
closed = 1;
nodes = (
(212,0,o),
(221,16,o),
(225,31,cs),
(337,432,ls),
(344,457,o),
(345,470,o),
(357,470,cs),
(369,470,o),
(370,457,o),
(377,432,cs),
(491,31,ls),
(496,15,o),
(505,0,o),
(522,0,cs),
(526,0,l),
(527,0,ls),
(544,0,o),
(553,24,o),
(557,39,cs),
(693,510,l),
(671,510,l),
(544,81,ls),
(537,56,o),
(536,43,o),
(524,43,cs),
(512,43,o),
(511,58,o),
(504,81,c),
(387,478,l),
(381,493,o),
(378,509,o),
(359,509,cs),
(358,509,l),
(357,509,ls),
(339,509,o),
(335,493,o),
(329,478,c),
(212,79,ls),
(205,54,o),
(204,41,o),
(192,41,cs),
(180,41,o),
(180,53,o),
(172,79,cs),
(46,510,l),
(20,510,l),
(159,31,ls),
(163,16,o),
(172,0,o),
(191,0,cs),
(194,0,l),
(195,0,ls)
);
}
);
width = 715;
}
);
unicode = 119;
changeCount = 122;
},
{
glyphname = y;
kernLeft = v;
kernRight = v;
lastChange = "2022-07-24 10:36:22 +0000";
layers = (
{
layerId = "7EBE3D46-E53E-419E-A3EC-596DA2EA1E0D";
name = Regular;
shapes = (
{
closed = 1;
nodes = (
(334,511,l),
(292,292,ls),
(287,264,o),
(274,254,o),
(262,254,cs),
(250,254,o),
(237,264,o),
(232,292,cs),
(190,511,l),
(20,511,l),
(206,25,l),
(191,2,ls),
(173,-26,o),
(135,-38,o),
(93,-24,c),
(82,-85,o),
(80,-146,o),
(82,-199,c),
(159,-211,o),
(243,-201,o),
(290,-72,cs),
(504,511,l)
);
}
);
width = 524;
},
{
layerId = m002;
name = Regular;
shapes = (
{
closed = 1;
nodes = (
(470,510,l),
(310,96,ls),
(300,70,o),
(301,59,o),
(289,59,cs),
(277,59,o),
(278,70,o),
(265,96,cs),
(58,510,l),
(20,510,l),
(271,0,l),
(252,-56,ls),
(224,-138,o),
(172,-162,o),
(86,-150,c),
(86,-166,o),
(85,-179,o),
(82,-189,c),
(183,-204,o),
(243,-189,o),
(290,-62,cs),
(504,510,l)
);
}
);
width = 524;
}
);
unicode = 121;
changeCount = 22;
},
{
glyphname = z;
kernLeft = c;
kernRight = c;
lastChange = "2022-01-06 16:46:28 +0000";
layers = (
{
layerId = "7EBE3D46-E53E-419E-A3EC-596DA2EA1E0D";
name = Regular;
shapes = (
{
pos = (3,0);
ref = z___;
},
{
closed = 1;
nodes = (
(309,385,o),
(320,397,o),
(320,411,cs),
(320,425,o),
(309,437,o),
(296,437,cs),
(283,437,o),
(272,425,o),
(272,411,cs),
(272,397,o),
(283,385,o),
(296,385,cs)
);
},
{
angle = 180;
pos = (507,509);
ref = z___;
}
);
width = 510;
},
{
layerId = m002;
name = Regular;
shapes = (
{
pos = (3,0);
ref = z___;
},
{
closed = 1;
nodes = (
(444,462,o),
(451,469,o),
(451,477,cs),
(451,485,o),
(444,492,o),
(437,492,cs),
(429,492,o),
(423,485,o),
(423,477,cs),
(423,469,o),
(429,462,o),
(437,462,cs)
);
},
{
angle = 180;
pos = (507,509);
ref = z___;
}
);
width = 510;
}
);
unicode = 122;
},
{
glyphname = d.001;
kernLeft = e;
kernRight = h;
lastChange = "2022-07-10 11:07:06 +0000";
layers = (
{
layerId = "7EBE3D46-E53E-419E-A3EC-596DA2EA1E0D";
name = Regular;
shapes = (
{
closed = 1;
nodes = (
(411,208,l),
(411,97,l),
(483,97,l),
(483,208,l)
);
},
{
pos = (329,462);
ref = _I_small;
},
{
angle = 180;
pos = (511,510);
ref = _curve_b;
}
);
width = 543;
},
{
layerId = m002;
name = Regular;
shapes = (
{
closed = 1;
nodes = (
(436,286,l),
(436,245,l),
(453,245,l),
(453,286,l)
);
},
{
pos = (301,472);
ref = _I_small;
},
{
angle = 180;
pos = (491,509);
ref = _curve_b;
}
);
width = 516;
}
);
},
{
glyphname = e.001;
kernLeft = e;
kernRight = e;
layers = (
{
layerId = "7EBE3D46-E53E-419E-A3EC-596DA2EA1E0D";
name = Regular;
shapes = (
{
closed = 1;
nodes = (
(468,219,o),
(466,266,o),
(464,285,c),
(405,295,l),
(133,295,l),
(133,199,l),
(464,199,l)
);
},
{
pos = (6,1);
ref = _o_curve;
},
{
closed = 1;
nodes = (
(309,356,o),
(353,343,o),
(353,257,c),
(466,198,l),
(494,386,o),
(400,517,o),
(257,517,c),
(257,356,l)
);
},
{
pos = (-10,1);
ref = _curve_cursive;
}
);
width = 504;
},
{
layerId = m002;
name = Regular;
shapes = (
{
closed = 1;
nodes = (
(459,247,o),
(450,254,o),
(450,272,c),
(448,270,l),
(58,270,l),
(58,236,l),
(457,235,l)
);
},
{
pos = (6,-3);
ref = _o_curve;
},
{
closed = 1;
nodes = (
(357,470,o),
(440,409,o),
(430,263,c),
(457,236,l),
(465,404,o),
(394,500,o),
(251,500,c),
(251,470,l)
);
},
{
pos = (-10,1);
ref = _curve_cursive;
}
);
width = 510;
}
);
},
{
glyphname = e.002;
kernLeft = e;
kernRight = e;
layers = (
{
layerId = "7EBE3D46-E53E-419E-A3EC-596DA2EA1E0D";
name = Regular;
shapes = (
{
closed = 1;
nodes = (
(468,219,o),
(466,266,o),
(464,285,c),
(405,295,l),
(133,295,l),
(133,199,l),
(464,199,l)
);
},
{
pos = (6,1);
ref = _o_curve;
},
{
closed = 1;
nodes = (
(309,356,o),
(353,343,o),
(353,257,c),
(466,198,l),
(494,386,o),
(400,517,o),
(257,517,c),
(257,356,l)
);
},
{
pos = (-10,1);
ref = _curve_cursive;
}
);
width = 504;
},
{
layerId = m002;
name = Regular;
shapes = (
{
closed = 1;
nodes = (
(459,247,o),
(450,254,o),
(450,272,c),
(448,270,l),
(58,270,l),
(58,236,l),
(457,235,l)
);
},
{
pos = (6,-3);
ref = _o_curve;
},
{
closed = 1;
nodes = (
(357,470,o),
(440,409,o),
(430,263,c),
(457,236,l),
(465,404,o),
(394,500,o),
(251,500,c),
(251,470,l)
);
},
{
pos = (-10,1);
ref = _curve_cursive;
}
);
width = 510;
}
);
},
{
glyphname = f.001;
kernLeft = h;
kernRight = f;
layers = (
{
layerId = "7EBE3D46-E53E-419E-A3EC-596DA2EA1E0D";
name = Regular;
shapes = (
{
alignment = -1;
angle = 180;
pos = (215,188);
ref = _I_small;
},
{
alignment = -1;
angle = 180;
pos = (215,350);
ref = _I_small;
},
{
closed = 1;
nodes = (
(90,349,l),
(312,349,l),
(312,511,l),
(90,511,l)
);
},
{
alignment = -1;
pos = (-57,18);
ref = _f_integral;
}
);
width = 379;
},
{
layerId = m002;
name = Regular;
shapes = (
{
alignment = -1;
angle = 180;
pos = (215,197);
ref = _I_small;
},
{
alignment = -1;
angle = 180;
pos = (215,390);
ref = _I_small;
},
{
closed = 1;
nodes = (
(79,482,l),
(201,482,l),
(201,512,l),
(79,512,l)
);
},
{
alignment = -1;
pos = (-57,-25);
ref = _f_integral;
}
);
width = 369;
}
);
},
{
glyphname = g.001;
kernLeft = e;
layers = (
{
layerId = "7EBE3D46-E53E-419E-A3EC-596DA2EA1E0D";
name = Regular;
shapes = (
{
closed = 1;
nodes = (
(485,372,l),
(490,412,o),
(492,463,o),
(483,510,c),
(261,510,l),
(215,510,o),
(255,439,o),
(277,390,c)
);
},
{
closed = 1;
nodes = (
(396,-201,o),
(487,-142,o),
(487,-20,c),
(487,91,o),
(401,160,o),
(262,160,c),
(156,160,o),
(166,172,o),
(185,197,c),
(190,228,l),
(124,253,l),
(71,212,o),
(60,95,o),
(129,71,c),
(64,65,o),
(35,21,o),
(35,-57,c),
(36,-125,o),
(56,-201,o),
(239,-201,c),
(284,-201,l)
);
},
{
closed = 1;
nodes = (
(260,-75,l),
(178,-75,o),
(148,-60,o),
(148,-40,cs),
(148,-17,o),
(182,0,o),
(260,0,c),
(263,0,l),
(339,0,o),
(374,-16,o),
(374,-39,cs),
(374,-60,o),
(345,-75,o),
(263,-75,c)
);
},
{
closed = 1;
nodes = (
(469,430,o),
(345,438,o),
(272,440,c),
(273,510,l),
(253,510,l),
(112,510,o),
(49,433,o),
(49,336,c),
(49,335,ls),
(49,241,o),
(122,185,o),
(253,185,c),
(257,185,l),
(259,185,o),
(260,185,o),
(262,185,c),
(266,185,l),
(397,185,o),
(469,239,o),
(469,307,c)
);
},
{
closed = 1;
nodes = (
(260,285,l),
(260,285,o),
(260,285,o),
(260,285,c),
(254,285,l),
(179,285,o),
(162,301,o),
(162,321,c),
(162,339,o),
(179,350,o),
(254,350,c),
(260,350,l),
(260,350,o),
(260,350,o),
(260,350,c),
(265,350,l),
(340,350,o),
(356,337,o),
(356,321,c),
(356,301,o),
(340,285,o),
(265,285,c)
);
}
);
width = 522;
},
{
layerId = m002;
name = Regular;
shapes = (
{
closed = 1;
nodes = (
(464,479,l),
(463,489,o),
(463,500,o),
(462,510,c),
(297,510,l),
(251,510,o),
(246,503,o),
(282,493,c)
);
},
{
closed = 1;
nodes = (
(396,-201,o),
(487,-165,o),
(487,-84,c),
(487,-9,o),
(442,29,o),
(263,29,cs),
(82,29,o),
(103,132,o),
(122,157,c),
(129,165,l),
(107,175,l),
(51,125,o),
(106,28,o),
(179,16,c),
(114,10,o),
(35,-10,o),
(35,-88,c),
(36,-156,o),
(112,-201,o),
(239,-201,c),
(284,-201,l)
);
},
{
closed = 1;
nodes = (
(258,-174,l),
(107,-174,o),
(54,-126,o),
(52,-88,c),
(54,-25,o),
(115,0,o),
(258,0,c),
(264,0,l),
(403,0,o),
(466,-27,o),
(467,-85,c),
(466,-130,o),
(414,-174,o),
(264,-174,c)
);
},
{
closed = 1;
nodes = (
(469,444,o),
(384,476,o),
(316,488,c),
(307,510,l),
(253,510,l),
(112,510,o),
(49,426,o),
(49,296,c),
(49,295,l),
(53,191,o),
(122,115,o),
(253,115,c),
(257,115,l),
(259,115,o),
(260,115,o),
(262,115,c),
(266,115,l),
(397,115,o),
(469,192,o),
(469,293,c)
);
},
{
closed = 1;
nodes = (
(260,148,l),
(260,148,o),
(260,148,o),
(260,148,c),
(254,148,l),
(179,148,o),
(71,181,o),
(71,295,cs),
(71,441,o),
(184,480,o),
(259,480,c),
(265,480,l),
(265,480,o),
(265,480,o),
(265,480,c),
(270,480,l),
(345,480,o),
(448,439,o),
(448,295,cs),
(448,181,o),
(340,148,o),
(265,148,c)
);
}
);
width = 522;
}
);
},
{
glyphname = m.001;
kernLeft = n;
kernRight = n;
layers = (
{
layerId = "7EBE3D46-E53E-419E-A3EC-596DA2EA1E0D";
name = Regular;
shapes = (
{
closed = 1;
nodes = (
(204,513,o),
(137,389,o),
(128,267,c),
(181,216,l),
(182,307,o),
(190,351,o),
(255,351,c),
(319,351,o),
(323,291,o),
(323,210,c),
(323,1,ls),
(446,1,l),
(446,215,l),
(444,400,o),
(397,513,o),
(283,513,c)
);
},
{
closed = 1;
nodes = (
(438,513,o),
(401,430,o),
(392,308,c),
(445,207,l),
(446,298,o),
(454,351,o),
(519,351,c),
(583,351,o),
(587,291,o),
(587,210,c),
(587,1,ls),
(710,1,l),
(710,295,l),
(708,440,o),
(651,513,o),
(537,513,c)
);
},
{
alignment = -1;
pos = (30,186);
ref = _I_small;
},
{
alignment = -1;
pos = (30,20);
ref = _I_small;
},
{
closed = 1;
nodes = (
(60,307,l),
(185,307,l),
(185,509,l),
(135,509,o),
(104,509,o),
(60,509,c)
);
}
);
width = 770;
},
{
layerId = m002;
name = Regular;
shapes = (
{
closed = 1;
nodes = (
(126,511,o),
(72,425,o),
(72,279,c),
(87,286,l),
(88,407,o),
(141,480,o),
(196,480,c),
(290,480,o),
(315,406,o),
(315,279,c),
(315,0,ls),
(342,0,l),
(342,290,l),
(340,405,o),
(320,512,o),
(205,511,c)
);
},
{
closed = 1;
nodes = (
(370,511,o),
(324,405,o),
(315,283,c),
(341,276,l),
(342,367,o),
(369,480,o),
(461,480,c),
(537,480,o),
(577,441,o),
(577,300,c),
(577,1,ls),
(604,1,l),
(604,301,l),
(602,466,o),
(563,511,o),
(469,511,c)
);
},
{
alignment = -1;
pos = (-68,186);
ref = _I_small;
},
{
alignment = -1;
pos = (-68,20);
ref = _I_small;
},
{
closed = 1;
nodes = (
(60,275,l),
(87,303,l),
(87,510,l),
(75,506,o),
(72,506,o),
(60,502,c)
);
}
);
width = 664;
}
);
},
{
glyphname = n.001;
kernLeft = n;
kernRight = n;
layers = (
{
layerId = "7EBE3D46-E53E-419E-A3EC-596DA2EA1E0D";
name = Regular;
shapes = (
{
alignment = -1;
pos = (21,9);
ref = _hmn;
},
{
alignment = -1;
pos = (30,186);
ref = _I_small;
},
{
alignment = -1;
pos = (30,20);
ref = _I_small;
},
{
closed = 1;
nodes = (
(60,307,l),
(185,307,l),
(185,509,l),
(145,509,o),
(104,509,o),
(60,509,c)
);
}
);
width = 528;
},
{
layerId = m002;
name = Regular;
shapes = (
{
alignment = -1;
pos = (21,9);
ref = _hmn;
},
{
alignment = -1;
pos = (-60,186);
ref = _I_small;
},
{
alignment = -1;
pos = (-60,20);
ref = _I_small;
},
{
closed = 1;
nodes = (
(68,307,l),
(95,307,l),
(95,512,l),
(83,510,o),
(80,509,o),
(68,507,c)
);
}
);
width = 528;
}
);
},
{
glyphname = n.002;
kernLeft = n;
kernRight = n;
layers = (
{
layerId = "7EBE3D46-E53E-419E-A3EC-596DA2EA1E0D";
name = Regular;
shapes = (
{
alignment = -1;
pos = (21,9);
ref = _hmn;
},
{
alignment = -1;
pos = (30,186);
ref = _I_small;
},
{
alignment = -1;
pos = (30,20);
ref = _I_small;
},
{
closed = 1;
nodes = (
(60,307,l),
(185,307,l),
(185,509,l),
(145,509,o),
(104,509,o),
(60,509,c)
);
}
);
width = 528;
},
{
layerId = m002;
name = Regular;
shapes = (
{
alignment = -1;
pos = (21,9);
ref = _hmn;
},
{
alignment = -1;
pos = (-60,186);
ref = _I_small;
},
{
alignment = -1;
pos = (-60,20);
ref = _I_small;
},
{
closed = 1;
nodes = (
(68,307,l),
(95,307,l),
(95,512,l),
(83,510,o),
(80,509,o),
(68,507,c)
);
}
);
width = 528;
}
);
},
{
glyphname = n.003;
kernLeft = n;
kernRight = n;
layers = (
{
layerId = "7EBE3D46-E53E-419E-A3EC-596DA2EA1E0D";
name = Regular;
shapes = (
{
alignment = -1;
pos = (21,9);
ref = _hmn;
},
{
alignment = -1;
pos = (30,186);
ref = _I_small;
},
{
alignment = -1;
pos = (30,20);
ref = _I_small;
},
{
closed = 1;
nodes = (
(60,307,l),
(185,307,l),
(185,509,l),
(145,509,o),
(104,509,o),
(60,509,c)
);
}
);
width = 528;
},
{
layerId = m002;
name = Regular;
shapes = (
{
alignment = -1;
pos = (21,9);
ref = _hmn;
},
{
alignment = -1;
pos = (-60,186);
ref = _I_small;
},
{
alignment = -1;
pos = (-60,20);
ref = _I_small;
},
{
closed = 1;
nodes = (
(68,307,l),
(95,307,l),
(95,512,l),
(83,510,o),
(80,509,o),
(68,507,c)
);
}
);
width = 528;
}
);
},
{
glyphname = r.001;
kernLeft = i;
kernRight = f;
layers = (
{
layerId = "7EBE3D46-E53E-419E-A3EC-596DA2EA1E0D";
name = Regular;
shapes = (
{
closed = 1;
nodes = (
(413,367,o),
(450,406,o),
(482,483,c),
(434,507,o),
(407,516,o),
(352,516,c),
(279,516,o),
(206,447,o),
(195,377,c),
(145,265,l),
(219,189,l),
(219,281,o),
(250,351,o),
(305,353,cs),
(324,354,o),
(346,347,o),
(371,332,c)
);
},
{
alignment = -1;
pos = (-14,0);
ref = _i_dotless_full;
}
);
width = 492;
},
{
layerId = m002;
name = Regular;
shapes = (
{
closed = 1;
nodes = (
(385,470,o),
(394,480,o),
(398,488,c),
(375,503,o),
(346,509,o),
(297,509,c),
(231,509,o),
(154,454,o),
(143,336,c),
(143,254,l),
(167,302,l),
(167,397,o),
(203,480,o),
(301,480,cs),
(338,480,o),
(363,469,o),
(377,461,c)
);
},
{
alignment = -1;
pos = (-66,0);
ref = _i_dotless_full;
}
);
width = 440;
}
);
},
{
glyphname = r.002;
kernLeft = i;
kernRight = f;
layers = (
{
layerId = "7EBE3D46-E53E-419E-A3EC-596DA2EA1E0D";
name = Regular;
shapes = (
{
closed = 1;
nodes = (
(413,367,o),
(450,406,o),
(482,483,c),
(434,507,o),
(407,516,o),
(352,516,c),
(279,516,o),
(206,447,o),
(195,377,c),
(145,265,l),
(219,189,l),
(219,281,o),
(250,351,o),
(305,353,cs),
(324,354,o),
(346,347,o),
(371,332,c)
);
},
{
alignment = -1;
pos = (-14,0);
ref = _i_dotless_full;
}
);
width = 492;
},
{
layerId = m002;
name = Regular;
shapes = (
{
closed = 1;
nodes = (
(385,470,o),
(394,480,o),
(398,488,c),
(375,503,o),
(346,509,o),
(297,509,c),
(231,509,o),
(154,454,o),
(143,336,c),
(143,254,l),
(167,302,l),
(167,397,o),
(203,480,o),
(301,480,cs),
(338,480,o),
(363,469,o),
(377,461,c)
);
},
{
alignment = -1;
pos = (-66,0);
ref = _i_dotless_full;
}
);
width = 440;
}
);
},
{
glyphname = s.001;
kernLeft = e;
kernRight = e;
layers = (
{
background = {
shapes = (
{
closed = 1;
nodes = (
(158,82,o),
(124,101,o),
(85,136,c),
(43,58,l),
(81,22,o),
(122,-7,o),
(214,-7,cs),
(326,-7,o),
(397,52,o),
(397,139,cs),
(397,231,o),
(332,267,o),
(229,297,cs),
(175,313,o),
(146,329,o),
(146,367,cs),
(146,405,o),
(180,416,o),
(220,416,cs),
(262,416,o),
(286,506,o),
(217,506,cs),
(119,506,o),
(49,458,o),
(49,376,cs),
(49,257,o),
(151,233,o),
(223,212,cs),
(283,194,o),
(306,176,o),
(306,143,cs),
(306,98,o),
(255,82,o),
(211,82,cs)
);
}
);
};
layerId = "7EBE3D46-E53E-419E-A3EC-596DA2EA1E0D";
name = Regular;
shapes = (
{
closed = 1;
nodes = (
(303,275,cs),
(264,293,o),
(208,310,o),
(208,331,cs),
(208,347,o),
(221,350,o),
(262,350,cs),
(303,350,o),
(326,343,o),
(349,333,c),
(381,374,o),
(406,422,o),
(425,465,c),
(360,502,o),
(313,510,o),
(249,510,cs),
(115,510,o),
(31,457,o),
(31,377,cs),
(31,326,o),
(61,270,o),
(174,220,cs),
(228,196,o),
(244,187,o),
(244,175,cs),
(244,161,o),
(227,160,o),
(199,160,cs),
(163,160,o),
(129,162,o),
(101,182,c),
(56,134,o),
(36,91,o),
(9,48,c),
(75,19,o),
(116,0,o),
(240,0,cs),
(348,0,o),
(437,39,o),
(437,121,cs),
(437,182,o),
(416,222,o)
);
}
);
width = 467;
},
{
background = {
shapes = (
{
closed = 1;
nodes = (
(158,82,o),
(124,101,o),
(85,136,c),
(43,58,l),
(81,22,o),
(122,-7,o),
(214,-7,cs),
(326,-7,o),
(397,52,o),
(397,139,cs),
(397,231,o),
(332,267,o),
(229,297,cs),
(175,313,o),
(146,329,o),
(146,367,cs),
(146,405,o),
(180,416,o),
(220,416,cs),
(262,416,o),
(286,506,o),
(217,506,cs),
(119,506,o),
(49,458,o),
(49,376,cs),
(49,257,o),
(151,233,o),
(223,212,cs),
(283,194,o),
(306,176,o),
(306,143,cs),
(306,98,o),
(255,82,o),
(211,82,cs)
);
}
);
};
layerId = m002;
name = Regular;
shapes = (
{
closed = 1;
nodes = (
(202,277,cs),
(172,289,o),
(84,315,o),
(84,388,cs),
(84,461,o),
(141,480,o),
(242,480,cs),
(283,480,o),
(347,475,o),
(382,449,c),
(389,455,o),
(395,463,o),
(400,474,c),
(353,508,o),
(303,510,o),
(239,510,cs),
(115,510,o),
(51,467,o),
(51,387,cs),
(51,316,o),
(115,277,o),
(204,240,cs),
(291,204,o),
(405,173,o),
(405,101,cs),
(405,35,o),
(337,30,o),
(219,30,cs),
(133,30,o),
(91,53,o),
(77,68,c),
(70,58,o),
(63,50,o),
(55,42,c),
(110,2,o),
(176,0,o),
(240,0,cs),
(348,0,o),
(437,9,o),
(437,101,cs),
(437,182,o),
(346,218,o)
);
}
);
width = 477;
}
);
},
{
glyphname = s.002;
kernLeft = e;
kernRight = e;
layers = (
{
background = {
shapes = (
{
closed = 1;
nodes = (
(158,82,o),
(124,101,o),
(85,136,c),
(43,58,l),
(81,22,o),
(122,-7,o),
(214,-7,cs),
(326,-7,o),
(397,52,o),
(397,139,cs),
(397,231,o),
(332,267,o),
(229,297,cs),
(175,313,o),
(146,329,o),
(146,367,cs),
(146,405,o),
(180,416,o),
(220,416,cs),
(262,416,o),
(286,506,o),
(217,506,cs),
(119,506,o),
(49,458,o),
(49,376,cs),
(49,257,o),
(151,233,o),
(223,212,cs),
(283,194,o),
(306,176,o),
(306,143,cs),
(306,98,o),
(255,82,o),
(211,82,cs)
);
}
);
};
layerId = "7EBE3D46-E53E-419E-A3EC-596DA2EA1E0D";
name = Regular;
shapes = (
{
closed = 1;
nodes = (
(303,275,cs),
(264,293,o),
(208,310,o),
(208,331,cs),
(208,347,o),
(221,350,o),
(262,350,cs),
(303,350,o),
(326,343,o),
(349,333,c),
(381,374,o),
(406,422,o),
(425,465,c),
(360,502,o),
(313,510,o),
(249,510,cs),
(115,510,o),
(31,457,o),
(31,377,cs),
(31,326,o),
(61,270,o),
(174,220,cs),
(228,196,o),
(244,187,o),
(244,175,cs),
(244,161,o),
(227,160,o),
(199,160,cs),
(163,160,o),
(129,162,o),
(101,182,c),
(56,134,o),
(36,91,o),
(9,48,c),
(75,19,o),
(116,0,o),
(240,0,cs),
(348,0,o),
(437,39,o),
(437,121,cs),
(437,182,o),
(416,222,o)
);
}
);
width = 467;
},
{
background = {
shapes = (
{
closed = 1;
nodes = (
(158,82,o),
(124,101,o),
(85,136,c),
(43,58,l),
(81,22,o),
(122,-7,o),
(214,-7,cs),
(326,-7,o),
(397,52,o),
(397,139,cs),
(397,231,o),
(332,267,o),
(229,297,cs),
(175,313,o),
(146,329,o),
(146,367,cs),
(146,405,o),
(180,416,o),
(220,416,cs),
(262,416,o),
(286,506,o),
(217,506,cs),
(119,506,o),
(49,458,o),
(49,376,cs),
(49,257,o),
(151,233,o),
(223,212,cs),
(283,194,o),
(306,176,o),
(306,143,cs),
(306,98,o),
(255,82,o),
(211,82,cs)
);
}
);
};
layerId = m002;
name = Regular;
shapes = (
{
closed = 1;
nodes = (
(202,277,cs),
(172,289,o),
(84,315,o),
(84,388,cs),
(84,461,o),
(141,480,o),
(242,480,cs),
(283,480,o),
(347,475,o),
(382,449,c),
(389,455,o),
(395,463,o),
(400,474,c),
(353,508,o),
(303,510,o),
(239,510,cs),
(115,510,o),
(51,467,o),
(51,387,cs),
(51,316,o),
(115,277,o),
(204,240,cs),
(291,204,o),
(405,173,o),
(405,101,cs),
(405,35,o),
(337,30,o),
(219,30,cs),
(133,30,o),
(91,53,o),
(77,68,c),
(70,58,o),
(63,50,o),
(55,42,c),
(110,2,o),
(176,0,o),
(240,0,cs),
(348,0,o),
(437,9,o),
(437,101,cs),
(437,182,o),
(346,218,o)
);
}
);
width = 477;
}
);
},
{
glyphname = s.003;
kernLeft = e;
kernRight = e;
layers = (
{
background = {
shapes = (
{
closed = 1;
nodes = (
(158,82,o),
(124,101,o),
(85,136,c),
(43,58,l),
(81,22,o),
(122,-7,o),
(214,-7,cs),
(326,-7,o),
(397,52,o),
(397,139,cs),
(397,231,o),
(332,267,o),
(229,297,cs),
(175,313,o),
(146,329,o),
(146,367,cs),
(146,405,o),
(180,416,o),
(220,416,cs),
(262,416,o),
(286,506,o),
(217,506,cs),
(119,506,o),
(49,458,o),
(49,376,cs),
(49,257,o),
(151,233,o),
(223,212,cs),
(283,194,o),
(306,176,o),
(306,143,cs),
(306,98,o),
(255,82,o),
(211,82,cs)
);
}
);
};
layerId = "7EBE3D46-E53E-419E-A3EC-596DA2EA1E0D";
name = Regular;
shapes = (
{
closed = 1;
nodes = (
(303,275,cs),
(264,293,o),
(208,310,o),
(208,331,cs),
(208,347,o),
(221,350,o),
(262,350,cs),
(303,350,o),
(326,343,o),
(349,333,c),
(381,374,o),
(406,422,o),
(425,465,c),
(360,502,o),
(313,510,o),
(249,510,cs),
(115,510,o),
(31,457,o),
(31,377,cs),
(31,326,o),
(61,270,o),
(174,220,cs),
(228,196,o),
(244,187,o),
(244,175,cs),
(244,161,o),
(227,160,o),
(199,160,cs),
(163,160,o),
(129,162,o),
(101,182,c),
(56,134,o),
(36,91,o),
(9,48,c),
(75,19,o),
(116,0,o),
(240,0,cs),
(348,0,o),
(437,39,o),
(437,121,cs),
(437,182,o),
(416,222,o)
);
}
);
width = 467;
},
{
background = {
shapes = (
{
closed = 1;
nodes = (
(158,82,o),
(124,101,o),
(85,136,c),
(43,58,l),
(81,22,o),
(122,-7,o),
(214,-7,cs),
(326,-7,o),
(397,52,o),
(397,139,cs),
(397,231,o),
(332,267,o),
(229,297,cs),
(175,313,o),
(146,329,o),
(146,367,cs),
(146,405,o),
(180,416,o),
(220,416,cs),
(262,416,o),
(286,506,o),
(217,506,cs),
(119,506,o),
(49,458,o),
(49,376,cs),
(49,257,o),
(151,233,o),
(223,212,cs),
(283,194,o),
(306,176,o),
(306,143,cs),
(306,98,o),
(255,82,o),
(211,82,cs)
);
}
);
};
layerId = m002;
name = Regular;
shapes = (
{
closed = 1;
nodes = (
(202,277,cs),
(172,289,o),
(84,315,o),
(84,388,cs),
(84,461,o),
(141,480,o),
(242,480,cs),
(283,480,o),
(347,475,o),
(382,449,c),
(389,455,o),
(395,463,o),
(400,474,c),
(353,508,o),
(303,510,o),
(239,510,cs),
(115,510,o),
(51,467,o),
(51,387,cs),
(51,316,o),
(115,277,o),
(204,240,cs),
(291,204,o),
(405,173,o),
(405,101,cs),
(405,35,o),
(337,30,o),
(219,30,cs),
(133,30,o),
(91,53,o),
(77,68,c),
(70,58,o),
(63,50,o),
(55,42,c),
(110,2,o),
(176,0,o),
(240,0,cs),
(348,0,o),
(437,9,o),
(437,101,cs),
(437,182,o),
(346,218,o)
);
}
);
width = 477;
}
);
},
{
glyphname = t.001;
kernLeft = c;
kernRight = c;
layers = (
{
hints = (
{
horizontal = 1;
place = (420, 80);
place = (420, 80);
type = Stem;
}
);
layerId = "7EBE3D46-E53E-419E-A3EC-596DA2EA1E0D";
name = Regular;
shapes = (
{
closed = 1;
nodes = (
(54,350,l),
(132,350,l),
(132,202,ls),
(132,42,o),
(258,100,o),
(258,202,cs),
(258,350,l),
(385,350,l),
(415,511,l),
(258,511,l),
(262,551,o),
(262,594,o),
(259,618,cs),
(255,648,o),
(227,670,o),
(200,640,cs),
(122,554,o),
(65,483,o),
(14,401,cs),
(1,380,o),
(26,350,o),
(50,350,cs)
);
},
{
pos = (52,5);
ref = _curve_lower;
}
);
width = 494;
},
{
hints = (
{
horizontal = 1;
place = (420, 80);
place = (420, 80);
type = Stem;
}
);
layerId = m002;
name = Regular;
shapes = (
{
closed = 1;
nodes = (
(64,480,l),
(116,480,l),
(116,342,ls),
(116,292,o),
(143,300,o),
(143,342,cs),
(143,480,l),
(356,480,l),
(356,511,l),
(143,511,l),
(144,524,o),
(144,575,o),
(142,589,cs),
(139,612,o),
(129,611,o),
(115,597,cs),
(94,577,o),
(54,530,o),
(44,508,cs),
(38,494,o),
(44,480,o),
(60,480,cs)
);
},
{
pos = (6,1);
ref = _curve_lower;
}
);
width = 459;
}
);
},
{
glyphname = t.002;
kernLeft = c;
kernRight = c;
layers = (
{
hints = (
{
horizontal = 1;
place = (420, 80);
place = (420, 80);
type = Stem;
}
);
layerId = "7EBE3D46-E53E-419E-A3EC-596DA2EA1E0D";
name = Regular;
shapes = (
{
closed = 1;
nodes = (
(54,350,l),
(132,350,l),
(132,202,ls),
(132,42,o),
(258,100,o),
(258,202,cs),
(258,350,l),
(385,350,l),
(415,511,l),
(258,511,l),
(262,551,o),
(262,594,o),
(259,618,cs),
(255,648,o),
(227,670,o),
(200,640,cs),
(122,554,o),
(65,483,o),
(14,401,cs),
(1,380,o),
(26,350,o),
(50,350,cs)
);
},
{
pos = (52,5);
ref = _curve_lower;
}
);
width = 494;
},
{
hints = (
{
horizontal = 1;
place = (420, 80);
place = (420, 80);
type = Stem;
}
);
layerId = m002;
name = Regular;
shapes = (
{
closed = 1;
nodes = (
(64,480,l),
(116,480,l),
(116,342,ls),
(116,292,o),
(143,300,o),
(143,342,cs),
(143,480,l),
(356,480,l),
(356,511,l),
(143,511,l),
(144,524,o),
(144,575,o),
(142,589,cs),
(139,612,o),
(129,611,o),
(115,597,cs),
(94,577,o),
(54,530,o),
(44,508,cs),
(38,494,o),
(44,480,o),
(60,480,cs)
);
},
{
pos = (6,1);
ref = _curve_lower;
}
);
width = 459;
}
);
},
{
glyphname = t.003;
kernLeft = c;
kernRight = c;
layers = (
{
hints = (
{
horizontal = 1;
place = (420, 80);
place = (420, 80);
type = Stem;
}
);
layerId = "7EBE3D46-E53E-419E-A3EC-596DA2EA1E0D";
name = Regular;
shapes = (
{
closed = 1;
nodes = (
(54,350,l),
(132,350,l),
(132,202,ls),
(132,42,o),
(258,100,o),
(258,202,cs),
(258,350,l),
(385,350,l),
(415,511,l),
(258,511,l),
(262,551,o),
(262,594,o),
(259,618,cs),
(255,648,o),
(227,670,o),
(200,640,cs),
(122,554,o),
(65,483,o),
(14,401,cs),
(1,380,o),
(26,350,o),
(50,350,cs)
);
},
{
pos = (52,5);
ref = _curve_lower;
}
);
width = 494;
},
{
hints = (
{
horizontal = 1;
place = (420, 80);
place = (420, 80);
type = Stem;
}
);
layerId = m002;
name = Regular;
shapes = (
{
closed = 1;
nodes = (
(64,480,l),
(116,480,l),
(116,342,ls),
(116,292,o),
(143,300,o),
(143,342,cs),
(143,480,l),
(356,480,l),
(356,511,l),
(143,511,l),
(144,524,o),
(144,575,o),
(142,589,cs),
(139,612,o),
(129,611,o),
(115,597,cs),
(94,577,o),
(54,530,o),
(44,508,cs),
(38,494,o),
(44,480,o),
(60,480,cs)
);
},
{
pos = (6,1);
ref = _curve_lower;
}
);
width = 459;
}
);
},
{
glyphname = t.004;
kernLeft = c;
kernRight = c;
layers = (
{
hints = (
{
horizontal = 1;
place = (420, 80);
place = (420, 80);
type = Stem;
}
);
layerId = "7EBE3D46-E53E-419E-A3EC-596DA2EA1E0D";
name = Regular;
shapes = (
{
closed = 1;
nodes = (
(54,350,l),
(132,350,l),
(132,202,ls),
(132,42,o),
(258,100,o),
(258,202,cs),
(258,350,l),
(385,350,l),
(415,511,l),
(258,511,l),
(262,551,o),
(262,594,o),
(259,618,cs),
(255,648,o),
(227,670,o),
(200,640,cs),
(122,554,o),
(65,483,o),
(14,401,cs),
(1,380,o),
(26,350,o),
(50,350,cs)
);
},
{
pos = (52,5);
ref = _curve_lower;
}
);
width = 494;
},
{
hints = (
{
horizontal = 1;
place = (420, 80);
place = (420, 80);
type = Stem;
}
);
layerId = m002;
name = Regular;
shapes = (
{
closed = 1;
nodes = (
(64,480,l),
(116,480,l),
(116,342,ls),
(116,292,o),
(143,300,o),
(143,342,cs),
(143,480,l),
(356,480,l),
(356,511,l),
(143,511,l),
(144,524,o),
(144,575,o),
(142,589,cs),
(139,612,o),
(129,611,o),
(115,597,cs),
(94,577,o),
(54,530,o),
(44,508,cs),
(38,494,o),
(44,480,o),
(60,480,cs)
);
},
{
pos = (6,1);
ref = _curve_lower;
}
);
width = 459;
}
);
},
{
glyphname = i_chengel;
lastChange = "2022-07-18 08:48:04 +0000";
layers = (
{
layerId = "7EBE3D46-E53E-419E-A3EC-596DA2EA1E0D";
shapes = (
{
closed = 1;
nodes = (
(231,476,ls),
(231,499,o),
(221,509,o),
(201,509,cs),
(156,510,o),
(94,510,o),
(45,509,cs),
(25,509,o),
(20,491,o),
(26,463,cs),
(34,427,o),
(40,394,o),
(45,376,cs),
(49,360,o),
(53,350,o),
(70,350,cs),
(196,350,ls),
(215,350,o),
(231,356,o),
(231,375,cs)
);
}
);
width = 323;
},
{
layerId = m002;
shapes = (
{
closed = 1;
nodes = (
(232,500,ls),
(232,507,o),
(229,510,o),
(218,510,cs),
(193,511,o),
(145,511,o),
(126,510,cs),
(117,510,o),
(114,507,o),
(116,503,cs),
(122,491,o),
(121,493,o),
(123,488,cs),
(127,480,o),
(129,480,o),
(146,480,cs),
(209,480,ls),
(228,480,o),
(232,483,o),
(232,493,cs)
);
}
);
width = 323;
}
);
changeCount = 9;
},
{
glyphname = z___;
lastChange = "2022-07-24 10:35:34 +0000";
layers = (
{
layerId = "7EBE3D46-E53E-419E-A3EC-596DA2EA1E0D";
shapes = (
{
closed = 1;
nodes = (
(341,518,o),
(123,516,o),
(47,504,c),
(50,455,o),
(58,406,o),
(77,346,c),
(139,348,o),
(202,349,o),
(264,351,c),
(177,219,l),
(209,113,l),
(298,219,o),
(386,337,o),
(451,462,cs),
(462,484,o),
(447,500,o),
(417,505,cs)
);
}
);
width = 501;
},
{
layerId = m002;
shapes = (
{
closed = 1;
nodes = (
(420,506,o),
(268,519,o),
(47,504,c),
(49,496,o),
(52,484,o),
(54,476,c),
(255,484,o),
(365,480,o),
(423,472,c),
(65,18,l),
(60,13,l),
(149,119,o),
(346,337,o),
(451,462,cs),
(467,481,o),
(455,500,o),
(425,505,cs)
);
}
);
width = 501;
}
);
changeCount = 2;
},
{
glyphname = "U-cy";
kernRight = V;
lastChange = "2022-03-07 10:28:45 +0000";
layers = (
{
layerId = "7EBE3D46-E53E-419E-A3EC-596DA2EA1E0D";
name = Regular;
shapes = (
{
closed = 1;
nodes = (
(424,660,l),
(330,423,ls),
(320,398,o),
(318,389,o),
(307,385,c),
(296,389,o),
(294,398,o),
(284,422,cs),
(190,660,l),
(20,660,l),
(238,242,l),
(219,198,ls),
(206,168,o),
(143,144,o),
(101,158,c),
(105,99,o),
(119,33,o),
(130,-3,c),
(187,-5,o),
(255,2,o),
(318,124,cs),
(594,660,l)
);
}
);
width = 614;
},
{
layerId = m002;
name = Regular;
shapes = (
{
closed = 1;
nodes = (
(494,628,l),
(310,234,ls),
(298,209,o),
(293,201,o),
(284,201,cs),
(276,201,o),
(273,208,o),
(260,234,cs),
(67,628,l),
(20,628,l),
(263,144,l),
(241,100,ls),
(206,30,o),
(134,21,o),
(92,35,c),
(93,15,o),
(92,8,o),
(90,-3,c),
(167,-15,o),
(241,-3,o),
(298,124,cs),
(524,628,l)
);
}
);
width = 544;
}
);
unicode = 1059;
},
{
glyphname = "Ef-cy";
lastChange = "2022-01-09 19:00:49 +0000";
layers = (
{
anchors = (
{
name = tailq;
pos = (328,62);
}
);
layerId = "7EBE3D46-E53E-419E-A3EC-596DA2EA1E0D";
name = Regular;
shapes = (
{
angle = 180;
pos = (676,728);
ref = _O;
},
{
pos = (10,728);
ref = _O;
scale = (1,-1);
},
{
pos = (10,-70);
ref = _O;
},
{
pos = (676,-70);
ref = _O;
scale = (-1,1);
},
{
closed = 1;
nodes = (
(286,-64,l),
(408,-64,l),
(408,723,l),
(286,723,l)
);
}
);
width = 686;
},
{
anchors = (
{
name = tailq;
pos = (328,62);
}
);
layerId = m002;
name = Regular;
shapes = (
{
angle = 180;
pos = (646,728);
ref = _O;
},
{
pos = (10,728);
ref = _O;
scale = (1,-1);
},
{
pos = (10,-90);
ref = _O;
},
{
pos = (646,-90);
ref = _O;
scale = (-1,1);
},
{
closed = 1;
nodes = (
(312,-75,l),
(344,-75,l),
(344,712,l),
(312,712,l)
);
}
);
width = 656;
}
);
unicode = 1060;
},
{
glyphname = "Iu-cy";
lastChange = "2022-01-10 10:42:21 +0000";
layers = (
{
layerId = "7EBE3D46-E53E-419E-A3EC-596DA2EA1E0D";
name = Regular;
shapes = (
{
alignment = -1;
pos = (-22,0);
ref = I;
},
{
alignment = -1;
pos = (241,-2);
ref = O;
},
{
closed = 1;
nodes = (
(163,270,l),
(345,270,l),
(345,391,l),
(163,391,l)
);
}
);
width = 957;
},
{
layerId = m002;
name = Regular;
shapes = (
{
alignment = -1;
pos = (-22,0);
ref = I;
},
{
alignment = -1;
pos = (241,-2);
ref = O;
},
{
closed = 1;
nodes = (
(134,314,l),
(306,314,l),
(306,348,l),
(134,348,l)
);
}
);
width = 957;
}
);
unicode = 1070;
},
{
export = 0;
glyphname = "De-cy";
lastChange = "2022-03-07 10:35:14 +0000";
layers = (
{
background = {
shapes = (
{
closed = 1;
nodes = (
(253,516,l),
(110,516,o),
(36,405,o),
(34,247,c),
(147,246,l),
(147,332,o),
(201,360,o),
(253,360,c)
);
}
);
};
layerId = "7EBE3D46-E53E-419E-A3EC-596DA2EA1E0D";
name = Regular;
shapes = (
{
pos = (397,-1);
ref = _I;
},
{
pos = (-71,-293);
ref = _EF_horizontal;
},
{
pos = (199,207);
ref = _EF_horizontal;
},
{
pos = (148,-293);
ref = _EF_horizontal;
},
{
pos = (714,19);
ref = _D_cyr;
scale = (-1,1);
},
{
pos = (-1,19);
ref = _D_cyr;
},
{
pos = (314,-293);
ref = _EF_horizontal;
},
{
closed = 1;
nodes = (
(344,659,l),
(201,659,o),
(148,549,o),
(146,391,c),
(259,390,l),
(259,476,o),
(292,499,o),
(344,499,c)
);
},
{
closed = 1;
nodes = (
(61,2,l),
(204,2,o),
(257,113,o),
(259,271,c),
(146,272,l),
(146,186,o),
(113,160,o),
(61,160,c)
);
},
{
closed = 1;
nodes = (
(146,269,l),
(259,269,l),
(259,397,l),
(146,397,l)
);
}
);
width = 711;
},
{
background = {
shapes = (
{
closed = 1;
nodes = (
(253,516,l),
(110,516,o),
(36,405,o),
(34,247,c),
(147,246,l),
(147,332,o),
(201,360,o),
(253,360,c)
);
}
);
};
layerId = m002;
name = Regular;
shapes = (
{
pos = (459,-1);
ref = _I;
},
{
pos = (-31,-360);
ref = _EF_horizontal;
},
{
pos = (213,242);
ref = _EF_horizontal;
},
{
pos = (188,-360);
ref = _EF_horizontal;
},
{
pos = (714,19);
ref = _D_cyr;
scale = (-1,1);
},
{
pos = (-1,19);
ref = _D_cyr;
},
{
pos = (284,-360);
ref = _EF_horizontal;
},
{
closed = 1;
nodes = (
(332,629,l),
(229,629,o),
(179,549,o),
(177,391,c),
(212,390,l),
(212,476,o),
(220,599,o),
(332,599,c)
);
},
{
closed = 1;
nodes = (
(70,-1,l),
(123,-1,o),
(209,61,o),
(211,159,c),
(176,160,l),
(176,74,o),
(122,25,o),
(70,25,c)
);
},
{
closed = 1;
nodes = (
(176,159,l),
(211,159,l),
(212,395,l),
(177,395,l)
);
}
);
width = 711;
}
);
unicode = 1044;
},
{
glyphname = "be-cy";
kernLeft = e;
kernRight = e;
lastChange = "2022-02-10 08:31:30 +0000";
layers = (
{
layerId = "7EBE3D46-E53E-419E-A3EC-596DA2EA1E0D";
name = Regular;
shapes = (
{
closed = 1;
nodes = (
(181.961,404.232,l),
(192.003,513.657,o),
(187,617,o),
(472,560,c),
(442.344,716.988,l),
(110.66,771.298,o),
(61,557.476,o),
(61,355,c),
(61,328.224,o),
(60,261.224,o),
(60,242,c),
(69.426,222.033,l),
(138,216,l)
);
},
{
closed = 1;
nodes = (
(291,370,l),
(283,516,l),
(195,516,o),
(121,426,o),
(121,277,c),
(121,230,o),
(173,153,o),
(173,250,c),
(173,318,o),
(220,360,o),
(275,360,c),
(277,360,o),
(279,360,o),
(281,360,c)
);
},
{
angle = 180;
pos = (532,505);
ref = _o_curve;
},
{
pos = (26,505);
ref = _o_curve;
scale = (1,-1);
},
{
pos = (532,0);
ref = _o_curve;
scale = (-1,1);
}
);
width = 558;
},
{
layerId = m002;
name = Regular;
shapes = (
{
closed = 1;
nodes = (
(92,414,l),
(102,524,o),
(147,737,o),
(432,680,c),
(442.344,716.988,l),
(110.66,771.298,o),
(61,567,o),
(61,365,c),
(61,338,o),
(60,271,o),
(60,252,c),
(69,232,l),
(90,216,l)
);
},
{
closed = 1;
nodes = (
(289,480,l),
(283,503,l),
(195,503,o),
(81,423,o),
(81,274,c),
(81,227,o),
(90,150,o),
(90,247,c),
(90,415,o),
(219,473,o),
(274,473,c),
(276,473,o),
(278,473,o),
(280,473,c)
);
},
{
angle = 180;
pos = (532,505);
ref = _o_curve;
},
{
pos = (26,505);
ref = _o_curve;
scale = (1,-1);
},
{
pos = (532,0);
ref = _o_curve;
scale = (-1,1);
}
);
width = 558;
}
);
unicode = 1073;
},
{
glyphname = "de-cy";
kernLeft = e;
kernRight = n;
lastChange = "2022-03-07 10:33:38 +0000";
layers = (
{
layerId = "7EBE3D46-E53E-419E-A3EC-596DA2EA1E0D";
name = Regular;
shapes = (
{
alignment = -1;
angle = 180;
pos = (493,507);
ref = _curve_b;
},
{
closed = 1;
nodes = (
(107,-198,o),
(188,-205,o),
(230,-205,c),
(359,-205,o),
(466,-145,o),
(466,11,c),
(466,202,l),
(341,202,l),
(341,45,l),
(341,-15,o),
(289,-43,o),
(214,-44,c),
(175,-45,o),
(126,-34,o),
(88,-16,c),
(65,-80,o),
(62,-92,o),
(47,-169,c)
);
}
);
width = 493;
},
{
layerId = m002;
name = Regular;
shapes = (
{
angle = 180;
pos = (493,510);
ref = _curve_b;
},
{
closed = 1;
nodes = (
(139,-202,o),
(209,-204,o),
(251,-204,cs),
(343,-204,o),
(458,-169,o),
(458,19,c),
(458,68,l),
(432,68,l),
(432,41,l),
(432,-128,o),
(373,-164,o),
(251,-164,cs),
(212,-164,o),
(132,-155,o),
(64,-107,c),
(58,-118,o),
(52,-130,o),
(49,-143,c)
);
}
);
width = 493;
}
);
unicode = 1076;
},
{
glyphname = "che-cy";
kernLeft = e;
kernRight = n;
lastChange = "2022-01-09 19:41:53 +0000";
layers = (
{
layerId = "7EBE3D46-E53E-419E-A3EC-596DA2EA1E0D";
name = Regular;
shapes = (
{
closed = 1;
nodes = (
(173,437,o),
(60,429,o),
(60,315,c),
(60,190,o),
(128,132,o),
(270,142,c),
(432,154,l),
(410,275,l),
(287,264,l),
(202,256,o),
(173,291,o),
(173,346,c)
);
},
{
pos = (325,20);
ref = _I_small;
},
{
pos = (325,165);
ref = _I_small;
},
{
pos = (325,309);
ref = _I_small;
},
{
pos = (30,312);
ref = _I_small;
}
);
width = 528;
},
{
layerId = m002;
name = Regular;
shapes = (
{
closed = 1;
nodes = (
(67,406,o),
(40,413,o),
(40,299,c),
(40,258,o),
(68,198,o),
(184,205,cs),
(359,216,l),
(337,243,l),
(181,233,l),
(96,225,o),
(67,260,o),
(67,315,c)
);
},
{
pos = (207,20);
ref = _I_small;
},
{
pos = (207,165);
ref = _I_small;
},
{
pos = (207,309);
ref = _I_small;
},
{
pos = (-88,312);
ref = _I_small;
}
);
width = 422;
}
);
unicode = 1095;
},
{
glyphname = "softsign-cy";
kernLeft = n;
lastChange = "2022-01-10 10:36:30 +0000";
layers = (
{
layerId = "7EBE3D46-E53E-419E-A3EC-596DA2EA1E0D";
name = Regular;
shapes = (
{
alignment = -1;
angle = 180;
pos = (242,510);
ref = "_i-dotless";
},
{
closed = 1;
nodes = (
(472,202,cs),
(472,307,o),
(395,359,o),
(268,359,cs),
(229,359,o),
(191,359,o),
(157,358,c),
(162,273,l),
(204,274,o),
(223,274,o),
(269,272,cs),
(313,270,o),
(360,254,o),
(360,199,cs),
(360,144,o),
(313,128,o),
(269,126,cs),
(223,124,o),
(204,124,o),
(162,125,c),
(157,0,l),
(268,-1,ls),
(399,-1,o),
(472,96,o)
);
}
);
width = 512;
},
{
layerId = m002;
name = Regular;
shapes = (
{
alignment = -1;
angle = 180;
pos = (242,510);
ref = "_i-dotless";
},
{
closed = 1;
nodes = (
(392,202,cs),
(392,307,o),
(315,359,o),
(188,359,cs),
(149,359,o),
(111,359,o),
(77,358,c),
(82,332,l),
(124,333,o),
(143,332,o),
(189,331,cs),
(303,329,o),
(360,274,o),
(360,199,cs),
(360,114,o),
(303,25,o),
(189,23,cs),
(143,22,o),
(124,21,o),
(82,22,c),
(77,0,l),
(188,-1,ls),
(319,-2,o),
(392,96,o)
);
}
);
width = 432;
}
);
unicode = 1100;
},
{
glyphname = "hardsign-cy";
kernLeft = e;
lastChange = "2022-01-10 10:38:21 +0000";
layers = (
{
layerId = "7EBE3D46-E53E-419E-A3EC-596DA2EA1E0D";
name = Regular;
shapes = (
{
closed = 1;
nodes = (
(19,350,l),
(171,350,l),
(171,510,l),
(19,510,l)
);
},
{
pos = (37,1);
ref = "softsign-cy";
}
);
width = 550;
},
{
layerId = m002;
name = Regular;
shapes = (
{
closed = 1;
nodes = (
(9,480,l),
(161,480,l),
(161,510,l),
(9,510,l)
);
},
{
pos = (87,1);
ref = "softsign-cy";
}
);
width = 550;
}
);
unicode = 1098;
},
{
glyphname = "iu-cy";
kernLeft = c;
kernRight = e;
lastChange = "2022-01-10 10:40:36 +0000";
layers = (
{
layerId = "7EBE3D46-E53E-419E-A3EC-596DA2EA1E0D";
name = Regular;
shapes = (
{
alignment = -1;
ref = dotlessi;
},
{
alignment = -1;
pos = (304,0);
ref = o;
},
{
closed = 1;
nodes = (
(206,197,l),
(388,197,l),
(388,318,l),
(206,318,l)
);
}
);
width = 821;
},
{
layerId = m002;
name = Regular;
shapes = (
{
alignment = -1;
ref = dotlessi;
},
{
alignment = -1;
pos = (304,0);
ref = o;
},
{
closed = 1;
nodes = (
(213,236,l),
(355,236,l),
(355,270,l),
(213,270,l)
);
}
);
width = 821;
}
);
unicode = 1102;
},
{
glyphname = "ia-cy";
kernLeft = e;
kernRight = n;
lastChange = "2022-01-10 13:06:54 +0000";
layers = (
{
layerId = "7EBE3D46-E53E-419E-A3EC-596DA2EA1E0D";
name = Regular;
shapes = (
{
closed = 1;
nodes = (
(233.619,100.86,l),
(259.418,145.481,o),
(305.059,135.121,o),
(337.587,137.035,c),
(346.099,137.758,o),
(409.692,193.574,o),
(348.499,209.366,c),
(334.018,213.005,o),
(202.931,194.991,o),
(198.997,194.997,c),
(127,188,o),
(115,131,o),
(69,43,c),
(50,0,l),
(182,0,l)
);
},
{
angle = 180;
pos = (492,508);
ref = "softsign-cy";
}
);
width = 499;
},
{
layerId = m002;
name = Regular;
shapes = (
{
closed = 1;
nodes = (
(236,113,ls),
(262,155,o),
(308,147,o),
(340,149,c),
(349,150,o),
(428,155,o),
(366,170,c),
(352,174,o),
(307,170,o),
(303,170,c),
(231,163,o),
(234,157,o),
(180,72,cs),
(134,0,l),
(166,0,l)
);
},
{
angle = 180;
pos = (532,508);
ref = "softsign-cy";
}
);
width = 499;
}
);
unicode = 1103;
},
{
glyphname = zero;
lastChange = "2022-01-13 08:15:32 +0000";
layers = (
{
layerId = "7EBE3D46-E53E-419E-A3EC-596DA2EA1E0D";
name = Regular;
shapes = (
{
closed = 1;
nodes = (
(350,7,l),
(365,7,l),
(350,127,l)
);
},
{
angle = 180;
pos = (542,505);
ref = _o_curve;
},
{
pos = (36,505);
ref = _o_curve;
scale = (1,-1);
},
{
pos = (542,160);
ref = _o_curve;
scale = (-1,1);
},
{
pos = (36,160);
ref = _o_curve;
},
{
closed = 1;
nodes = (
(70,245,l),
(183,245,l),
(183,412,l),
(70,412,l)
);
},
{
closed = 1;
nodes = (
(395,244,l),
(508,244,l),
(508,411,l),
(395,411,l)
);
}
);
width = 588;
},
{
layerId = m002;
name = Regular;
shapes = (
{
closed = 1;
nodes = (
(350,7,l),
(365,7,l),
(363,20,l)
);
},
{
angle = 180;
pos = (542,505);
ref = _o_curve;
},
{
pos = (36,505);
ref = _o_curve;
scale = (1,-1);
},
{
pos = (542,129);
ref = _o_curve;
scale = (-1,1);
},
{
pos = (36,129);
ref = _o_curve;
},
{
closed = 1;
nodes = (
(70,255,l),
(100,255,l),
(100,382,l),
(70,382,l)
);
},
{
closed = 1;
nodes = (
(478,254,l),
(508,254,l),
(508,381,l),
(478,381,l)
);
}
);
width = 588;
}
);
unicode = 48;
},
{
glyphname = one;
lastChange = "2022-01-13 07:25:00 +0000";
layers = (
{
layerId = "7EBE3D46-E53E-419E-A3EC-596DA2EA1E0D";
name = Regular;
shapes = (
{
pos = (119,19);
ref = _I_small;
},
{
pos = (119,168);
ref = _I_small;
},
{
pos = (119,331);
ref = _I_small;
},
{
pos = (119,472);
ref = _I_small;
},
{
closed = 1;
nodes = (
(29,461,o),
(33,414,o),
(23,347,c),
(135,347,o),
(275,502,o),
(275,661,c),
(275,662,o),
(150,661,o),
(150,660,c),
(150,569,o),
(83,532,o),
(23,512,c)
);
}
);
width = 332;
},
{
layerId = m002;
name = Regular;
shapes = (
{
pos = (119,19);
ref = _I_small;
},
{
pos = (119,168);
ref = _I_small;
},
{
pos = (119,331);
ref = _I_small;
},
{
pos = (119,432);
ref = _I_small;
},
{
closed = 1;
nodes = (
(26,350,o),
(26,341,o),
(23,327,c),
(125,359,o),
(224,472,o),
(274,631,c),
(274,632,o),
(247,631,o),
(247,630,c),
(197,449,o),
(85,377,o),
(25,357,c)
);
}
);
width = 332;
}
);
unicode = 49;
},
{
glyphname = two;
lastChange = "2022-03-07 10:45:43 +0000";
layers = (
{
layerId = "7EBE3D46-E53E-419E-A3EC-596DA2EA1E0D";
name = Regular;
shapes = (
{
closed = 1;
nodes = (
(306,374,o),
(235,289,o),
(177,228,cs),
(134,183,o),
(100,141,o),
(62,97,cs),
(50,84,o),
(34,61,o),
(34,42,cs),
(34,19,o),
(53,0,o),
(76,0,cs),
(77,0,l),
(181,0,l),
(208,30,o),
(155,56,o),
(186,88,c),
(286,190,o),
(438,303,o),
(438,440,cs),
(438,577,o),
(360,668,o),
(214,668,cs),
(166,668,o),
(86,668,o),
(27,624,c),
(52,479,l),
(91,499,o),
(139,508,o),
(200,508,cs),
(273,508,o),
(306,492,o),
(306,428,cs)
);
},
{
angle = 180;
pos = (488,452);
ref = _EF_horizontal;
},
{
angle = 180;
pos = (576,452);
ref = _EF_horizontal;
}
);
width = 522;
},
{
layerId = m002;
name = Regular;
shapes = (
{
closed = 1;
nodes = (
(406,336,o),
(332,262,o),
(265,210,cs),
(215,171,o),
(175,137,o),
(125,100,cs),
(110,89,o),
(34,36,o),
(34,17,cs),
(34,4,o),
(43,0,o),
(56,0,cs),
(77,0,l),
(63,13,l),
(90,43,o),
(135,69,o),
(169,95,cs),
(315,205,o),
(438,293,o),
(438,450,cs),
(438,567,o),
(350,636,o),
(214,636,cs),
(166,636,o),
(96,618,o),
(37,574,c),
(42,539,l),
(105,589,o),
(155,604,o),
(216,604,cs),
(333,604,o),
(406,547,o),
(406,453,cs)
);
},
{
angle = 180;
pos = (413,387);
ref = _EF_horizontal;
},
{
angle = 180;
pos = (566,387);
ref = _EF_horizontal;
}
);
width = 502;
}
);
unicode = 50;
},
{
glyphname = five;
lastChange = "2022-03-07 10:40:25 +0000";
layers = (
{
layerId = "7EBE3D46-E53E-419E-A3EC-596DA2EA1E0D";
name = Regular;
shapes = (
{
closed = 1;
nodes = (
(120,11,o),
(200,-2,o),
(248,-2,cs),
(399,-2,o),
(482,78,o),
(482,239,cs),
(482,408,o),
(319,438,o),
(187,418,c),
(205,504,l),
(459,503,l),
(499,664,l),
(142,660,l),
(91,383,ls),
(83,339,o),
(111,319,o),
(134,322,cs),
(249,339,o),
(360,321,o),
(360,239,cs),
(360,136,o),
(192,148,o),
(86,202,c),
(61,55,l)
);
}
);
width = 545;
},
{
layerId = m002;
name = Regular;
shapes = (
{
closed = 1;
nodes = (
(120,11,o),
(200,-2,o),
(248,-2,cs),
(399,-2,o),
(482,78,o),
(482,210,cs),
(482,408,o),
(268,408,o),
(136,388,c),
(182,601,l),
(441,600,l),
(448,631,l),
(162,630,l),
(111,383,ls),
(108,368,o),
(111,359,o),
(134,362,cs),
(247,379,o),
(455,384,o),
(455,209,cs),
(455,-13,o),
(180,0,o),
(65,78,c),
(61,55,l)
);
}
);
width = 545;
}
);
unicode = 53;
},
{
glyphname = six;
lastChange = "2022-03-07 10:43:55 +0000";
layers = (
{
layerId = "7EBE3D46-E53E-419E-A3EC-596DA2EA1E0D";
name = Regular;
shapes = (
{
closed = 1;
nodes = (
(220,146,o),
(184,184,o),
(184,244,cs),
(184,300,o),
(220,342,o),
(291,342,cs),
(350,342,o),
(394,305,o),
(394,241,cs),
(394,183,o),
(347,146,o),
(289,146,cs)
);
},
{
closed = 1;
nodes = (
(70,78,o),
(143,-11,o),
(299,-11,cs),
(460,-11,o),
(508,125,o),
(508,218,cs),
(508,336,o),
(439,441,o),
(313,441,cs),
(247,441,o),
(206,422,o),
(181,394,c),
(188,452,o),
(223,507,o),
(318,507,cs),
(364,507,o),
(415,492,o),
(445,475,c),
(446,528,o),
(456,585,o),
(470,635,c),
(439,653,o),
(378,668,o),
(337,668,cs),
(147,668,o),
(70,527,o),
(70,288,cs)
);
}
);
width = 578;
},
{
layerId = m002;
name = Regular;
shapes = (
{
closed = 1;
nodes = (
(169,23,o),
(110,134,o),
(110,243,cs),
(110,321,o),
(168,417,o),
(303,417,cs),
(407,417,o),
(479,352,o),
(479,207,cs),
(479,72,o),
(368,23,o),
(285,23,cs)
);
},
{
closed = 1;
nodes = (
(81,145,o),
(133,-4,o),
(279,-4,cs),
(460,-4,o),
(508,122,o),
(508,208,cs),
(508,336,o),
(446,441,o),
(305,441,cs),
(226,441,o),
(132,424,o),
(99,298,c),
(99,480,o),
(153,610,o),
(292,610,cs),
(367,610,o),
(423,587,o),
(453,570,c),
(453,580,o),
(452,589,o),
(456,602,c),
(415,620,o),
(379,638,o),
(302,638,cs),
(130,638,o),
(81,477,o),
(81,298,cs)
);
}
);
width = 588;
}
);
unicode = 54;
},
{
glyphname = seven;
lastChange = "2022-01-10 12:57:47 +0000";
layers = (
{
layerId = "7EBE3D46-E53E-419E-A3EC-596DA2EA1E0D";
name = Regular;
shapes = (
{
alignment = -1;
pos = (82,208);
ref = _EF_horizontal;
},
{
alignment = -1;
pos = (-94,208);
ref = _EF_horizontal;
},
{
closed = 1;
nodes = (
(473,600,ls),
(483,630,o),
(471,660,o),
(435,660,cs),
(379,660,l),
(71,0,l),
(223,0,l)
);
}
);
width = 517;
},
{
layerId = m002;
name = Regular;
shapes = (
{
alignment = -1;
pos = (82,243);
ref = _EF_horizontal;
},
{
alignment = -1;
pos = (-94,243);
ref = _EF_horizontal;
},
{
closed = 1;
nodes = (
(441,600,ls),
(448,618,o),
(450,630,o),
(435,630,cs),
(429,630,l),
(181,0,l),
(211,0,l)
);
}
);
width = 517;
}
);
unicode = 55;
},
{
glyphname = eight;
lastChange = "2022-01-10 13:01:39 +0000";
layers = (
{
layerId = "7EBE3D46-E53E-419E-A3EC-596DA2EA1E0D";
name = Regular;
shapes = (
{
closed = 1;
nodes = (
(71,442,o),
(90,393,o),
(128,346,c),
(86,312,o),
(60,256,o),
(60,180,c),
(60,59,o),
(142,-22,o),
(301,-22,c),
(451,-22,o),
(543,67,o),
(543,180,c),
(543,259,o),
(503,319,o),
(453,351,c),
(501,384,o),
(533,436,o),
(533,482,c),
(533,619,o),
(435,678,o),
(301,678,c),
(156,678,o),
(71,618,o),
(71,482,c)
);
},
{
closed = 1;
nodes = (
(178,282,o),
(227,300,o),
(298,300,c),
(365,300,o),
(415,280,o),
(415,231,c),
(415,187,o),
(389,158,o),
(298,158,c),
(201,158,o),
(178,187,o),
(178,225,c)
);
},
{
closed = 1;
nodes = (
(192,487,o),
(224,512,o),
(302,512,c),
(378,512,o),
(409,487,o),
(409,452,c),
(409,447,l),
(409,401,o),
(370,383,o),
(302,383,c),
(301,383,ls),
(230,383,o),
(192,400,o),
(192,447,c)
);
}
);
width = 580;
},
{
layerId = m002;
name = Regular;
shapes = (
{
closed = 1;
nodes = (
(71,383,o),
(114,351,o),
(184,328,c),
(114,307,o),
(53,267,o),
(53,162,c),
(53,51,o),
(102,-5,o),
(301,-5,c),
(471,-5,o),
(543,70,o),
(543,174,c),
(543,272,o),
(476,309,o),
(414,326,c),
(481,349,o),
(533,385,o),
(533,457,c),
(533,582,o),
(435,636,o),
(301,636,c),
(156,636,o),
(71,581,o),
(71,457,c)
);
},
{
closed = 1;
nodes = (
(70,283,o),
(165,319,o),
(299,319,c),
(429,319,o),
(526,278,o),
(526,174,c),
(526,78,o),
(476,18,o),
(299,18,c),
(114,18,o),
(70,78,o),
(70,161,c)
);
},
{
closed = 1;
nodes = (
(91,556,o),
(152,612,o),
(302,612,c),
(447,612,o),
(506,556,o),
(506,483,c),
(506,471,l),
(506,374,o),
(431,335,o),
(302,335,c),
(299,335,ls),
(162,335,o),
(91,373,o),
(91,471,c)
);
}
);
width = 580;
}
);
unicode = 56;
},
{
glyphname = question;
lastChange = "2022-07-10 18:54:57 +0000";
layers = (
{
layerId = "7EBE3D46-E53E-419E-A3EC-596DA2EA1E0D";
name = Regular;
shapes = (
{
closed = 1;
nodes = (
(326,455,o),
(309,453,o),
(219,369,cs),
(163,317,o),
(163,288,o),
(163,225,c),
(288,225,l),
(288,288,o),
(298,291,o),
(318,311,cs),
(428,426,o),
(458,448,o),
(458,530,cs),
(458,636,o),
(389,718,o),
(244,718,cs),
(198,718,o),
(92,709,o),
(40,673,c),
(45,624,o),
(55,569,o),
(78,513,c),
(119,544,o),
(187,564,o),
(243,564,cs),
(312,564,o),
(326,520,o),
(326,492,cs)
);
},
{
pos = (117,-609);
ref = _dot;
}
);
width = 538;
},
{
layerId = m002;
name = Regular;
shapes = (
{
closed = 1;
nodes = (
(411,461,o),
(398,416,o),
(308,323,cs),
(255,268,o),
(251,228,o),
(251,135,c),
(271,135,l),
(271,198,o),
(270,246,o),
(317,297,cs),
(424,413,o),
(439,444,o),
(439,496,cs),
(439,584,o),
(377,633,o),
(262,633,cs),
(161,633,o),
(105,605,o),
(63,579,c),
(68,570,o),
(77,556,o),
(78,549,c),
(119,580,o),
(205,603,o),
(261,603,cs),
(370,603,o),
(411,567,o),
(411,498,cs)
);
},
{
pos = (117,-609);
ref = _dot;
}
);
width = 538;
}
);
unicode = 63;
},
{
glyphname = bullet;
lastChange = "2022-01-10 14:52:07 +0000";
layers = (
{
layerId = "7EBE3D46-E53E-419E-A3EC-596DA2EA1E0D";
name = Regular;
shapes = (
{
closed = 1;
nodes = (
(301.072,170,o),
(375,239.379,o),
(375,326,c),
(375,414.621,o),
(301.072,484,o),
(218,484,c),
(135.992,484,o),
(60,414.814,o),
(60,326,c),
(60,239.186,o),
(135.992,170,o),
(218,170,c)
);
}
);
width = 435;
},
{
layerId = m002;
name = Regular;
shapes = (
{
closed = 1;
nodes = (
(274,233,o),
(318,274,o),
(318,327,c),
(318,380,o),
(274,422,o),
(223,422,c),
(174,422,o),
(128,380,o),
(128,327,c),
(128,274,o),
(174,233,o),
(223,233,c)
);
}
);
width = 435;
}
);
unicode = 8226;
},
{
glyphname = asterisk;
lastChange = "2022-01-10 14:55:33 +0000";
layers = (
{
layerId = "7EBE3D46-E53E-419E-A3EC-596DA2EA1E0D";
name = Regular;
shapes = (
{
closed = 1;
nodes = (
(296.449,532.289,l),
(368.549,572.794,l),
(322.076,654.523,l),
(245,607.371,l),
(245,703,l),
(168,703,l),
(168,605.728,l),
(91.382,654.983,l),
(52.036,573.011,l),
(122.455,533,l),
(50.804,492.289,l),
(94.791,412.462,l),
(173,458.842,l),
(173,363,l),
(250,363,l),
(250,458.763,l),
(327.838,412.061,l),
(365.753,494.486,l)
);
}
);
width = 419;
},
{
layerId = m002;
name = Regular;
shapes = (
{
closed = 1;
nodes = (
(239,532,l),
(332,584,l),
(314,617,l),
(220,559,l),
(220,674,l),
(193,674,l),
(193,557,l),
(101,616,l),
(87,586,l),
(179,533,l),
(87,481,l),
(104,450,l),
(198,506,l),
(198,392,l),
(225,392,l),
(225,506,l),
(317,451,l),
(331,481,l)
);
}
);
width = 419;
}
);
unicode = 42;
},
{
glyphname = numbersign;
lastChange = "2022-01-10 14:56:24 +0000";
layers = (
{
layerId = "7EBE3D46-E53E-419E-A3EC-596DA2EA1E0D";
name = Regular;
shapes = (
{
closed = 1;
nodes = (
(572,292,l),
(480,292,l),
(492,406,l),
(589,406,l),
(598,524,l),
(504,524,l),
(518,663,l),
(418,663,l),
(406,524,l),
(309,524,l),
(322,663,l),
(224,663,l),
(211,524,l),
(103,524,l),
(94,406,l),
(198,406,l),
(187,292,l),
(77,292,l),
(70,174,l),
(175,174,l),
(157,-3,l),
(256,-3,l),
(274,174,l),
(370,174,l),
(352,-3,l),
(450,-3,l),
(468,174,l),
(565,174,l)
);
},
{
closed = 1;
nodes = (
(285,292,l),
(297,406,l),
(393,406,l),
(381,292,l)
);
}
);
width = 704;
},
{
layerId = m002;
name = Regular;
shapes = (
{
closed = 1;
nodes = (
(547,231,l),
(446,231,l),
(468,437,l),
(571,437,l),
(574,479,l),
(473,479,l),
(487,626,l),
(446,626,l),
(432,479,l),
(264,479,l),
(279,626,l),
(239,626,l),
(226,479,l),
(111,479,l),
(107,437,l),
(219,437,l),
(199,231,l),
(84,231,l),
(81,191,l),
(195,191,l),
(177,2,l),
(217,2,l),
(236,191,l),
(401,191,l),
(383,2,l),
(424,2,l),
(443,191,l),
(545,191,l)
);
},
{
closed = 1;
nodes = (
(239,231,l),
(261,437,l),
(427,437,l),
(406,231,l)
);
}
);
width = 704;
}
);
unicode = 35;
},
{
glyphname = braceleft;
lastChange = "2022-01-10 15:00:16 +0000";
layers = (
{
layerId = "7EBE3D46-E53E-419E-A3EC-596DA2EA1E0D";
name = Regular;
shapes = (
{
closed = 1;
nodes = (
(449,-85,l),
(410,-85,ls),
(352,-85,o),
(324,-66,o),
(319,-24,c),
(319,153,ls),
(319,217,o),
(278,263,o),
(211,287,c),
(278,302,o),
(318,357,o),
(318,420,cs),
(318,542,l),
(323,582,o),
(351,601,o),
(410,601,cs),
(449,601,l),
(449,733,l),
(393,733,ls),
(255,733,o),
(197,652,o),
(197,533,cs),
(197,429,ls),
(197,374,o),
(181,351,o),
(91,351,cs),
(60,351,l),
(60,221,l),
(91,221,ls),
(177,221,o),
(197,193,o),
(197,141,cs),
(197,-17,ls),
(197,-148,o),
(268,-215,o),
(393,-215,cs),
(449,-215,l)
);
}
);
width = 509;
},
{
layerId = m002;
name = Regular;
shapes = (
{
closed = 1;
nodes = (
(420,-136,l),
(410,-136,ls),
(325,-136,o),
(277,-91,o),
(270,-28,c),
(270,153,ls),
(270,225,o),
(270,233,o),
(170,286,c),
(271,343,o),
(269,349,o),
(269,420,cs),
(269,546,l),
(276,604,o),
(321,652,o),
(410,652,cs),
(420,652,l),
(420,682,l),
(393,682,ls),
(263,682,o),
(226,630,o),
(226,533,cs),
(226,429,ls),
(226,347,o),
(202,300,o),
(91,300,cs),
(89,300,l),
(89,272,l),
(91,272,ls),
(205,272,o),
(226,209,o),
(226,141,cs),
(226,-17,ls),
(226,-119,o),
(273,-164,o),
(393,-164,cs),
(420,-164,l)
);
}
);
width = 509;
}
);
unicode = 123;
},
{
glyphname = guilsinglleft;
lastChange = "2022-01-15 19:41:12 +0000";
layers = (
{
layerId = "7EBE3D46-E53E-419E-A3EC-596DA2EA1E0D";
name = Regular;
shapes = (
{
closed = 1;
nodes = (
(100,363,l),
(80,350,o),
(60,342,o),
(60,321,cs),
(60,305,o),
(78,289,o),
(102,279,cs),
(337,177,ls),
(365,165,o),
(370,177,o),
(370,198,cs),
(370,258,ls),
(370,264,o),
(367,272,o),
(362,274,cs),
(256,321,l),
(362,368,ls),
(367,370,o),
(370,378,o),
(370,384,cs),
(370,454,ls),
(370,475,o),
(365,488,o),
(337,475,cs)
);
}
);
width = 430;
},
{
layerId = m002;
name = Regular;
shapes = (
{
closed = 1;
nodes = (
(80,309,ls),
(65,300,o),
(50,290,o),
(50,281,cs),
(50,271,o),
(66,262,o),
(80,253,cs),
(217,167,ls),
(245,150,o),
(250,157,o),
(250,178,cs),
(250,188,ls),
(250,194,o),
(248,201,o),
(242,204,cs),
(86,281,l),
(242,358,ls),
(248,361,o),
(250,368,o),
(250,374,cs),
(250,384,ls),
(250,405,o),
(245,412,o),
(217,395,cs)
);
}
);
width = 310;
}
);
unicode = 8249;
},
{
glyphname = at;
lastChange = "2022-01-11 10:32:19 +0000";
layers = (
{
layerId = "7EBE3D46-E53E-419E-A3EC-596DA2EA1E0D";
name = Regular;
shapes = (
{
closed = 1;
nodes = (
(500,150,ls),
(483,36,o),
(577,0,o),
(637,0,cs),
(728,0,o),
(808,118,o),
(814,290,cs),
(822,525,o),
(646,710,o),
(431,710,cs),
(228,710,o),
(69,570,o),
(43,268,cs),
(21,21,o),
(123,-203,o),
(371,-203,cs),
(415,-203,o),
(435,-197,o),
(503,-183,c),
(483,-148,o),
(465,-109,o),
(455,-62,c),
(427,-69,o),
(402,-74,o),
(370,-74,cs),
(171,-74,o),
(118,87,o),
(133,273,cs),
(149,467,o),
(274,584,o),
(430,584,cs),
(626,584,o),
(736,478,o),
(727,290,cs),
(722,187,o),
(671,137,o),
(639,137,cs),
(617,137,o),
(600,166,o),
(604,194,cs),
(643,501,l),
(551,501,l)
);
},
{
closed = 1;
nodes = (
(555,455,l),
(525,501,o),
(478,513,o),
(435,513,c),
(293,513,o),
(222,395,o),
(210,286,c),
(205,210,l),
(193,87,o),
(263,-8,o),
(368,-8,c),
(446,-8,o),
(515,51,o),
(539,104,c)
);
},
{
closed = 1;
nodes = (
(311,273,l),
(317,339,o),
(348,400,o),
(427,400,c),
(489,400,o),
(519,381,o),
(529,374,c),
(519,286,l),
(512,223,o),
(495,104,o),
(376,104,c),
(321,104,o),
(300,152,o),
(307,214,c)
);
}
);
width = 854;
},
{
layerId = m002;
name = Regular;
shapes = (
{
closed = 1;
nodes = (
(479,150,ls),
(463,36,o),
(486,0,o),
(546,0,cs),
(627,0,o),
(693,119,o),
(705,270,cs),
(720,465,o),
(595,630,o),
(380,630,cs),
(177,630,o),
(54,470,o),
(42,268,cs),
(27,20,o),
(122,-133,o),
(330,-133,cs),
(374,-133,o),
(404,-130,o),
(462,-113,c),
(457,-102,o),
(455,-91,o),
(454,-80,c),
(416,-96,o),
(361,-102,o),
(329,-102,cs),
(140,-102,o),
(57,62,o),
(73,267,cs),
(90,487,o),
(223,599,o),
(379,599,cs),
(575,599,o),
(685,458,o),
(676,270,cs),
(671,167,o),
(605,29,o),
(548,29,cs),
(526,29,o),
(494,34,o),
(503,98,cs),
(562,511,l),
(530,511,l)
);
},
{
closed = 1;
nodes = (
(534,445,l),
(504,491,o),
(447,513,o),
(404,513,c),
(249,513,o),
(213,436,o),
(199,327,cs),
(184,210,ls),
(168,87,o),
(242,-6,o),
(347,-6,c),
(425,-6,o),
(464,51,o),
(488,104,c)
);
},
{
closed = 1;
nodes = (
(222,324,ls),
(233,416,o),
(284,484,o),
(404,484,c),
(471,484,o),
(507,455,o),
(521,445,c),
(503,321,l),
(493,233,o),
(502,24,o),
(336,24,c),
(259,24,o),
(197,115,o),
(207,201,cs)
);
}
);
width = 746;
}
);
unicode = 64;
},
{
glyphname = ampersand;
lastChange = "2022-01-11 10:53:26 +0000";
layers = (
{
layerId = "7EBE3D46-E53E-419E-A3EC-596DA2EA1E0D";
name = Regular;
shapes = (
{
closed = 1;
nodes = (
(161,224,o),
(169,236,o),
(225,272,c),
(329,147,l),
(312,141,o),
(289,136,o),
(265,136,cs),
(190,136,o),
(161,163,o),
(161,197,cs)
);
},
{
closed = 1;
nodes = (
(363,450,o),
(251,397,c),
(195,453,o),
(199,530,o),
(279,530,cs),
(363,531,o)
);
},
{
closed = 1;
nodes = (
(495,23,o),
(543,34,o),
(595,33,c),
(491,147,l),
(517,202,o),
(539,287,o),
(523,335,c),
(428,367,l),
(434,303,o),
(430,287,o),
(413,243,c),
(336,332,l),
(386,363,o),
(440,411,o),
(440,511,cs),
(440,598,o),
(384,679,o),
(281,679,cs),
(178,679,o),
(112,599,o),
(112,492,cs),
(112,454,o),
(126,400,o),
(161,372,c),
(112,341,o),
(60,283,o),
(60,187,cs),
(60,73,o),
(132,-13,o),
(253,-13,cs),
(310,-13,o),
(352,0,o),
(412,46,c),
(450,1,l)
);
}
);
width = 679;
},
{
layerId = m002;
name = Regular;
shapes = (
{
closed = 1;
nodes = (
(88,232,o),
(184,283,o),
(240,319,c),
(453,90,l),
(415,54,o),
(318,28,o),
(264,28,cs),
(185,28,o),
(88,56,o),
(88,158,cs)
);
},
{
closed = 1;
nodes = (
(376,407,o),
(248,351,c),
(151,429,o),
(143,603,o),
(279,603,cs),
(391,603,o)
);
},
{
closed = 1;
nodes = (
(519,23,o),
(560,19,o),
(568,18,c),
(487,94,l),
(526,136,o),
(556,216,o),
(560,304,c),
(526,311,l),
(522,207,o),
(497,148,o),
(469,111,c),
(263,330,l),
(313,361,o),
(389,411,o),
(389,511,cs),
(389,578,o),
(354,637,o),
(281,637,cs),
(178,637,o),
(142,570,o),
(142,492,cs),
(142,434,o),
(186,371,o),
(221,340,c),
(172,309,o),
(60,253,o),
(60,157,cs),
(60,22,o),
(176,-4,o),
(265,-4,cs),
(322,-4,o),
(424,24,o),
(465,70,c),
(509,18,l)
);
}
);
width = 679;
}
);
unicode = 38;
},
{
glyphname = paragraph;
lastChange = "2022-01-11 10:54:23 +0000";
layers = (
{
layerId = "7EBE3D46-E53E-419E-A3EC-596DA2EA1E0D";
name = Regular;
shapes = (
{
closed = 1;
nodes = (
(141,279,o),
(80,367,o),
(80,469,c),
(80,573,o),
(157,659,o),
(343,659,c),
(511,659,l),
(511,1,l),
(439,1,l),
(439,627,l),
(335,627,l),
(335,276,l)
);
}
);
width = 591;
},
{
layerId = m002;
name = Regular;
shapes = (
{
closed = 1;
nodes = (
(141,248,o),
(80,336,o),
(80,438,c),
(80,542,o),
(157,628,o),
(343,628,c),
(465,628,l),
(465,0,l),
(439,0,l),
(439,600,l),
(335,600,l),
(335,245,l)
);
}
);
width = 591;
}
);
unicode = 182;
},
{
glyphname = section;
lastChange = "2022-01-11 12:06:18 +0000";
layers = (
{
layerId = "7EBE3D46-E53E-419E-A3EC-596DA2EA1E0D";
name = Regular;
shapes = (
{
closed = 1;
nodes = (
(500,86,o),
(528,144,o),
(528,197,c),
(528,286,o),
(458,338,o),
(385,375,cs),
(306,416,o),
(223,439,o),
(223,474,cs),
(223,514,o),
(287,520,o),
(329,520,cs),
(371,520,o),
(408,514,o),
(454,501,c),
(474,653,l),
(433,662,o),
(392,667,o),
(351,667,c),
(182,667,o),
(135,570,o),
(135,496,c),
(135,465,o),
(147,439,o),
(160,420,c),
(110,384,o),
(84,324,o),
(84,273,c),
(84,193,o),
(142,140,o),
(208,102,cs),
(294,52,o),
(392,25,o),
(392,-10,c),
(392,-44,o),
(358,-61,o),
(276,-61,c),
(216,-61,o),
(173,-52,o),
(120,-35,c),
(100,-182,l),
(152,-194,o),
(187,-201,o),
(260,-201,c),
(355,-201,o),
(479,-150,o),
(479,-25,c),
(479,4,o),
(467,31,o),
(454,50,c)
);
},
{
closed = 1;
nodes = (
(284,172,o),
(188,216,o),
(188,280,c),
(188,300,o),
(203,332,o),
(240,352,c),
(325,297,o),
(425,254,o),
(425,190,c),
(425,171,o),
(408,137,o),
(372,116,c)
);
}
);
width = 608;
},
{
layerId = m002;
name = Regular;
shapes = (
{
closed = 1;
nodes = (
(448,111,o),
(472,135,o),
(472,186,c),
(472,265,o),
(392,306,o),
(326,349,cs),
(251,398,o),
(160,446,o),
(160,501,cs),
(160,590,o),
(245,602,o),
(334,602,cs),
(376,602,o),
(413,596,o),
(459,583,c),
(462,618,l),
(421,627,o),
(380,632,o),
(339,632,c),
(170,632,o),
(135,570,o),
(135,496,c),
(133,452,o),
(162,419,o),
(192,400,c),
(142,364,o),
(125,338,o),
(125,297,c),
(125,219,o),
(179,183,o),
(242,145,cs),
(329,92,o),
(449,35,o),
(449,-33,cs),
(449,-135,o),
(343,-173,o),
(261,-173,c),
(201,-173,o),
(158,-165,o),
(105,-148,c),
(100,-182,l),
(152,-194,o),
(187,-201,o),
(260,-201,c),
(358,-205,o),
(482,-138,o),
(479,-35,cs),
(477,28,o),
(427,62,o),
(399,80,c)
);
},
{
closed = 1;
nodes = (
(272,163,o),
(153,217,o),
(153,295,c),
(153,320,o),
(171,359,o),
(217,384,c),
(322,316,o),
(446,263,o),
(446,184,c),
(446,160,o),
(424,119,o),
(380,93,c)
);
}
);
width = 608;
}
);
unicode = 167;
},
{
glyphname = degree;
lastChange = "2022-01-11 09:50:41 +0000";
layers = (
{
layerId = "7EBE3D46-E53E-419E-A3EC-596DA2EA1E0D";
name = Regular;
shapes = (
{
closed = 1;
nodes = (
(294.213,407,o),
(367,479.787,o),
(367,571,c),
(367,661.213,o),
(294.213,734,o),
(214,734,c),
(132.787,734,o),
(60,661.213,o),
(60,571,c),
(60,479.787,o),
(132.787,407,o),
(214,407,c)
);
},
{
closed = 1;
nodes = (
(174.371,513,o),
(147,541.139,o),
(147,572,c),
(147,600.854,o),
(174.371,629,o),
(215,629,c),
(254.696,629,o),
(283,600.665,o),
(283,572,c),
(283,541.328,o),
(254.696,513,o),
(215,513,c)
);
}
);
width = 427;
},
{
layerId = m002;
name = Regular;
shapes = (
{
closed = 1;
nodes = (
(166,480,o),
(199,513,o),
(199,555,c),
(199,596,o),
(166,629,o),
(130,629,c),
(93,629,o),
(60,596,o),
(60,555,c),
(60,513,o),
(93,480,o),
(130,480,c)
);
},
{
closed = 1;
nodes = (
(109,515,o),
(94,532,o),
(94,553,c),
(94,574,o),
(109,590,o),
(130,590,c),
(152,590,o),
(166,574,o),
(166,553,c),
(166,532,o),
(152,515,o),
(130,515,c)
);
}
);
width = 259;
}
);
unicode = 176;
},
{
glyphname = currency;
lastChange = "2022-01-11 12:10:50 +0000";
layers = (
{
layerId = "7EBE3D46-E53E-419E-A3EC-596DA2EA1E0D";
name = Regular;
shapes = (
{
closed = 1;
nodes = (
(139,444,l),
(70,376,l),
(163,284,l),
(233,351,l)
);
},
{
pos = (67,-71);
ref = degree;
},
{
closed = 1;
nodes = (
(165,719,l),
(72,627,l),
(150,548,l),
(243,638,l)
);
},
{
closed = 1;
nodes = (
(401,702,l),
(332,634,l),
(425,542,l),
(495,609,l)
);
},
{
closed = 1;
nodes = (
(422,457,l),
(329,365,l),
(407,286,l),
(500,376,l)
);
}
);
width = 565;
},
{
layerId = m002;
name = Regular;
shapes = (
{
closed = 1;
nodes = (
(220,468,l),
(151,400,l),
(172,377,l),
(242,444,l)
);
},
{
pos = (151,-51);
ref = degree;
},
{
closed = 1;
nodes = (
(164,643,l),
(144,622,l),
(222,543,l),
(242,562,l)
);
},
{
closed = 1;
nodes = (
(387,627,l),
(318,559,l),
(339,536,l),
(409,603,l)
);
},
{
closed = 1;
nodes = (
(330,470,l),
(310,449,l),
(388,370,l),
(408,389,l)
);
}
);
width = 565;
}
);
unicode = 164;
},
{
glyphname = infinity;
lastChange = "2022-01-13 08:12:36 +0000";
layers = (
{
layerId = "7EBE3D46-E53E-419E-A3EC-596DA2EA1E0D";
name = Regular;
shapes = (
{
closed = 1;
nodes = (
(525,568,o),
(456,539,o),
(429,501,c),
(395,543,o),
(339,569,o),
(263,569,c),
(142,569,o),
(61,487,o),
(61,328,c),
(61,178,o),
(150,86,o),
(263,86,c),
(342,86,o),
(402,126,o),
(434,176,c),
(467,128,o),
(519,93,o),
(565,93,c),
(702,93,o),
(761,194,o),
(761,328,c),
(761,473,o),
(701,568,o),
(565,568,c)
);
},
{
closed = 1;
nodes = (
(352,414,o),
(383,380,o),
(383,317,c),
(383,258,o),
(349,214,o),
(266,214,c),
(201,214,o),
(152,237,o),
(152,317,c),
(152,403,o),
(201,414,o),
(256,414,c)
);
},
{
closed = 1;
nodes = (
(643,411,o),
(689,384,o),
(689,318,c),
(689,254,o),
(643,228,o),
(589,228,c),
(580,228,l),
(496,228,o),
(463,261,o),
(463,318,c),
(463,319,ls),
(463,379,o),
(494,411,o),
(580,411,c)
);
}
);
width = 871;
},
{
layerId = m002;
name = Regular;
shapes = (
{
closed = 1;
nodes = (
(519,584,o),
(477,541,o),
(454,471,c),
(433,541,o),
(393,586,o),
(288,586,c),
(177,586,o),
(121,553,o),
(121,354,c),
(121,184,o),
(196,124,o),
(300,124,c),
(398,124,o),
(435,179,o),
(452,241,c),
(475,174,o),
(521,122,o),
(593,122,c),
(718,122,o),
(772,220,o),
(772,354,c),
(772,499,o),
(717,584,o),
(593,584,c)
);
},
{
closed = 1;
nodes = (
(409,569,o),
(445,490,o),
(445,356,c),
(445,226,o),
(404,141,o),
(300,141,c),
(204,141,o),
(144,179,o),
(144,356,c),
(144,541,o),
(204,569,o),
(287,569,c)
);
},
{
closed = 1;
nodes = (
(692,564,o),
(748,503,o),
(748,353,c),
(748,208,o),
(692,149,o),
(619,149,c),
(607,149,l),
(510,149,o),
(461,224,o),
(461,353,c),
(461,356,ls),
(461,493,o),
(509,564,o),
(607,564,c)
);
}
);
width = 871;
}
);
unicode = 8734;
},
{
glyphname = summation;
lastChange = "2022-01-12 16:04:46 +0000";
layers = (
{
layerId = "7EBE3D46-E53E-419E-A3EC-596DA2EA1E0D";
name = Regular;
shapes = (
{
alignment = -1;
pos = (46,208);
ref = _EF_horizontal;
},
{
alignment = -1;
pos = (-44,208);
ref = _EF_horizontal;
},
{
alignment = -1;
pos = (59,452);
ref = _EF_horizontal;
scale = (1,-1);
},
{
alignment = -1;
pos = (-41,452);
ref = _EF_horizontal;
scale = (1,-1);
},
{
closed = 1;
nodes = (
(374,660,l),
(139,322,l),
(370,0,l),
(528,0,l),
(300,322,l),
(531,660,l)
);
}
);
width = 555;
},
{
layerId = m002;
name = Regular;
shapes = (
{
alignment = -1;
pos = (149,243);
ref = _EF_horizontal;
},
{
alignment = -1;
pos = (-1,243);
ref = _EF_horizontal;
},
{
alignment = -1;
pos = (149,387);
ref = _EF_horizontal;
scale = (1,-1);
},
{
alignment = -1;
pos = (-1,387);
ref = _EF_horizontal;
scale = (1,-1);
},
{
closed = 1;
nodes = (
(494,630,l),
(249,322,l),
(490,0,l),
(528,0,l),
(290,322,l),
(531,630,l)
);
}
);
width = 555;
}
);
unicode = 8721;
},
{
glyphname = radical;
lastChange = "2022-01-12 16:01:40 +0000";
layers = (
{
layerId = "7EBE3D46-E53E-419E-A3EC-596DA2EA1E0D";
name = Regular;
shapes = (
{
closed = 1;
nodes = (
(53,500,l),
(206,18,l),
(278,127,l),
(163,500,l)
);
},
{
pos = (324,209);
ref = _EF_horizontal;
},
{
pos = (595,1);
ref = _backslash;
scale = (-1,1);
}
);
width = 730;
},
{
layerId = m002;
name = Regular;
shapes = (
{
closed = 1;
nodes = (
(40,418,l),
(166,5,l),
(183,30,l),
(77,418,l)
);
},
{
pos = (269,243);
ref = _EF_horizontal;
},
{
pos = (500,1);
ref = _backslash;
scale = (-1,1);
}
);
width = 635;
}
);
unicode = 8730;
},
{
glyphname = percent;
lastChange = "2022-01-11 09:55:34 +0000";
layers = (
{
layerId = "7EBE3D46-E53E-419E-A3EC-596DA2EA1E0D";
name = Regular;
shapes = (
{
closed = 1;
nodes = (
(407,659,l),
(92,0,l),
(194,0,l),
(513,659,l)
);
},
{
pos = (305,-276);
ref = _percent;
},
{
pos = (43,165);
ref = _percent;
}
);
width = 620;
},
{
layerId = m002;
name = Regular;
shapes = (
{
closed = 1;
nodes = (
(446,625,l),
(110,0,l),
(143,0,l),
(483,625,l)
);
},
{
pos = (269,-268);
ref = _percent;
},
{
pos = (44,115);
ref = _percent;
}
);
width = 685;
}
);
unicode = 37;
},
{
glyphname = ring;
lastChange = "2022-01-11 09:49:19 +0000";
layers = (
{
layerId = "7EBE3D46-E53E-419E-A3EC-596DA2EA1E0D";
name = Regular;
shapes = (
{
closed = 1;
nodes = (
(378.025,510,o),
(443,574.975,o),
(443,655.5,c),
(443,736.025,o),
(378.025,801,o),
(307.5,801,c),
(236.975,801,o),
(172,736.025,o),
(172,655.5,c),
(172,574.975,o),
(236.975,510,o),
(307.5,510,c)
);
},
{
closed = 1;
nodes = (
(291,608,o),
(276,631,o),
(276,652,c),
(276,673,o),
(291,695,o),
(312,695,c),
(334,695,o),
(348,673,o),
(348,652,c),
(348,631,o),
(334,608,o),
(312,608,c)
);
}
);
width = 600;
},
{
layerId = m002;
name = Regular;
shapes = (
{
closed = 1;
nodes = (
(346,480,o),
(379,513,o),
(379,555,c),
(379,596,o),
(346,629,o),
(310,629,c),
(273,629,o),
(240,596,o),
(240,555,c),
(240,513,o),
(273,480,o),
(310,480,c)
);
},
{
closed = 1;
nodes = (
(289,507,o),
(274,530,o),
(274,551,c),
(274,572,o),
(289,594,o),
(310,594,c),
(332,594,o),
(346,572,o),
(346,551,c),
(346,530,o),
(332,507,o),
(310,507,c)
);
}
);
width = 600;
}
);
unicode = 730;
},
{
glyphname = cedilla;
lastChange = "2022-01-15 17:19:37 +0000";
layers = (
{
layerId = "7EBE3D46-E53E-419E-A3EC-596DA2EA1E0D";
name = Regular;
shapes = (
{
closed = 1;
nodes = (
(226,-59,l),
(254,-53,o),
(294,-65,o),
(294,-110,c),
(294,-147,o),
(254,-157,o),
(218,-142,c),
(174,-243,l),
(289,-278,o),
(397,-238,o),
(397,-117,c),
(397,-51,o),
(353,-19,o),
(307,-18,c),
(334.318,36.864,l),
(237.744,25.118,l)
);
}
);
width = 600;
},
{
layerId = m002;
name = Regular;
shapes = (
{
closed = 1;
nodes = (
(276,-59,l),
(304,-53,o),
(344,-65,o),
(344,-110,c),
(344,-147,o),
(304,-157,o),
(268,-142,c),
(264,-173,l),
(318,-188,o),
(377,-174,o),
(377,-107,c),
(377,-61,o),
(342,-30,o),
(307,-28,c),
(314,27,l),
(288,25,l)
);
}
);
width = 600;
}
);
unicode = 184;
},
{
glyphname = ogonek;
lastChange = "2022-01-13 07:34:47 +0000";
layers = (
{
layerId = "7EBE3D46-E53E-419E-A3EC-596DA2EA1E0D";
name = Regular;
shapes = (
{
closed = 1;
nodes = (
(382,-107,l),
(347,-108,l),
(314,-108,o),
(302,-89,o),
(302,-79,c),
(302,-56,o),
(292,-33,o),
(367,20,c),
(243.692,20,l),
(172.394,-23.127,o),
(171,-80.805,o),
(171,-115,c),
(171,-176.581,o),
(228.547,-240,o),
(305,-240,c),
(324.004,-240,o),
(362,-239,o),
(381,-234,c)
);
}
);
width = 600;
},
{
layerId = m002;
name = Regular;
shapes = (
{
closed = 1;
nodes = (
(409,-107,l),
(374,-108,l),
(341,-108,o),
(329,-84,o),
(329,-74,cs),
(329,-51,o),
(329,-23,o),
(384,20,c),
(357,20,l),
(315,-13,o),
(288,-43,o),
(288,-87,cs),
(288,-119,o),
(326,-150,o),
(362,-150,c),
(381,-150,o),
(389,-149,o),
(408,-144,c)
);
}
);
width = 600;
}
);
unicode = 731;
},
{
glyphname = "_dash-small";
lastChange = "2022-01-07 07:34:19 +0000";
layers = (
{
layerId = "7EBE3D46-E53E-419E-A3EC-596DA2EA1E0D";
name = Regular;
shapes = (
{
closed = 1;
nodes = (
(160,222,l),
(342,222,l),
(342,343,l),
(160,343,l)
);
}
);
width = 600;
},
{
layerId = m002;
name = Regular;
shapes = (
{
closed = 1;
nodes = (
(140,259,l),
(362,259,l),
(362,293,l),
(140,293,l)
);
}
);
width = 600;
}
);
},
{
glyphname = "S-curve";
lastChange = "2022-01-04 20:26:43 +0000";
layers = (
{
layerId = "7EBE3D46-E53E-419E-A3EC-596DA2EA1E0D";
name = Regular;
shapes = (
{
closed = 1;
nodes = (
(330,584,o),
(384,570,o),
(428,550,c),
(453,679,l),
(396,700,o),
(339,713,o),
(275,711,c),
(276,581,l)
);
}
);
width = 540;
},
{
layerId = m002;
name = Regular;
shapes = (
{
closed = 1;
nodes = (
(330,584,o),
(384,570,o),
(428,550,c),
(453,679,l),
(396,700,o),
(339,713,o),
(275,711,c),
(276,581,l)
);
}
);
width = 540;
}
);
},
{
glyphname = _A;
lastChange = "2022-01-04 20:26:43 +0000";
layers = (
{
layerId = "7EBE3D46-E53E-419E-A3EC-596DA2EA1E0D";
name = Regular;
shapes = (
{
closed = 1;
nodes = (
(306,729,l),
(284,729,l),
(11,0,l),
(134,0,l),
(296,454,l),
(446,0,l),
(570,0,l)
);
}
);
width = 590;
},
{
layerId = m002;
name = Regular;
shapes = (
{
closed = 1;
nodes = (
(306,729,l),
(284,729,l),
(11,0,l),
(134,0,l),
(296,454,l),
(446,0,l),
(570,0,l)
);
}
);
width = 590;
}
);
},
{
glyphname = _C_curve;
lastChange = "2022-01-12 15:48:33 +0000";
layers = (
{
layerId = "7EBE3D46-E53E-419E-A3EC-596DA2EA1E0D";
name = Regular;
shapes = (
{
closed = 1;
nodes = (
(426,642,l),
(379,673,o),
(326,687,o),
(252,685,cs),
(104,682,o),
(1,599,o),
(1,321,cs),
(1,69,o),
(125,121,o),
(125,352,cs),
(125,459,o),
(159,526,o),
(246,525,cs),
(305,524,o),
(354,505,o),
(391,483,c)
);
}
);
width = 506;
},
{
layerId = m002;
name = Regular;
shapes = (
{
closed = 1;
nodes = (
(436,552,l),
(379,583,o),
(322,596,o),
(282,595,cs),
(144,592,o),
(1,559,o),
(1,281,cs),
(1,29,o),
(28,71,o),
(28,302,cs),
(28,480,o),
(112,566,o),
(276,565,cs),
(335,565,o),
(373,547,o),
(410,528,c)
);
}
);
width = 506;
}
);
},
{
glyphname = _C_lowe;
lastChange = "2022-01-04 20:26:43 +0000";
layers = (
{
layerId = "7EBE3D46-E53E-419E-A3EC-596DA2EA1E0D";
name = Regular;
shapes = (
{
closed = 1;
nodes = (
(30,298,c),
(30,55,o),
(188,-25,o),
(306,-26,c),
(388,-25,o),
(462,5,o),
(514,53,c),
(454,160,l),
(413,124,o),
(364,104,o),
(306,104,c),
(237,104,o),
(144,142,o),
(144,307,c),
(144,466,o),
(30,458,o)
);
}
);
width = 492;
},
{
layerId = m002;
name = Regular;
shapes = (
{
closed = 1;
nodes = (
(30,298,c),
(30,55,o),
(188,-25,o),
(306,-26,c),
(388,-25,o),
(462,5,o),
(514,53,c),
(454,160,l),
(413,124,o),
(364,104,o),
(306,104,c),
(237,104,o),
(144,142,o),
(144,307,c),
(144,466,o),
(30,458,o)
);
}
);
width = 492;
}
);
},
{
glyphname = _D;
lastChange = "2022-01-07 07:43:33 +0000";
layers = (
{
layerId = "7EBE3D46-E53E-419E-A3EC-596DA2EA1E0D";
name = Regular;
shapes = (
{
closed = 1;
nodes = (
(480,188,o),
(593,214,o),
(593,389,c),
(593,612,o),
(463,718,o),
(283,721,c),
(212,722,o),
(120.116,720.794,o),
(72,710.988,c),
(72,550,l),
(113,564,o),
(216,566,o),
(270,566,c),
(406,566,o),
(480,514,o),
(480,389,c)
);
}
);
width = 533;
},
{
layerId = m002;
name = Regular;
shapes = (
{
closed = 1;
nodes = (
(560,368,o),
(593,336,o),
(593,389,c),
(593,612,o),
(463,718,o),
(283,721,c),
(212,722,o),
(120.116,720.794,o),
(72,710.988,c),
(72,678,l),
(113,692,o),
(216,694,o),
(270,694,c),
(406,694,o),
(560,632,o),
(560,389,c)
);
}
);
width = 533;
}
);
},
{
glyphname = _D_cyr;
lastChange = "2022-01-09 18:22:29 +0000";
layers = (
{
layerId = "7EBE3D46-E53E-419E-A3EC-596DA2EA1E0D";
name = Regular;
shapes = (
{
closed = 1;
nodes = (
(492.178,-20,l),
(550,-20,l),
(550,-154,l),
(662.093,-154,l),
(661,142,l),
(485,141,l)
);
}
);
width = 600;
},
{
layerId = m002;
name = Regular;
shapes = (
{
closed = 1;
nodes = (
(552,-22,l),
(610,-22,l),
(610,-156,l),
(647,-156,l),
(646,9,l),
(555,8,l)
);
}
);
width = 600;
}
);
},
{
glyphname = _EF_horizontal;
lastChange = "2022-02-08 11:32:42 +0000";
layers = (
{
layerId = "7EBE3D46-E53E-419E-A3EC-596DA2EA1E0D";
name = Regular;
shapes = (
{
closed = 1;
nodes = (
(124,292,l),
(346,292,l),
(346,452,l),
(124,452,l)
);
}
);
width = 600;
},
{
layerId = m002;
name = Regular;
shapes = (
{
closed = 1;
nodes = (
(114,357,l),
(356,357,l),
(356,387,l),
(114,387,l)
);
}
);
width = 600;
}
);
},
{
glyphname = _I_dbh;
lastChange = "2022-01-06 12:19:27 +0000";
layers = (
{
layerId = "7EBE3D46-E53E-419E-A3EC-596DA2EA1E0D";
name = Regular;
shapes = (
{
closed = 1;
nodes = (
(30,244,l),
(143,244,l),
(143,451,l),
(30,451,l)
);
},
{
alignment = -1;
pos = (0,21);
ref = _I_small;
},
{
alignment = -1;
pos = (0,225);
ref = _I_small;
},
{
alignment = -1;
pos = (0,474);
ref = _I_small;
},
{
alignment = -1;
pos = (0,393);
ref = _I_small;
}
);
width = 509;
},
{
layerId = m002;
name = Regular;
shapes = (
{
closed = 1;
nodes = (
(134,244,l),
(143,244,l),
(143,326,l),
(134,326,l)
);
},
{
alignment = -1;
pos = (0,21);
ref = _I_small;
},
{
alignment = -1;
pos = (0,225);
ref = _I_small;
},
{
alignment = -1;
pos = (0,474);
ref = _I_small;
},
{
alignment = -1;
pos = (0,393);
ref = _I_small;
}
);
width = 509;
}
);
},
{
glyphname = _I_small;
lastChange = "2022-01-09 18:56:16 +0000";
layers = (
{
layerId = "7EBE3D46-E53E-419E-A3EC-596DA2EA1E0D";
name = Regular;
shapes = (
{
closed = 1;
nodes = (
(30,-19,l),
(155,-19,l),
(155,188,l),
(30,188,l)
);
}
);
width = 469;
},
{
layerId = m002;
name = Regular;
shapes = (
{
closed = 1;
nodes = (
(128,-19,l),
(155,-19,l),
(155,198,l),
(128,198,l)
);
}
);
width = 469;
}
);
},
{
glyphname = _M;
lastChange = "2022-07-12 11:44:46 +0000";
layers = (
{
layerId = "7EBE3D46-E53E-419E-A3EC-596DA2EA1E0D";
name = Regular;
shapes = (
{
closed = 1;
nodes = (
(328,178,o),
(339,196,o),
(351,211,cs),
(488,385,l),
(488,298,ls),
(488,278,o),
(506,265,o),
(525,271,cs),
(595,293,ls),
(605,296,o),
(612,305,o),
(612,315,cs),
(612,661,ls),
(612,703,o),
(564,721,o),
(538,685,cs),
(344,422,ls),
(323,393,o),
(317,392,o),
(301,392,cs),
(278,392,o),
(254,178,o),
(308,178,cs)
);
}
);
width = 642;
},
{
layerId = m002;
name = Regular;
shapes = (
{
closed = 1;
nodes = (
(318,276,o),
(335,291,o),
(349,309,cs),
(578,589,l),
(578,512,ls),
(578,492,o),
(571,208,o),
(587,220,cs),
(591,223,ls),
(602,231,o),
(604,235,o),
(604,245,cs),
(604,601,ls),
(604,643,o),
(580,642,o),
(558,615,cs),
(339,352,ls),
(316,324,o),
(314,322,o),
(306,322,cs),
(293,322,o),
(294,276,o),
(308,276,cs)
);
}
);
width = 642;
}
);
},
{
glyphname = _N;
lastChange = "2022-01-04 20:26:43 +0000";
layers = (
{
layerId = "7EBE3D46-E53E-419E-A3EC-596DA2EA1E0D";
name = Regular;
shapes = (
{
closed = 1;
nodes = (
(485,221,l),
(139,693,l),
(61,668,l),
(60,474,l),
(152,472,l),
(469,79,l)
);
}
);
width = 618;
},
{
layerId = m002;
name = Regular;
shapes = (
{
closed = 1;
nodes = (
(485,221,l),
(139,693,l),
(61,668,l),
(60,474,l),
(152,472,l),
(469,79,l)
);
}
);
width = 618;
}
);
},
{
glyphname = _O;
lastChange = "2022-07-13 11:51:45 +0000";
layers = (
{
layerId = "7EBE3D46-E53E-419E-A3EC-596DA2EA1E0D";
name = Regular;
shapes = (
{
closed = 1;
nodes = (
(302,737,l),
(120,737,o),
(10,611,o),
(10,390,c),
(10,389,o),
(135,390,o),
(135,391,c),
(135,504,o),
(192,572,o),
(302,572,c)
);
}
);
width = 900;
},
{
layerId = m002;
name = Regular;
shapes = (
{
closed = 1;
nodes = (
(302,737,l),
(120,737,o),
(18,631,o),
(18,400,c),
(18,399,o),
(45,398,o),
(45,399,c),
(45,585,o),
(123,699,o),
(304,699,c)
);
}
);
width = 900;
}
);
},
{
glyphname = _P;
lastChange = "2022-01-04 20:26:43 +0000";
layers = (
{
layerId = "7EBE3D46-E53E-419E-A3EC-596DA2EA1E0D";
name = Regular;
shapes = (
{
closed = 1;
nodes = (
(500,543,o),
(400,660,o),
(261,662,c),
(186,663,o),
(110,663,o),
(70,663,c),
(70,483,l),
(97,500,o),
(188,499,o),
(252,497,c),
(336,497,o),
(376,452,o),
(376,405,c),
(375,338,o),
(343,292,o),
(252,292,c),
(187,290,o),
(97,302,o),
(70,319,c),
(70,205,l),
(110,198,o),
(186,189,o),
(261,190,c),
(400,192,o),
(500,277,o),
(500,402,c),
(500,403,o),
(500,404,o),
(500,405,c),
(500,408,l)
);
}
);
width = 513;
},
{
layerId = m002;
name = Regular;
shapes = (
{
closed = 1;
nodes = (
(500,543,o),
(400,660,o),
(261,662,c),
(186,663,o),
(110,663,o),
(70,663,c),
(70,483,l),
(97,500,o),
(188,499,o),
(252,497,c),
(336,497,o),
(376,452,o),
(376,405,c),
(375,338,o),
(343,292,o),
(252,292,c),
(187,290,o),
(97,302,o),
(70,319,c),
(70,205,l),
(110,198,o),
(186,189,o),
(261,190,c),
(400,192,o),
(500,277,o),
(500,402,c),
(500,403,o),
(500,404,o),
(500,405,c),
(500,408,l)
);
}
);
width = 513;
}
);
},
{
glyphname = _R_slash;
lastChange = "2022-01-09 19:55:19 +0000";
layers = (
{
layerId = "7EBE3D46-E53E-419E-A3EC-596DA2EA1E0D";
name = Regular;
shapes = (
{
closed = 1;
nodes = (
(134,465,l),
(376,-18,l),
(432,-19,ls),
(455,-19,o),
(488,4,o),
(470,42,cs),
(276,465,l)
);
}
);
width = 533;
},
{
layerId = m002;
name = Regular;
shapes = (
{
closed = 1;
nodes = (
(254,413,l),
(457,-19,l),
(462,-19,ls),
(486,-19,o),
(488,-12,o),
(470,25,cs),
(285,414,l)
);
}
);
width = 533;
}
);
},
{
glyphname = _X;
lastChange = "2022-07-24 11:16:28 +0000";
layers = (
{
layerId = "7EBE3D46-E53E-419E-A3EC-596DA2EA1E0D";
name = Regular;
shapes = (
{
closed = 1;
nodes = (
(401,657,l),
(330,472,l),
(326,463,o),
(319,454,o),
(306,454,cs),
(292,454,o),
(286,461,o),
(281,472,c),
(202,658,l),
(10,658,l),
(222,299,l),
(246,247,o),
(295,243,o),
(308,243,cs),
(321,243,o),
(374,260,o),
(391,298,c),
(593,657,l)
);
}
);
width = 600;
},
{
layerId = m002;
name = Regular;
shapes = (
{
closed = 1;
nodes = (
(540,657,l),
(329,391,ls),
(317,376,o),
(311,369,o),
(304,369,cs),
(297,369,o),
(291,377,o),
(282,389,cs),
(65,658,l),
(20,658,l),
(265,376,ls),
(301,334,o),
(295,334,o),
(308,334,cs),
(321,334,o),
(314,337,o),
(341,369,cs),
(583,657,l)
);
}
);
width = 600;
}
);
changeCount = 13;
},
{
glyphname = _Z;
lastChange = "2022-07-24 10:45:12 +0000";
layers = (
{
layerId = "7EBE3D46-E53E-419E-A3EC-596DA2EA1E0D";
name = Regular;
shapes = (
{
closed = 1;
nodes = (
(1027,599,o),
(837,599,o),
(667,579,c),
(683,533,o),
(695,484,o),
(697,421,c),
(834,429,o),
(936,429,o),
(1003,423,c),
(778,-52,l),
(867,32,o),
(1120,400,o),
(1190,534,cs),
(1201,556,o),
(1185,572,o),
(1156,577,cs)
);
}
);
width = 1183;
},
{
layerId = m002;
name = Regular;
shapes = (
{
closed = 1;
nodes = (
(1027,599,o),
(837,599,o),
(667,579,c),
(669,574,o),
(676,558,o),
(681,551,c),
(850,573,o),
(1034,565,o),
(1161,554,c),
(688,-35,l),
(777,49,o),
(1082,428,o),
(1190,544,cs),
(1207,563,o),
(1185,572,o),
(1156,577,cs)
);
}
);
width = 1183;
}
);
changeCount = 45;
},
{
glyphname = _acute;
lastChange = "2022-01-12 21:00:17 +0000";
layers = (
{
layerId = "7EBE3D46-E53E-419E-A3EC-596DA2EA1E0D";
name = Regular;
shapes = (
{
closed = 1;
nodes = (
(273,737,o),
(241,671,o),
(215,618,cs),
(203,594,o),
(216,570,o),
(240,570,cs),
(286,570,ls),
(295,570,o),
(303,576,o),
(307,584,cs),
(378,746,ls),
(387,767,o),
(373,788,o),
(351,788,cs),
(305,788,ls),
(294,788,o),
(287,781,o),
(283,770,cs)
);
}
);
width = 600;
},
{
layerId = m002;
name = Regular;
shapes = (
{
closed = 1;
nodes = (
(288,687,o),
(254,611,o),
(228,558,cs),
(216,534,o),
(219,520,o),
(228,520,cs),
(236,520,ls),
(245,520,o),
(253,526,o),
(257,534,cs),
(335,706,ls),
(345,727,o),
(343,738,o),
(331,738,cs),
(320,738,ls),
(309,738,o),
(302,731,o),
(298,720,cs)
);
}
);
width = 600;
}
);
},
{
glyphname = _backslash;
lastChange = "2022-01-10 14:57:42 +0000";
layers = (
{
layerId = "7EBE3D46-E53E-419E-A3EC-596DA2EA1E0D";
name = Regular;
shapes = (
{
closed = 1;
nodes = (
(281,16,ls),
(284,7,o),
(293,0,o),
(303,0,cs),
(363,0,ls),
(384,0,o),
(397,18,o),
(390,38,cs),
(184,644,ls),
(181,653,o),
(172,660,o),
(162,660,cs),
(100,660,ls),
(79,660,o),
(66,642,o),
(73,622,cs)
);
}
);
width = 463;
},
{
layerId = m002;
name = Regular;
shapes = (
{
closed = 1;
nodes = (
(307,13,ls),
(310,4,o),
(312,0,o),
(322,0,cs),
(325,0,ls),
(336,0,o),
(338,8,o),
(331,28,cs),
(132,616,ls),
(129,625,o),
(125,629,o),
(115,629,cs),
(106,629,ls),
(95,629,o),
(96,621,o),
(103,601,cs)
);
}
);
width = 463;
}
);
},
{
glyphname = _bracket;
lastChange = "2022-01-10 14:58:32 +0000";
layers = (
{
layerId = "7EBE3D46-E53E-419E-A3EC-596DA2EA1E0D";
name = Regular;
shapes = (
{
closed = 1;
nodes = (
(418,-178,o),
(461,-156,o),
(496.569,-141.555,c),
(360.431,-14.567,o),
(296,121,o),
(296,270,c),
(296,419,o),
(359.285,552.265,o),
(496.507,681.688,c),
(470,725,o),
(429,747,o),
(393,750,c),
(225,593,o),
(170,435,o),
(170,272,c),
(170,97,o),
(241,-74,o),
(392,-211,c)
);
}
);
width = 600;
},
{
layerId = m002;
name = Regular;
shapes = (
{
closed = 1;
nodes = (
(399,-138,o),
(407,-132,o),
(414,-127,c),
(305,-7,o),
(250,126,o),
(250,270,cs),
(250,421,o),
(309,558,o),
(431,685,c),
(423,690,o),
(415,694,o),
(407,696,c),
(260,552,o),
(216,420,o),
(216,272,cs),
(216,120,o),
(269,-20,o),
(392,-143,c)
);
}
);
width = 600;
}
);
},
{
glyphname = _breve;
lastChange = "2022-01-07 12:06:39 +0000";
layers = (
{
layerId = "7EBE3D46-E53E-419E-A3EC-596DA2EA1E0D";
name = Regular;
shapes = (
{
closed = 1;
nodes = (
(100,768,o),
(100,757,cs),
(98,728,o),
(146,566,o),
(279,566,cs),
(383,566,o),
(402,679,o),
(277,679,cs),
(242,679,o),
(220,716,o),
(217,752,cs),
(216,767,o),
(207,779,o),
(192,779,cs),
(123,779,ls),
(114,779,o)
);
}
);
width = 600;
},
{
layerId = m002;
name = Regular;
shapes = (
{
closed = 1;
nodes = (
(96,695,o),
(100,684,cs),
(123,624,o),
(194,566,o),
(279,566,cs),
(313,566,o),
(332,599,o),
(277,599,cs),
(214,599,o),
(169,642,o),
(152,682,cs),
(146,697,o),
(143,699,o),
(132,699,cs),
(113,699,ls),
(104,699,o)
);
}
);
width = 600;
}
);
},
{
glyphname = _c;
lastChange = "2022-01-04 20:26:43 +0000";
layers = (
{
layerId = "7EBE3D46-E53E-419E-A3EC-596DA2EA1E0D";
name = Regular;
shapes = (
{
closed = 1;
nodes = (
(320,558,o),
(370,543,o),
(404,523,c),
(429,652,l),
(382,673,o),
(328.771,686.506,o),
(264.777,684.868,c),
(266,555,l)
);
}
);
width = 506;
},
{
layerId = m002;
name = Regular;
shapes = (
{
closed = 1;
nodes = (
(320,558,o),
(370,543,o),
(404,523,c),
(429,652,l),
(382,673,o),
(328.771,686.506,o),
(264.777,684.868,c),
(266,555,l)
);
}
);
width = 506;
}
);
},
{
glyphname = _cedilla_fragment;
lastChange = "2022-01-07 12:08:43 +0000";
layers = (
{
layerId = "7EBE3D46-E53E-419E-A3EC-596DA2EA1E0D";
name = Regular;
shapes = (
{
closed = 1;
nodes = (
(287,296.999,l),
(324.517,273.221,o),
(363.33,251.951,o),
(421.182,253.003,c),
(480.577,254.045,o),
(520.613,274.663,o),
(564.597,325.454,c),
(535.841,447.325,l),
(498.376,412.337,o),
(458.097,391.105,o),
(414.744,389.993,c),
(364.026,390,o),
(327.035,423.137,o),
(287,447.595,c)
);
}
);
width = 600;
},
{
layerId = m002;
name = Regular;
shapes = (
{
closed = 1;
nodes = (
(287,296.999,l),
(324.517,273.221,o),
(363.33,251.951,o),
(421.182,253.003,c),
(480.577,254.045,o),
(520.613,274.663,o),
(564.597,325.454,c),
(536,367,l),
(498,332,o),
(458,311,o),
(415,310,c),
(364,310,o),
(327,343,o),
(287,368,c)
);
}
);
width = 600;
}
);
},
{
glyphname = _circle;
lastChange = "2022-01-10 15:03:23 +0000";
layers = (
{
layerId = "7EBE3D46-E53E-419E-A3EC-596DA2EA1E0D";
name = Regular;
shapes = (
{
closed = 1;
nodes = (
(433.197,36,o),
(584,185.741,o),
(584,372,c),
(584,557.213,o),
(433.213,708,o),
(258,708,c),
(81.77,708,o),
(-68,557.167,o),
(-68,372,c),
(-68,185.787,o),
(81.787,36,o),
(258,36,c)
);
},
{
closed = 1;
nodes = (
(118.453,133,o),
(14,246.682,o),
(14,375,c),
(14,504.043,o),
(118.346,613,o),
(257,613,c),
(395.675,613,o),
(501,503.984,o),
(501,375,c),
(501,246.741,o),
(395.57,133,o),
(257,133,c)
);
}
);
width = 515;
},
{
layerId = m002;
name = Regular;
shapes = (
{
closed = 1;
nodes = (
(421,72,o),
(552,202,o),
(552,372,cs),
(552,541,o),
(421,672,o),
(258,672,cs),
(94,672,o),
(-36,541,o),
(-36,372,cs),
(-36,202,o),
(94,72,o),
(258,72,cs)
);
},
{
closed = 1;
nodes = (
(101,97,o),
(-18,227,o),
(-18,375,cs),
(-18,524,o),
(101,649,o),
(257,649,cs),
(413,649,o),
(533,524,o),
(533,375,cs),
(533,227,o),
(413,97,o),
(257,97,cs)
);
}
);
width = 515;
}
);
},
{
glyphname = _circum_part;
lastChange = "2022-01-07 08:23:20 +0000";
layers = (
{
layerId = "7EBE3D46-E53E-419E-A3EC-596DA2EA1E0D";
name = Regular;
shapes = (
{
closed = 1;
nodes = (
(251,261,ls),
(251,255,o),
(254,251,o),
(256,247,cs),
(312,145,ls),
(315,140,o),
(322,137,o),
(328,137,cs),
(398,137,ls),
(419,137,o),
(440,146,o),
(419,170,cs),
(317,287,ls),
(292,316,o),
(252,327,o),
(252,307,cs)
);
}
);
width = 600;
},
{
layerId = m002;
name = Regular;
shapes = (
{
closed = 1;
nodes = (
(258,251,ls),
(258,243,o),
(259,240,o),
(263,237,cs),
(382,145,ls),
(388,141,o),
(392,137,o),
(398,137,cs),
(418,137,ls),
(429,137,o),
(435,140,o),
(421,151,cs),
(286,257,ls),
(260,277,o),
(258,260,o),
(258,257,cs)
);
}
);
width = 600;
}
);
},
{
glyphname = _curve_B;
lastChange = "2022-01-10 10:41:48 +0000";
layers = (
{
layerId = "7EBE3D46-E53E-419E-A3EC-596DA2EA1E0D";
name = Regular;
shapes = (
{
closed = 1;
nodes = (
(108,658,o),
(52,658,o),
(22,657,c),
(22,482,l),
(44,500,o),
(119,502,o),
(207,500,c),
(287,497,o),
(308,462,o),
(308,433,c),
(308,404,o),
(281,373,o),
(181,373,c),
(76,373,l),
(54,312,l),
(227,312,l),
(368,312,o),
(442,386,o),
(442,469,c),
(442,605,o),
(352,655,o),
(206,657,c)
);
}
);
width = 469;
},
{
layerId = m002;
name = Regular;
shapes = (
{
closed = 1;
nodes = (
(138,638,o),
(82,633,o),
(22,628,c),
(22,582,l),
(74,600,o),
(149,602,o),
(237,600,c),
(317,597,o),
(442,579,o),
(442,464,c),
(442,363,o),
(301,332,o),
(201,332,c),
(36,332,l),
(34,302,l),
(217,302,l),
(378,302,o),
(472,381,o),
(472,464,c),
(472,600,o),
(382,635,o),
(236,637,c)
);
}
);
width = 469;
}
);
},
{
glyphname = _curve_b;
lastChange = "2022-07-24 10:26:56 +0000";
layers = (
{
layerId = "7EBE3D46-E53E-419E-A3EC-596DA2EA1E0D";
name = Regular;
shapes = (
{
closed = 1;
nodes = (
(185,514,o),
(147,489,o),
(122,449,c),
(109,510,l),
(27,510,l),
(27,-1,l),
(132,-1,l),
(132,37,l),
(166,8,o),
(211,-7,o),
(262,-7,cs),
(391,-7,o),
(451,100,o),
(451,256,cs),
(451,405,o),
(373,514,o),
(253,514,cs)
);
},
{
closed = 1;
nodes = (
(132,203,ls),
(132,329,o),
(185,357,o),
(247,357,cs),
(304,357,o),
(339,327,o),
(338,251,cs),
(337,193,o),
(293,150,o),
(239,149,cs),
(192,148,o),
(156,158,o),
(132,170,c)
);
}
);
width = 493;
},
{
layerId = m002;
name = Regular;
shapes = (
{
closed = 1;
nodes = (
(130,510,o),
(80,450,o),
(58,347,c),
(52,509,l),
(35,510,l),
(35,0,l),
(50,0,l),
(57,65,l),
(111,26,o),
(161,0,o),
(232,0,cs),
(361,0,o),
(441,100,o),
(441,256,cs),
(441,395,o),
(358,510,o),
(228,510,cs)
);
},
{
closed = 1;
nodes = (
(56,162,ls),
(56,313,o),
(78,480,o),
(227,480,cs),
(362,480,o),
(409,357,o),
(409,251,cs),
(409,75,o),
(287,31,o),
(233,30,cs),
(136,28,o),
(80,73,o),
(56,85,c)
);
}
);
width = 493;
}
);
changeCount = 3;
},
{
glyphname = _curve_cursive;
lastChange = "2022-07-13 11:49:34 +0000";
layers = (
{
layerId = "7EBE3D46-E53E-419E-A3EC-596DA2EA1E0D";
name = Regular;
shapes = (
{
closed = 1;
nodes = (
(50,255,l),
(50,96,o),
(165,-1,o),
(301,-1,c),
(353,0,o),
(392,8,o),
(429,32,c),
(419,77,o),
(398,132,o),
(377,175,c),
(351,165,o),
(325,159,o),
(296,159,c),
(220,159,o),
(174,196,o),
(174,252,c),
(174,255,l),
(174,293,o),
(50,271,o),
(50,257,c)
);
}
);
width = 537;
},
{
layerId = m002;
name = Regular;
shapes = (
{
closed = 1;
nodes = (
(50,235,l),
(50,96,o),
(160,0,o),
(286,0,c),
(378,1,o),
(395,9,o),
(447,29,c),
(447,35,o),
(445,48,o),
(443,56,c),
(395,39,o),
(378,29,o),
(287,29,c),
(181,29,o),
(80,99,o),
(80,255,c),
(80,258,l),
(80,366,o),
(50,341,o),
(50,257,c)
);
}
);
width = 537;
}
);
},
{
glyphname = _curve_generic;
lastChange = "2022-01-10 10:42:41 +0000";
layers = (
{
layerId = "7EBE3D46-E53E-419E-A3EC-596DA2EA1E0D";
name = Regular;
shapes = (
{
closed = 1;
nodes = (
(335,407,o),
(460,384.949,o),
(460,499,c),
(460,619.435,o),
(392.446,723.018,o),
(251.928,721.999,c),
(88.807,720.905,l),
(111.196,600,l),
(233,600,l),
(316.89,600,o),
(335,560,o),
(335,498,c)
);
}
);
width = 600;
},
{
layerId = m002;
name = Regular;
shapes = (
{
closed = 1;
nodes = (
(335,464,o),
(363,442,o),
(363,499,c),
(363,619,o),
(272,633,o),
(222,632,c),
(-21,631,l),
(-9,600,l),
(223,600,l),
(307,600,o),
(335,560,o),
(335,498,c)
);
}
);
width = 600;
}
);
},
{
glyphname = _curve_lower;
lastChange = "2022-07-24 11:15:14 +0000";
layers = (
{
layerId = "7EBE3D46-E53E-419E-A3EC-596DA2EA1E0D";
name = Regular;
shapes = (
{
closed = 1;
nodes = (
(390,113,o),
(347,158,o),
(309,182,c),
(290,162,o),
(281,156,o),
(264,156,c),
(228,156,o),
(205,177,o),
(205,229,c),
(205,368,l),
(80,368,l),
(80,159,l),
(80,45,o),
(144,-11,o),
(252,-11,c),
(328,-11,o),
(372,18,o),
(425,63,c)
);
}
);
width = 476;
},
{
layerId = m002;
name = Regular;
shapes = (
{
closed = 1;
nodes = (
(396,78,o),
(390,87,o),
(381,95,c),
(347,57,o),
(314,25,o),
(264,25,c),
(188,25,o),
(137,80,o),
(137,174,c),
(137,488,l),
(110,488,l),
(110,164,l),
(110,80,o),
(155,-5,o),
(263,-5,c),
(322,-5,o),
(362,19,o),
(403,69,c)
);
}
);
width = 476;
}
);
changeCount = 31;
},
{
glyphname = _curve_lower_big;
lastChange = "2022-01-04 20:26:43 +0000";
layers = (
{
layerId = "7EBE3D46-E53E-419E-A3EC-596DA2EA1E0D";
name = Regular;
shapes = (
{
closed = 1;
nodes = (
(-322,108,l),
(-405,104,o),
(-439,160,o),
(-439,241,c),
(-439,261,l),
(-439,369,o),
(-553,345,o),
(-553,261,c),
(-553,222,l),
(-553,70,o),
(-453,-27,o),
(-320,-22,c)
);
},
{
alignment = -1;
pos = (-609,663);
ref = _c;
scale = (1,-1);
}
);
width = 526;
},
{
layerId = m002;
name = Regular;
shapes = (
{
closed = 1;
nodes = (
(-322,108,l),
(-405,104,o),
(-439,160,o),
(-439,241,c),
(-439,261,l),
(-439,369,o),
(-553,345,o),
(-553,261,c),
(-553,222,l),
(-553,70,o),
(-453,-27,o),
(-320,-22,c)
);
},
{
alignment = -1;
pos = (-609,663);
ref = _c;
scale = (1,-1);
}
);
width = 526;
}
);
},
{
glyphname = _d_curl;
lastChange = "2022-01-04 20:26:43 +0000";
layers = (
{
layerId = "7EBE3D46-E53E-419E-A3EC-596DA2EA1E0D";
name = Regular;
shapes = (
{
closed = 1;
nodes = (
(261,530.675,l),
(163.678,536.899,o),
(128.798,452.794,o),
(84.758,363.066,c),
(126.866,275.947,l),
(185.414,392.928,o),
(191.529,399.986,o),
(261,398.913,c)
);
}
);
width = 494;
},
{
layerId = m002;
name = Regular;
shapes = (
{
closed = 1;
nodes = (
(261,530.675,l),
(163.678,536.899,o),
(128.798,452.794,o),
(84.758,363.066,c),
(126.866,275.947,l),
(185.414,392.928,o),
(191.529,399.986,o),
(261,398.913,c)
);
}
);
width = 494;
}
);
},
{
glyphname = _dot;
lastChange = "2022-02-10 08:26:08 +0000";
layers = (
{
layerId = "7EBE3D46-E53E-419E-A3EC-596DA2EA1E0D";
name = Regular;
shapes = (
{
closed = 1;
nodes = (
(161,580,o),
(210,618,o),
(210,679,c),
(210,739,o),
(161,779,o),
(116,779,c),
(68,779,o),
(20,739,o),
(20,679,c),
(20,618,o),
(69,580,o),
(116,580,c)
);
}
);
width = 260;
},
{
layerId = m002;
name = Regular;
shapes = (
{
closed = 1;
nodes = (
(165,585,o),
(185,601,o),
(185,625,c),
(185,651,o),
(165,667,o),
(146,667,c),
(127,667,o),
(107,651,o),
(107,625,c),
(107,601,o),
(127,585,o),
(146,585,c)
);
}
);
width = 260;
}
);
},
{
glyphname = _ending_cursive;
lastChange = "2022-01-04 20:26:43 +0000";
layers = (
{
layerId = "7EBE3D46-E53E-419E-A3EC-596DA2EA1E0D";
name = Regular;
shapes = (
{
closed = 1;
nodes = (
(269.778,-25.78,l),
(346.663,-29.052,o),
(399.94,4.517,o),
(443.289,55.558,c),
(383.162,161.114,l),
(350.024,122.47,o),
(313.435,100.467,o),
(271.226,104.466,c)
);
}
);
width = 537;
},
{
layerId = m002;
name = Regular;
shapes = (
{
closed = 1;
nodes = (
(269.778,-25.78,l),
(346.663,-29.052,o),
(399.94,4.517,o),
(443.289,55.558,c),
(383.162,161.114,l),
(350.024,122.47,o),
(313.435,100.467,o),
(271.226,104.466,c)
);
}
);
width = 537;
}
);
},
{
glyphname = _exclamation;
lastChange = "2022-01-10 14:34:32 +0000";
layers = (
{
layerId = "7EBE3D46-E53E-419E-A3EC-596DA2EA1E0D";
name = Regular;
shapes = (
{
closed = 1;
nodes = (
(63,241,ls),
(64,228,o),
(74,218,o),
(87,218,cs),
(172,218,ls),
(185,218,o),
(195,228,o),
(196,241,cs),
(225,691,ls),
(226,706,o),
(214,719,o),
(199,719,cs),
(60,719,ls),
(45,719,o),
(33,706,o),
(34,691,cs)
);
}
);
width = 600;
},
{
layerId = m002;
name = Regular;
shapes = (
{
closed = 1;
nodes = (
(153,234,ls),
(153,221,o),
(159,218,o),
(172,218,cs),
(179,218,ls),
(192,218,o),
(196,221,o),
(196,234,cs),
(197,701,ls),
(197,716,o),
(196,719,o),
(181,719,cs),
(172,719,ls),
(157,719,o),
(156,716,o),
(156,701,cs)
);
}
);
width = 600;
}
);
},
{
glyphname = _f_integral;
lastChange = "2022-07-24 11:18:29 +0000";
layers = (
{
layerId = "7EBE3D46-E53E-419E-A3EC-596DA2EA1E0D";
name = Regular;
shapes = (
{
closed = 1;
nodes = (
(352,579,o),
(341,639,o),
(323,683,c),
(174,663,o),
(117,601,o),
(117,485,c),
(117,266,l),
(242,286,l),
(242,453,l),
(242,523,o),
(293,526,o),
(357,528,c)
);
}
);
width = 390;
},
{
layerId = m002;
name = Regular;
shapes = (
{
closed = 1;
nodes = (
(290,666,o),
(286,680,o),
(283,693,c),
(214,693,o),
(117,671,o),
(117,535,c),
(117,266,l),
(144,266,l),
(144,503,l),
(144,608,o),
(181,653,o),
(293,653,c)
);
}
);
width = 390;
}
);
changeCount = 131;
},
{
glyphname = _fraction_slash;
lastChange = "2022-01-13 07:38:12 +0000";
layers = (
{
layerId = "7EBE3D46-E53E-419E-A3EC-596DA2EA1E0D";
name = Regular;
shapes = (
{
closed = 1;
nodes = (
(367,660,l),
(140,1,l),
(215,1,l),
(434,660,l)
);
}
);
width = 334;
},
{
layerId = m002;
name = Regular;
shapes = (
{
closed = 1;
nodes = (
(396,632,l),
(177,1,l),
(197,1,l),
(418,632,l)
);
}
);
width = 810;
}
);
},
{
glyphname = _g_loop;
lastChange = "2022-01-04 20:26:43 +0000";
layers = (
{
layerId = "7EBE3D46-E53E-419E-A3EC-596DA2EA1E0D";
name = Regular;
shapes = (
{
closed = 1;
nodes = (
(211.003,-74.506,l),
(229.503,-176,l),
(229.002,-176,o),
(228.501,-176,o),
(228,-176,c),
(361.303,-176,o),
(419.704,-115.228,o),
(421.997,-15.46,c),
(422,15.217,o),
(309,15.217,o),
(309,-15,c),
(309,-37.808,o),
(291.79,-55,o),
(227,-55,c),
(225,-55,o),
(223,-55,o),
(221,-55,c)
);
}
);
width = 538;
},
{
layerId = m002;
name = Regular;
shapes = (
{
closed = 1;
nodes = (
(211.003,-74.506,l),
(229.503,-176,l),
(229.002,-176,o),
(228.501,-176,o),
(228,-176,c),
(361.303,-176,o),
(419.704,-115.228,o),
(421.997,-15.46,c),
(422,15.217,o),
(309,15.217,o),
(309,-15,c),
(309,-37.808,o),
(291.79,-55,o),
(227,-55,c),
(225,-55,o),
(223,-55,o),
(221,-55,c)
);
}
);
width = 538;
}
);
},
{
glyphname = _g_two_storey;
lastChange = "2022-01-04 20:26:43 +0000";
layers = (
{
layerId = "7EBE3D46-E53E-419E-A3EC-596DA2EA1E0D";
name = Regular;
shapes = (
{
closed = 1;
nodes = (
(280.998,412.556,l),
(262.548,523,l),
(263.032,523,o),
(263.516,523,o),
(264,523,c),
(122.177,523,o),
(52.201,434.966,o),
(50.002,329.417,c),
(50,298.682,o),
(163,299.884,o),
(163,330,c),
(163,362.566,o),
(190.505,393,o),
(265,393,c),
(267,393,o),
(269,393,o),
(271,393,c)
);
}
);
width = 538;
},
{
layerId = m002;
name = Regular;
shapes = (
{
closed = 1;
nodes = (
(280.998,412.556,l),
(262.548,523,l),
(263.032,523,o),
(263.516,523,o),
(264,523,c),
(122.177,523,o),
(52.201,434.966,o),
(50.002,329.417,c),
(50,298.682,o),
(163,299.884,o),
(163,330,c),
(163,362.566,o),
(190.505,393,o),
(265,393,c),
(267,393,o),
(269,393,o),
(271,393,c)
);
}
);
width = 538;
}
);
},
{
glyphname = _hmn;
lastChange = "2022-07-13 19:55:39 +0000";
layers = (
{
layerId = "7EBE3D46-E53E-419E-A3EC-596DA2EA1E0D";
name = Regular;
shapes = (
{
closed = 1;
nodes = (
(165,509,o),
(107,359,o),
(98,237,c),
(162,216,l),
(163,307,o),
(181,350,o),
(246,350,c),
(310,350,o),
(324,300,o),
(324,219,c),
(324,-9,ls),
(447,-9,l),
(447,294,l),
(445,439,o),
(378,509,o),
(264,509,c)
);
}
);
width = 600;
},
{
layerId = m002;
name = Regular;
shapes = (
{
closed = 1;
nodes = (
(151,500,o),
(67,395,o),
(58,273,c),
(73,272,l),
(74,363,o),
(166,470,o),
(267,470,c),
(369,470,o),
(415,394,o),
(415,273,c),
(415,-9,ls),
(442,-9,l),
(442,270,l),
(440,425,o),
(383,500,o),
(269,500,c)
);
}
);
width = 600;
}
);
},
{
glyphname = _k_cyr;
lastChange = "2022-01-04 20:26:43 +0000";
layers = (
{
layerId = "7EBE3D46-E53E-419E-A3EC-596DA2EA1E0D";
name = Regular;
shapes = (
{
closed = 1;
nodes = (
(105.016,207.125,l),
(251.235,205.983,l),
(279.16,246.194,l),
(496.835,518,l),
(345.015,518,l),
(191.988,314.964,l),
(132.107,313.895,l)
);
}
);
width = 600;
},
{
layerId = m002;
name = Regular;
shapes = (
{
closed = 1;
nodes = (
(105.016,207.125,l),
(251.235,205.983,l),
(279.16,246.194,l),
(496.835,518,l),
(345.015,518,l),
(191.988,314.964,l),
(132.107,313.895,l)
);
}
);
width = 600;
}
);
},
{
glyphname = _less_equal;
lastChange = "2022-01-12 15:51:47 +0000";
layers = (
{
layerId = "7EBE3D46-E53E-419E-A3EC-596DA2EA1E0D";
name = Regular;
shapes = (
{
closed = 1;
nodes = (
(542,373,o),
(545,409,o),
(500,429.136,cs),
(72,626,l),
(72,482,l),
(382,371,l),
(500,372,l)
);
}
);
width = 600;
},
{
layerId = m002;
name = Regular;
shapes = (
{
closed = 1;
nodes = (
(532,382,o),
(544,399,o),
(500,420,cs),
(72,626,l),
(72,572,l),
(502,380,l),
(510,381,l)
);
}
);
width = 600;
}
);
},
{
glyphname = _m_curve;
lastChange = "2022-01-04 20:26:43 +0000";
layers = (
{
layerId = "7EBE3D46-E53E-419E-A3EC-596DA2EA1E0D";
name = Regular;
shapes = (
{
closed = 1;
nodes = (
(147,511,o),
(100,408,o),
(91,286,c),
(123,100,l),
(125,191,o),
(122,389,o),
(226,389,c),
(270,389,o),
(276,330,o),
(276,249,c),
(276,0,ls),
(389,0,l),
(389,293,l),
(387,438,o),
(340,511,o),
(246,511,c)
);
}
);
width = 741;
},
{
layerId = m002;
name = Regular;
shapes = (
{
closed = 1;
nodes = (
(147,511,o),
(100,408,o),
(91,286,c),
(123,100,l),
(125,191,o),
(122,389,o),
(226,389,c),
(270,389,o),
(276,330,o),
(276,249,c),
(276,0,ls),
(389,0,l),
(389,293,l),
(387,438,o),
(340,511,o),
(246,511,c)
);
}
);
width = 741;
}
);
},
{
glyphname = _m_cyr;
lastChange = "2022-01-04 20:26:43 +0000";
layers = (
{
layerId = "7EBE3D46-E53E-419E-A3EC-596DA2EA1E0D";
name = Regular;
shapes = (
{
closed = 1;
nodes = (
(159.751,520,l),
(10,28.403,l),
(10,-19,l),
(123.882,-19,l),
(199.882,282,l),
(225.883,282,l),
(194.631,520,l)
);
}
);
width = 682;
},
{
layerId = m002;
name = Regular;
shapes = (
{
closed = 1;
nodes = (
(159.751,520,l),
(10,28.403,l),
(10,-19,l),
(123.882,-19,l),
(199.882,282,l),
(225.883,282,l),
(194.631,520,l)
);
}
);
width = 682;
}
);
},
{
glyphname = _m_cyr_2;
lastChange = "2022-01-09 19:40:14 +0000";
layers = (
{
layerId = "7EBE3D46-E53E-419E-A3EC-596DA2EA1E0D";
name = Regular;
shapes = (
{
closed = 1;
nodes = (
(443,78,o),
(419,287,o),
(396,287,cs),
(380,287,o),
(375,289,o),
(353,317,cs),
(211,502,ls),
(183,538,o),
(137,520,o),
(137,478,cs),
(137,132,ls),
(137,122,o),
(144,113,o),
(154,110,cs),
(225,88,ls),
(244,82,o),
(262,95,o),
(262,115,cs),
(262,202,l),
(346,111,ls),
(359,97,o),
(369,78,o),
(389,78,cs)
);
}
);
width = 682;
},
{
layerId = m002;
name = Regular;
shapes = (
{
closed = 1;
nodes = (
(410,258,o),
(416,287,o),
(403,287,cs),
(387,287,o),
(386,291,o),
(360,317,cs),
(171,502,ls),
(139,534,o),
(137,520,o),
(137,478,cs),
(137,132,ls),
(137,122,o),
(138,122,o),
(142,110,cs),
(151,84,ls),
(157,66,o),
(164,117,o),
(164,137,cs),
(163,471,l),
(345,291,ls),
(363,274,o),
(376,258,o),
(386,258,cs)
);
}
);
width = 682;
}
);
},
{
glyphname = _multiply;
lastChange = "2022-01-12 15:49:11 +0000";
layers = (
{
layerId = "7EBE3D46-E53E-419E-A3EC-596DA2EA1E0D";
name = Regular;
shapes = (
{
closed = 1;
nodes = (
(433.661,279.448,l),
(198.363,530.068,l),
(114.135,458.066,l),
(353.86,199.646,l)
);
}
);
width = 561;
},
{
layerId = m002;
name = Regular;
shapes = (
{
closed = 1;
nodes = (
(433.661,279.448,l),
(198.363,530.068,l),
(174,511,l),
(411,255,l)
);
}
);
width = 561;
}
);
},
{
glyphname = _o_curve;
lastChange = "2022-07-10 18:28:37 +0000";
layers = (
{
layerId = "7EBE3D46-E53E-419E-A3EC-596DA2EA1E0D";
name = Regular;
shapes = (
{
closed = 1;
nodes = (
(253,516,l),
(110,516,o),
(36,413,o),
(34,255,c),
(147,254,l),
(147,320,o),
(191,355,o),
(253,355,c)
);
}
);
width = 900;
},
{
layerId = m002;
name = Regular;
shapes = (
{
closed = 1;
nodes = (
(253,503,l),
(110,503,o),
(36,405,o),
(34,247,c),
(64,246,l),
(64,402,o),
(147,473,o),
(253,473,c)
);
}
);
width = 900;
}
);
},
{
glyphname = _percent;
lastChange = "2022-01-11 09:53:35 +0000";
layers = (
{
layerId = "7EBE3D46-E53E-419E-A3EC-596DA2EA1E0D";
name = Regular;
shapes = (
{
closed = 1;
nodes = (
(199,263,o),
(255,320,o),
(255,392,c),
(255,462,o),
(199,519,o),
(137,519,c),
(74,519,o),
(17,462,o),
(17,392,c),
(17,320,o),
(74,263,o),
(137,263,c)
);
},
{
closed = 1;
nodes = (
(109,350,o),
(96,370,o),
(96,388,c),
(96,406,o),
(109,424,o),
(139,424,c),
(169,424,o),
(180,406,o),
(180,388,c),
(180,370,o),
(169,350,o),
(139,350,c)
);
}
);
width = 600;
},
{
layerId = m002;
name = Regular;
shapes = (
{
closed = 1;
nodes = (
(199,263,o),
(255,320,o),
(255,392,c),
(255,462,o),
(199,519,o),
(137,519,c),
(74,519,o),
(17,462,o),
(17,392,c),
(17,320,o),
(74,263,o),
(137,263,c)
);
},
{
closed = 1;
nodes = (
(72,298,o),
(44,349,o),
(44,394,c),
(44,441,o),
(72,487,o),
(136,487,c),
(203,487,o),
(228,441,o),
(228,394,c),
(228,349,o),
(203,298,o),
(136,298,c)
);
}
);
width = 600;
}
);
},
{
glyphname = _qtail;
lastChange = "2022-01-04 20:26:43 +0000";
layers = (
{
anchors = (
{
name = _tailq;
pos = (467,92);
}
);
layerId = "7EBE3D46-E53E-419E-A3EC-596DA2EA1E0D";
name = Regular;
shapes = (
{
closed = 1;
nodes = (
(310,195.839,l),
(466.917,-19,l),
(557,-19,l),
(557,32.877,l),
(354.226,323,l),
(310,323,l)
);
}
);
width = 616;
},
{
anchors = (
{
name = _tailq;
pos = (467,92);
}
);
layerId = m002;
name = Regular;
shapes = (
{
closed = 1;
nodes = (
(310,195.839,l),
(466.917,-19,l),
(557,-19,l),
(557,32.877,l),
(354.226,323,l),
(310,323,l)
);
}
);
width = 616;
}
);
},
{
glyphname = _quote;
lastChange = "2022-01-07 07:51:49 +0000";
layers = (
{
layerId = "7EBE3D46-E53E-419E-A3EC-596DA2EA1E0D";
name = Regular;
shapes = (
{
closed = 1;
nodes = (
(120.666,-16.448,l),
(127.74,-18.145,o),
(112.137,-60.65,o),
(74.567,-132.445,c),
(140.919,-146.562,l),
(143,-147,l),
(145.915,-147,o),
(243.203,-28.964,o),
(228.485,96.242,c),
(117.317,19.456,l)
);
}
);
width = 600;
},
{
layerId = m002;
name = Regular;
shapes = (
{
closed = 1;
nodes = (
(136,16,ls),
(157,10,o),
(149,-15,o),
(114,-40,c),
(151,-47,l),
(153,-47,l),
(156,-47,o),
(202,-10,o),
(203,74,c),
(123,20,l)
);
}
);
width = 600;
}
);
},
{
glyphname = _quotes;
lastChange = "2022-03-07 10:38:02 +0000";
layers = (
{
layerId = "7EBE3D46-E53E-419E-A3EC-596DA2EA1E0D";
name = Regular;
shapes = (
{
closed = 1;
nodes = (
(113,-25,o),
(126,-60,o),
(96,-99,c),
(151,-117,l),
(154,-118,l),
(157,-118,o),
(232,-37,o),
(232,68,c),
(79,-6,l)
);
},
{
pos = (23,-608);
ref = _dot;
}
);
width = 600;
},
{
layerId = m002;
name = Regular;
shapes = (
{
closed = 1;
nodes = (
(162,-27,o),
(165,-37,o),
(152,-54,c),
(174,-60,l),
(176,-60,l),
(176,-60,o),
(213,-20,o),
(206,19,c),
(149,-17,l)
);
},
{
pos = (23,-608);
ref = _dot;
}
);
width = 600;
}
);
},
{
glyphname = _slash;
lastChange = "2022-07-24 10:46:34 +0000";
layers = (
{
layerId = "7EBE3D46-E53E-419E-A3EC-596DA2EA1E0D";
name = Regular;
shapes = (
{
closed = 1;
nodes = (
(282,677,o),
(272,661,o),
(265,646,cs),
(-14,0,l),
(43,0,o),
(99,0,o),
(156,0,c),
(280,370,ls),
(292,405,o),
(292,410,o),
(318,410,cs),
(341,410,o),
(356,677,o),
(302,677,cs)
);
}
);
width = 600;
},
{
layerId = m002;
name = Regular;
shapes = (
{
closed = 1;
nodes = (
(282,647,o),
(271,631,o),
(265,616,cs),
(16,0,l),
(43,0,o),
(20,0,o),
(57,0,c),
(274,566,ls),
(287,601,o),
(301,603,o),
(317,603,cs),
(340,603,o),
(356,647,o),
(302,647,cs)
);
}
);
width = 600;
}
);
changeCount = 2;
},
{
glyphname = _slash_diacritics;
lastChange = "2022-01-07 08:30:41 +0000";
layers = (
{
layerId = "7EBE3D46-E53E-419E-A3EC-596DA2EA1E0D";
name = Regular;
shapes = (
{
closed = 1;
nodes = (
(320.38,362.824,l),
(317.467,489.539,l),
(3.183,373.413,l),
(1.73,244.132,l)
);
}
);
width = 515;
},
{
layerId = m002;
name = Regular;
shapes = (
{
closed = 1;
nodes = (
(320.38,362.824,l),
(317,400,l),
(3,283,l),
(1.73,244.132,l)
);
}
);
width = 515;
}
);
},
{
glyphname = _square_bracket;
lastChange = "2022-01-10 15:01:24 +0000";
layers = (
{
layerId = "7EBE3D46-E53E-419E-A3EC-596DA2EA1E0D";
name = Regular;
shapes = (
{
closed = 1;
nodes = (
(300,721,l),
(93,721,l),
(93,-221,l),
(300,-221,l),
(300,-97,l),
(210,-97,l),
(210,596,l),
(300,596,l)
);
}
);
width = 600;
},
{
layerId = m002;
name = Regular;
shapes = (
{
closed = 1;
nodes = (
(259,675,l),
(134,675,l),
(134,-175,l),
(259,-175,l),
(259,-143,l),
(169,-143,l),
(169,642,l),
(259,642,l)
);
}
);
width = 600;
}
);
},
{
glyphname = _three;
lastChange = "2022-03-07 10:46:42 +0000";
layers = (
{
layerId = "7EBE3D46-E53E-419E-A3EC-596DA2EA1E0D";
name = Regular;
shapes = (
{
closed = 1;
nodes = (
(294,324,o),
(489,329,o),
(489,482,cs),
(489,603,o),
(406,673,o),
(255,673,cs),
(207,673,o),
(127,660,o),
(68,616,c),
(93,469,l),
(132,489,o),
(183,513,o),
(244,513,c),
(329,513,o),
(367,492,o),
(367,454,c),
(367,402,o),
(284,386,o),
(162,386,c),
(162,309,l)
);
}
);
width = 539;
},
{
layerId = m002;
name = Regular;
shapes = (
{
closed = 1;
nodes = (
(374,331,o),
(489,339,o),
(489,492,cs),
(489,595,o),
(406,655,o),
(255,655,cs),
(207,655,o),
(127,642,o),
(68,598,c),
(83,571,l),
(123,599,o),
(183,624,o),
(244,624,c),
(329,624,o),
(457,604,o),
(457,488,c),
(457,373,o),
(364,346,o),
(162,346,c),
(162,316,l)
);
}
);
width = 539;
}
);
},
{
glyphname = _tile;
lastChange = "2022-01-12 20:50:36 +0000";
layers = (
{
layerId = "7EBE3D46-E53E-419E-A3EC-596DA2EA1E0D";
name = Regular;
shapes = (
{
closed = 1;
nodes = (
(322,278,o),
(427,275,cs),
(467,274,o),
(507,285,o),
(541,305,c),
(518,433,l),
(490,418,o),
(434,401,o),
(411,402,cs),
(330,406,o),
(286,451,o),
(205,455,cs),
(165,457,o),
(111,450,o),
(73,416,c),
(100,288,l),
(138,323,o),
(198,330,o),
(221,328,cs),
(318,320,o)
);
}
);
width = 600;
},
{
layerId = m002;
name = Regular;
shapes = (
{
closed = 1;
nodes = (
(322,278,o),
(427,275,cs),
(467,274,o),
(507,285,o),
(541,305,c),
(528,344,l),
(500,329,o),
(444,312,o),
(421,313,cs),
(340,317,o),
(296,362,o),
(215,366,cs),
(175,368,o),
(121,361,o),
(83,327,c),
(100,288,l),
(138,323,o),
(198,330,o),
(221,328,cs),
(318,320,o)
);
}
);
width = 600;
}
);
},
{
glyphname = _two_question;
lastChange = "2022-01-04 20:26:43 +0000";
layers = (
{
layerId = "7EBE3D46-E53E-419E-A3EC-596DA2EA1E0D";
name = Regular;
shapes = (
{
closed = 1;
nodes = (
(63,73,c),
(106,20,l),
(163,20,l),
(163,212,o),
(484,270,o),
(484,498,c),
(484,635,o),
(406,736,o),
(260,736,c),
(212,736,o),
(132,736,o),
(73,692,c),
(98,568,l),
(137,588,o),
(198,602,o),
(259,602,c),
(342,602,o),
(362,547,o),
(362,500,c),
(362,312,o),
(69,282,o)
);
}
);
width = 565;
},
{
layerId = m002;
name = Regular;
shapes = (
{
closed = 1;
nodes = (
(63,73,c),
(106,20,l),
(163,20,l),
(163,212,o),
(484,270,o),
(484,498,c),
(484,635,o),
(406,736,o),
(260,736,c),
(212,736,o),
(132,736,o),
(73,692,c),
(98,568,l),
(137,588,o),
(198,602,o),
(259,602,c),
(342,602,o),
(362,547,o),
(362,500,c),
(362,312,o),
(69,282,o)
);
}
);
width = 565;
}
);
},
{
glyphname = _u_cyr;
lastChange = "2022-01-04 20:26:43 +0000";
layers = (
{
layerId = "7EBE3D46-E53E-419E-A3EC-596DA2EA1E0D";
name = Regular;
shapes = (
{
closed = 1;
nodes = (
(70,292.444,o),
(155.906,211,o),
(274,211,c),
(385,212,l),
(380,337,l),
(338,336,o),
(319.366,335.792,o),
(273.476,337.977,c),
(228.131,339.994,o),
(182,357.293,o),
(182,414,c),
(182,502.571,o),
(70,554.861,o),
(70,414,c)
);
}
);
width = 499;
},
{
layerId = m002;
name = Regular;
shapes = (
{
closed = 1;
nodes = (
(70,292.444,o),
(155.906,211,o),
(274,211,c),
(385,212,l),
(380,337,l),
(338,336,o),
(319.366,335.792,o),
(273.476,337.977,c),
(228.131,339.994,o),
(182,357.293,o),
(182,414,c),
(182,502.571,o),
(70,554.861,o),
(70,414,c)
);
}
);
width = 499;
}
);
},
{
glyphname = _ve_cyr;
lastChange = "2022-01-09 19:35:11 +0000";
layers = (
{
layerId = "7EBE3D46-E53E-419E-A3EC-596DA2EA1E0D";
name = Regular;
shapes = (
{
closed = 1;
nodes = (
(99.243,439.381,l),
(109,415,l),
(120,415,o),
(244,415,o),
(255,415,c),
(419.923,417.062,o),
(480,458,o),
(480,559,c),
(480,661,o),
(399,703,o),
(261,702,c),
(98,701,l),
(120,570,l),
(282,570,l),
(338,570,o),
(354,556,o),
(354,539,c),
(354,518,o),
(339,504,o),
(279,504,c),
(113.749,504,l)
);
}
);
width = 556;
},
{
layerId = m002;
name = Regular;
shapes = (
{
closed = 1;
nodes = (
(99.243,439.381,l),
(109,443,l),
(120,443,o),
(244,443,o),
(255,443,c),
(420,445,o),
(480,482,o),
(480,563,c),
(480,665,o),
(399,703,o),
(261,702,c),
(98,701,l),
(120,670,l),
(282,670,l),
(378,670,o),
(454,650,o),
(454,566,cs),
(454,482,o),
(339,464,o),
(279,464,c),
(114,464,l)
);
}
);
width = 556;
}
);
},
{
glyphname = _w_slash;
lastChange = "2022-01-04 20:26:43 +0000";
layers = (
{
layerId = "7EBE3D46-E53E-419E-A3EC-596DA2EA1E0D";
name = Regular;
shapes = (
{
closed = 1;
nodes = (
(301,287,l),
(268,287,l),
(135,699,l),
(14,699,l),
(217,2,l),
(231,2,l)
);
}
);
width = 600;
},
{
layerId = m002;
name = Regular;
shapes = (
{
closed = 1;
nodes = (
(301,287,l),
(268,287,l),
(135,699,l),
(14,699,l),
(217,2,l),
(231,2,l)
);
}
);
width = 600;
}
);
},
{
glyphname = _w_slash_2;
lastChange = "2022-01-04 20:26:43 +0000";
layers = (
{
layerId = "7EBE3D46-E53E-419E-A3EC-596DA2EA1E0D";
name = Regular;
shapes = (
{
closed = 1;
nodes = (
(275,13,l),
(382,404,l),
(392,403,l),
(383,690,l),
(335,690,l),
(186,168,l),
(237,-19,l)
);
}
);
width = 600;
},
{
layerId = m002;
name = Regular;
shapes = (
{
closed = 1;
nodes = (
(275,13,l),
(382,404,l),
(392,403,l),
(383,690,l),
(335,690,l),
(186,168,l),
(237,-19,l)
);
}
);
width = 600;
}
);
},
{
glyphname = _w_small_slash;
lastChange = "2022-01-04 20:26:43 +0000";
layers = (
{
layerId = "7EBE3D46-E53E-419E-A3EC-596DA2EA1E0D";
name = Regular;
shapes = (
{
closed = 1;
nodes = (
(255,208,l),
(249,208,l),
(153,500,l),
(24,500,l),
(201,10,l),
(216,10,l)
);
}
);
width = 900;
},
{
layerId = m002;
name = Regular;
shapes = (
{
closed = 1;
nodes = (
(255,208,l),
(249,208,l),
(153,500,l),
(24,500,l),
(201,10,l),
(216,10,l)
);
}
);
width = 900;
}
);
},
{
glyphname = _w_small_slash_2;
lastChange = "2022-01-04 20:26:43 +0000";
layers = (
{
layerId = "7EBE3D46-E53E-419E-A3EC-596DA2EA1E0D";
name = Regular;
shapes = (
{
closed = 1;
nodes = (
(408,173,l),
(313,490,l),
(255,490,l),
(239,285,l),
(259,285,l),
(344,15,l),
(409,0,l)
);
}
);
width = 900;
},
{
layerId = m002;
name = Regular;
shapes = (
{
closed = 1;
nodes = (
(408,173,l),
(313,490,l),
(255,490,l),
(239,285,l),
(259,285,l),
(344,15,l),
(409,0,l)
);
}
);
width = 900;
}
);
},
{
glyphname = _x;
lastChange = "2022-01-07 12:29:04 +0000";
layers = (
{
layerId = "7EBE3D46-E53E-419E-A3EC-596DA2EA1E0D";
name = Regular;
shapes = (
{
closed = 1;
nodes = (
(348,193.284,l),
(480,0,l),
(626,0,l),
(392.191,331,l),
(368,281,l)
);
}
);
width = 900;
},
{
layerId = m002;
name = Regular;
shapes = (
{
closed = 1;
nodes = (
(428,193,l),
(570,0,l),
(616,0,l),
(392,330,l),
(368,281,l)
);
}
);
width = 900;
}
);
},
{
glyphname = _x_;
lastChange = "2022-07-12 13:25:28 +0000";
layers = (
{
layerId = "7EBE3D46-E53E-419E-A3EC-596DA2EA1E0D";
name = Regular;
shapes = (
{
closed = 1;
nodes = (
(150,215,l),
(167,185,o),
(220,172,o),
(233,172,cs),
(246,172,o),
(305,175,o),
(329,216,c),
(491,498,l),
(309,498,l),
(266,340,ls),
(262,327,o),
(252,321,o),
(245,321,cs),
(238,321,o),
(227,325,o),
(223,339,cs),
(180,497,l),
(-2,497,l)
);
}
);
width = 483;
},
{
layerId = m002;
name = Regular;
shapes = (
{
closed = 1;
nodes = (
(210,272,ls),
(230,244,o),
(230,232,o),
(243,232,cs),
(256,232,o),
(256,238,o),
(283,276,cs),
(444,498,l),
(408,498,l),
(264,290,ls),
(257,280,o),
(252,275,o),
(245,275,cs),
(238,275,o),
(233,282,o),
(228,289,cs),
(89,497,l),
(49,497,l)
);
}
);
width = 483;
}
);
},
{
glyphname = _y;
lastChange = "2022-07-24 10:35:23 +0000";
layers = (
{
layerId = "7EBE3D46-E53E-419E-A3EC-596DA2EA1E0D";
name = Regular;
shapes = (
{
closed = 1;
nodes = (
(343,-6,o),
(354,10,o),
(360,25,cs),
(554,520,l),
(404,520,l),
(357,301,ls),
(349,266,o),
(337,261,o),
(314,261,cs),
(291,261,o),
(269,-6,o),
(323,-6,cs)
);
}
);
width = 900;
},
{
layerId = m002;
name = Regular;
shapes = (
{
closed = 1;
nodes = (
(339,-6,o),
(345,3,o),
(351,18,cs),
(560,510,l),
(529,510,l),
(350,77,ls),
(336,42,o),
(336,41,o),
(328,41,cs),
(325,41,o),
(319,-6,o),
(329,-6,cs)
);
}
);
width = 900;
}
);
changeCount = 11;
},
{
glyphname = _yQ;
lastChange = "2022-01-04 20:26:43 +0000";
layers = (
{
layerId = "7EBE3D46-E53E-419E-A3EC-596DA2EA1E0D";
name = Regular;
shapes = (
{
closed = 1;
nodes = (
(219.364,8,l),
(201.594,-41.207,l),
(180.945,-97.734,o),
(145.599,-103.466,o),
(101.375,-82.627,c),
(114.674,-218.575,l),
(197.223,-234.556,o),
(258.018,-190.503,o),
(292.349,-100.1,c),
(332.358,8,l)
);
}
);
width = 511;
},
{
layerId = m002;
name = Regular;
shapes = (
{
closed = 1;
nodes = (
(219.364,8,l),
(201.594,-41.207,l),
(180.945,-97.734,o),
(145.599,-103.466,o),
(101.375,-82.627,c),
(114.674,-218.575,l),
(197.223,-234.556,o),
(258.018,-190.503,o),
(292.349,-100.1,c),
(332.358,8,l)
);
}
);
width = 511;
}
);
},
{
glyphname = _ya_cyr;
lastChange = "2022-01-04 20:26:43 +0000";
layers = (
{
layerId = "7EBE3D46-E53E-419E-A3EC-596DA2EA1E0D";
name = Regular;
shapes = (
{
closed = 1;
nodes = (
(70,332,o),
(156,291,o),
(274,291,c),
(313,291,o),
(351,291,o),
(385,292,c),
(380,377,l),
(338,376,o),
(319,376,o),
(273,378,c),
(228,380,o),
(182,397,o),
(182,454,c),
(182,543,o),
(70,595,o),
(70,454,c)
);
},
{
pos = (0,862);
ref = _u_cyr;
scale = (1,-1);
}
);
width = 499;
},
{
layerId = m002;
name = Regular;
shapes = (
{
closed = 1;
nodes = (
(70,332,o),
(156,291,o),
(274,291,c),
(313,291,o),
(351,291,o),
(385,292,c),
(380,377,l),
(338,376,o),
(319,376,o),
(273,378,c),
(228,380,o),
(182,397,o),
(182,454,c),
(182,543,o),
(70,595,o),
(70,454,c)
);
},
{
alignment = -1;
pos = (0,862);
ref = _u_cyr;
scale = (1,-1);
}
);
width = 499;
}
);
},
{
glyphname = _z;
lastChange = "2022-01-04 20:26:43 +0000";
layers = (
{
layerId = "7EBE3D46-E53E-419E-A3EC-596DA2EA1E0D";
name = Regular;
shapes = (
{
closed = 1;
nodes = (
(407,499,l),
(348,499,l),
(167,210,l),
(150,70,l),
(195,70,l),
(449,427,l)
);
}
);
width = 481;
},
{
layerId = m002;
name = Regular;
shapes = (
{
closed = 1;
nodes = (
(407,499,l),
(348,499,l),
(167,210,l),
(150,70,l),
(195,70,l),
(449,427,l)
);
}
);
width = 481;
}
);
},
{
glyphname = _ze_cyr;
lastChange = "2022-01-10 10:43:16 +0000";
layers = (
{
layerId = "7EBE3D46-E53E-419E-A3EC-596DA2EA1E0D";
name = Regular;
shapes = (
{
closed = 1;
nodes = (
(266,252,o),
(479,238,o),
(479,370,c),
(479,494,o),
(392,527,o),
(285,527,c),
(181,527,o),
(148,508,o),
(87,487,c),
(113,343,l),
(152,367,o),
(201,373,o),
(267,373,c),
(332,373,o),
(357,361,o),
(357,341,c),
(357,313,o),
(297,306,o),
(162,305,c),
(162,236,l)
);
}
);
width = 539;
},
{
layerId = m002;
name = Regular;
shapes = (
{
closed = 1;
nodes = (
(267,270,o),
(479,238,o),
(479,370,c),
(479,474,o),
(401,513,o),
(294,513,c),
(190,513,o),
(160,496,o),
(99,475,c),
(103,452,l),
(152,475,o),
(201,486,o),
(267,486,c),
(342,486,o),
(455,491,o),
(455,371,c),
(455,263,o),
(297,275,o),
(162,274,c),
(163,254,l)
);
}
);
width = 539;
}
);
},
{
glyphname = ball;
lastChange = "2022-01-04 20:26:43 +0000";
layers = (
{
layerId = "7EBE3D46-E53E-419E-A3EC-596DA2EA1E0D";
name = Regular;
shapes = (
{
closed = 1;
nodes = (
(364,430,o),
(383,449,o),
(383,472,cs),
(383,496,o),
(364,515,o),
(341,515,c),
(317,515,o),
(298,496,o),
(298,472,cs),
(298,449,o),
(317,430,o),
(341,430,c)
);
}
);
width = 682;
},
{
layerId = m002;
name = Regular;
shapes = (
{
closed = 1;
nodes = (
(364,430,o),
(383,449,o),
(383,472,cs),
(383,496,o),
(364,515,o),
(341,515,c),
(317,515,o),
(298,496,o),
(298,472,cs),
(298,449,o),
(317,430,o),
(341,430,c)
);
}
);
width = 682;
}
);
},
{
glyphname = "five-glyph";
lastChange = "2022-01-04 20:26:43 +0000";
layers = (
{
layerId = "7EBE3D46-E53E-419E-A3EC-596DA2EA1E0D";
name = Regular;
shapes = (
{
closed = 1;
nodes = (
(457,361,o),
(343,375,o),
(343,267,c),
(343,264,l),
(343,178,o),
(307,121,o),
(221,121,c),
(172,121,o),
(116,133,o),
(73,166,c),
(42,49,l),
(96,11,o),
(159,-8,o),
(221,-9,c),
(367,-9,o),
(457,106,o),
(457,255,c),
(457,277,l)
);
}
);
width = 447;
},
{
layerId = m002;
name = Regular;
shapes = (
{
closed = 1;
nodes = (
(457,361,o),
(343,375,o),
(343,267,c),
(343,264,l),
(343,178,o),
(307,121,o),
(221,121,c),
(172,121,o),
(116,133,o),
(73,166,c),
(42,49,l),
(96,11,o),
(159,-8,o),
(221,-9,c),
(367,-9,o),
(457,106,o),
(457,255,c),
(457,277,l)
);
}
);
width = 447;
}
);
},
{
glyphname = newGlyphaaa;
lastChange = "2022-01-04 20:26:43 +0000";
layers = (
{
layerId = "7EBE3D46-E53E-419E-A3EC-596DA2EA1E0D";
name = Regular;
shapes = (
{
closed = 1;
nodes = (
(453.418,163,o),
(504,234.239,o),
(504,317.5,c),
(504,400.761,o),
(453.418,472,o),
(398.5,472,c),
(343.582,472,o),
(293,400.761,o),
(293,317.5,c),
(293,234.239,o),
(343.582,163,o),
(398.5,163,c)
);
}
);
width = 600;
},
{
layerId = m002;
name = Regular;
shapes = (
{
closed = 1;
nodes = (
(453.418,163,o),
(504,234.239,o),
(504,317.5,c),
(504,400.761,o),
(453.418,472,o),
(398.5,472,c),
(343.582,472,o),
(293,400.761,o),
(293,317.5,c),
(293,234.239,o),
(343.582,163,o),
(398.5,163,c)
);
}
);
width = 600;
}
);
},
{
glyphname = _one.001;
lastChange = "2022-01-04 20:26:43 +0000";
layers = (
{
layerId = "7EBE3D46-E53E-419E-A3EC-596DA2EA1E0D";
name = Regular;
shapes = (
{
closed = 1;
nodes = (
(38,556.866,l),
(260,604.124,l),
(260,720,l),
(209.965,720,l),
(38,677.54,l)
);
},
{
pos = (117,3);
ref = _I_small;
},
{
pos = (117,168);
ref = _I_small;
},
{
pos = (117,331);
ref = _I_small;
},
{
pos = (117,477);
ref = _I_small;
},
{
pos = (-1,-219);
ref = "_dash-small";
},
{
pos = (-84,-219);
ref = "_dash-small";
}
);
width = 600;
},
{
layerId = m002;
name = Regular;
shapes = (
{
closed = 1;
nodes = (
(38,556.866,l),
(260,604.124,l),
(260,720,l),
(209.965,720,l),
(38,677.54,l)
);
},
{
pos = (117,3);
ref = _I_small;
},
{
pos = (117,168);
ref = _I_small;
},
{
pos = (117,331);
ref = _I_small;
},
{
pos = (117,477);
ref = _I_small;
},
{
pos = (-1,-219);
ref = "_dash-small";
},
{
pos = (-84,-219);
ref = "_dash-small";
}
);
width = 600;
}
);
},
